<?xml version="1.0" standalone="no"?>
<!DOCTYPE svg PUBLIC "-//W3C//DTD SVG 1.1//EN" "http://www.w3.org/Graphics/SVG/1.1/DTD/svg11.dtd" >
<svg>
<metadata>
Created by FontForge 20090914 at Wed Mar  2 08:46:04 2016
 By www-data
Font data copyright Google 2012
</metadata>
<defs>
<font id="RobotoCondensed-Bold" horiz-adv-x="995" >
  <font-face 
    font-family="Roboto Condensed"
    font-weight="700"
    font-stretch="condensed"
    units-per-em="2048"
    panose-1="2 0 0 0 0 0 0 0 0 0"
    ascent="1638"
    descent="-410"
    x-height="1082"
    cap-height="1456"
    bbox="-1324.18 -554.996 2070 2171"
    underline-thickness="100"
    underline-position="-100"
    unicode-range="U+0002-U+FFFD"
  />
<missing-glyph horiz-adv-x="449" 
 />
    <glyph glyph-name="fi" unicode="fi" horiz-adv-x="1107" 
d="M151 0l-0.00292969 876h-133v206h133v70c0 138 37.333 244 112 318s180 111 316 111c46.667 0 92.834 -5 138.501 -15s96.834 -24.667 153.501 -44l-40 -232c-43.333 14.667 -81.833 26 -115.5 34s-73.167 12 -118.5 12c-53.333 0 -93.666 -15.667 -120.999 -47
s-41 -77 -41 -137v-70h173v-206h-173v-876h-284zM1001 0h-285v1082h285v-1082z" />
    <glyph glyph-name=".notdef" horiz-adv-x="449" 
 />
    <glyph glyph-name="uni0002" horiz-adv-x="16" 
 />
    <glyph glyph-name="uni0009" unicode="&#x9;" horiz-adv-x="16" 
 />
    <glyph glyph-name="nonmarkingreturn" unicode="&#xd;" horiz-adv-x="449" 
 />
    <glyph glyph-name="space" unicode=" " horiz-adv-x="449" 
 />
    <glyph glyph-name="exclam" unicode="!" horiz-adv-x="506" 
d="M397 506h-285v950h285v-950zM395 0h-280v258h280v-258z" />
    <glyph glyph-name="quotedbl" unicode="&#x22;" horiz-adv-x="602" 
d="M249 1297l-74 -251h-124v514h198v-263zM548 1297l-74 -251h-123l1 247v267h196v-263z" />
    <glyph glyph-name="numbersign" unicode="#" horiz-adv-x="1034" 
d="M538 410h-136l-59 -410h-173l59 410h-185v166h209l43 298h-189v166h213l61 416h172l-60 -416h136l60 416h173l-60 -416h186v-166h-210l-43 -298h189v-166h-213l-59 -410h-173zM426 576h136l43 298h-136z" />
    <glyph glyph-name="dollar" unicode="$" horiz-adv-x="1019" 
d="M651 381c0 56 -11 100.332 -33 132.999s-60.333 64.667 -115 96c-129.333 57.333 -224.5 118.333 -285.5 183s-91.5 157.667 -91.5 279c0 110.667 31.167 202 93.5 274s145.833 114.333 250.5 127v212h144v-215c99.333 -18.667 178.166 -68.167 236.499 -148.5
s87.5 -184.833 87.5 -313.5h-284c0 78 -11.667 138 -35 180s-54 63 -92 63c-39.333 0 -68.666 -16.667 -87.999 -50s-29 -76.666 -29 -129.999c0 -50.667 10.833 -92.334 32.5 -125.001s60.834 -65 117.501 -97c128 -60.667 222.5 -123.667 283.5 -189
s91.5 -157.666 91.5 -276.999c0 -114 -30.667 -205.833 -92 -275.5s-144 -110.834 -248 -123.501v-199h-145v199c-107.333 13.333 -196 58.333 -266 135s-105 189 -105 337h284c0 -90 14.667 -154.5 44 -193.5s67.666 -58.5 114.999 -58.5c42 0 74 16.333 96 49
s33 75.334 33 128.001z" />
    <glyph glyph-name="percent" unicode="%" horiz-adv-x="1356" 
d="M90 1176c0 86 24.834 157.667 74.501 215s119.5 86 209.5 86c91.333 0 161.666 -28.5 210.999 -85.5s74 -128.833 74 -215.5v-77c0 -86.667 -24.667 -158.167 -74 -214.5s-119 -84.5 -209 -84.5c-90.667 0 -161 28.333 -211 85s-75 128 -75 214v77zM276.001 1099
c0 -38 8.66602 -70.168 25.999 -96.501s42 -39.5 74 -39.5c30.667 0 54.5 13 71.5 39s25.5 58.333 25.5 97v77c0 38.667 -8.66699 71.334 -26 98.001s-41.666 40 -72.999 40s-55.5 -13.5 -72.5 -40.5s-25.5 -59.5 -25.5 -97.5v-77zM700 356.999
c0 85.333 25.001 156.667 75.001 214s120 86 210 86c91.333 0 161.666 -28.5 210.999 -85.5s74 -128.5 74 -214.5v-77c0 -86.667 -24.667 -158.334 -74 -215.001s-119 -85 -209 -85c-90.667 0 -161.167 28.333 -211.5 85s-75.5 128.334 -75.5 215.001v77zM887.001 280
c0 -37.333 9.49902 -69.6689 28.499 -97.002s42.833 -40.666 71.5 -39.999c36.667 -0.666992 62 11.333 76 36s21 58.334 21 101.001v77c0 38 -8.66699 70.333 -26 97s-41.666 40 -72.999 40c-32 0 -56.333 -13.333 -73 -40s-25 -59 -25 -97v-77zM417 109.997l-134 74
l601 1138l134 -74z" />
    <glyph glyph-name="ampersand" unicode="&#x26;" horiz-adv-x="1221" 
d="M59 388c0 78.667 19.167 146.497 57.5 203.497s96.833 116.5 175.5 178.5c-41.333 62.667 -72 119.5 -92 170.5s-30 103.167 -30 156.5c0 114 32.833 205.833 98.5 275.5s153.167 104.5 262.5 104.5c94.667 0 172.167 -32.833 232.5 -98.5s90.5 -145.167 90.5 -238.5
c0 -64.667 -14.5 -123.834 -43.5 -177.501s-68.167 -100.167 -117.5 -139.5l-81 -65l230 -304l6 1c18 34.667 32.167 73.834 42.5 117.501s15.5 89.834 15.5 138.501h208c0 -92 -9.83301 -176.167 -29.5 -252.5s-50.5 -144.166 -92.5 -203.499l194 -255h-322l-64 84
c-50 -35.333 -100.833 -61.666 -152.5 -78.999s-107.167 -26 -166.5 -26c-128.667 0 -231.167 37.667 -307.5 113s-114.5 174 -114.5 296zM498 205.997c29.333 0 58.667 4 88 12s57.666 20.333 84.999 37l-259 344l-7 -6c-23.333 -32 -39.166 -63.167 -47.499 -93.5
s-12.5 -61.5 -12.5 -93.5c0 -58 14.5 -105.833 43.5 -143.5s65.5 -56.5 109.5 -56.5zM423.001 1100c0 -27.333 5.83398 -55.333 17.501 -84s29.167 -60 52.5 -94l59 44c33.333 24 55.666 48.5 66.999 73.5s17 52.5 17 82.5c0 33.333 -9.83301 62.833 -29.5 88.5
s-45.167 38.5 -76.5 38.5c-34.667 0 -61.167 -14.167 -79.5 -42.5s-27.5 -63.833 -27.5 -106.5z" />
    <glyph glyph-name="quotesingle" unicode="'" horiz-adv-x="302" 
d="M242 1288l-66 -281h-123l-1 268v285h190v-272z" />
    <glyph glyph-name="parenleft" unicode="(" horiz-adv-x="633" 
d="M109 591c0 256 43.667 475.499 131 658.499s186.333 301.833 297 356.5h6l50 -143c-70 -65.333 -129.167 -171.166 -177.5 -317.499s-72.5 -330.5 -72.5 -552.5v-28c0 -222 24 -406 72 -552s107.333 -252.333 178 -319l-50 -141h-6
c-110.667 54.667 -209.667 173 -297 355s-131 401.667 -131 659v24z" />
    <glyph glyph-name="parenright" unicode=")" horiz-adv-x="632" 
d="M539 567c0 -250 -45.667 -468.167 -137 -654.5s-193.333 -306.166 -306 -359.499h-6l-52 141c69.333 65.333 128.333 171.333 177 318s73 331 73 553v28c0 221.333 -24.5 405.666 -73.5 552.999s-107.833 253.666 -176.5 318.999l52 141h6
c112.667 -53.333 214.667 -173.666 306 -360.999s137 -405.333 137 -654v-24z" />
    <glyph glyph-name="asterisk" unicode="*" horiz-adv-x="825" 
d="M295 966l-264 92l53 173l260 -127l-19 352h178l-19 -358l253 125l53 -175l-268 -93l176 -269l-144 -107l-149 294l-150 -285l-143 103z" />
    <glyph glyph-name="plus" unicode="+" 
d="M630 810h306v-254h-306v-410h-269v410h-307v254h307v396h269v-396z" />
    <glyph glyph-name="comma" unicode="," horiz-adv-x="459" 
d="M358 2l-145 -311h-166l59 319v231h252v-239z" />
    <glyph glyph-name="hyphen" unicode="-" horiz-adv-x="748" 
d="M617 511h-497v228h497v-228z" />
    <glyph glyph-name="period" unicode="." horiz-adv-x="543" 
d="M405 0h-281v258h281v-258z" />
    <glyph glyph-name="slash" unicode="/" horiz-adv-x="646" 
d="M192 -125h-204l432 1581h206z" />
    <glyph glyph-name="zero" unicode="0" horiz-adv-x="1014" 
d="M933 571c0 -194 -38.5 -341.167 -115.5 -441.5s-180.167 -150.5 -309.5 -150.5c-130.667 0 -234.667 50.167 -312 150.5s-116 247.5 -116 441.5v313c0 193.333 38.5 340.5 115.5 441.5s180.5 151.5 310.5 151.5s233.667 -50.5 311 -151.5s116 -248.167 116 -441.5v-313z
M649 909c0 117.333 -12.334 203 -37.001 257s-59 79.333 -103 76h-6c-44.667 3.33301 -79 -22 -103 -76s-36 -139.667 -36 -257v-361c0 -118.667 12.333 -205.167 37 -259.5s59.334 -79.5 104.001 -75.5h6c44 -4 78 21 102 75s36 140.667 36 260v361z" />
    <glyph glyph-name="one" unicode="1" horiz-adv-x="1019" 
d="M682 0h-284v1159l-270 -6v205l554 99v-1457z" />
    <glyph glyph-name="two" unicode="2" horiz-adv-x="1019" 
d="M943 0h-859.999v193l397 503c52.667 74.667 90.5 139.667 113.5 195s34.5 105.666 34.5 150.999c0 62 -12 112 -36 150s-58.667 57 -104 57c-46.667 0 -82.5 -23 -107.5 -69s-37.5 -106.333 -37.5 -181h-277l-2 5c-2.66699 132 34.666 243.833 111.999 335.5
s181.333 137.5 312 137.5c133.333 0 237.333 -38.667 312 -116s112 -182.666 112 -315.999c0 -89.333 -20.833 -172 -62.5 -248s-111.167 -175.333 -208.5 -298l-190 -272h492v-227z" />
    <glyph glyph-name="three" unicode="3" horiz-adv-x="1019" 
d="M340 853l141.999 -0.000976562c50.667 0 88.334 18 113.001 54s37 86.333 37 151c0 56.667 -12.333 102.667 -37 138s-60 53 -106 53c-37.333 0 -69.5 -15.667 -96.5 -47s-40.5 -72.333 -40.5 -123h-275l-2 6c-3.33301 115.333 34.5 209.5 113.5 282.5
s176.5 109.5 292.5 109.5c132 0 237.333 -36.167 316 -108.5s118 -174.5 118 -306.5c0 -66 -17 -127.167 -51 -183.5s-80.667 -100.166 -140 -131.499c68 -28 120 -71.5 156 -130.5s54 -129.167 54 -210.5c0 -132.667 -42.5 -237 -127.5 -313s-193.833 -114 -326.5 -114
c-116.667 0 -217 35.833 -301 107.5s-124.333 174.167 -121 307.5l2 6h276c0 -56 14.667 -102.333 44 -139s65.666 -55 108.999 -55c49.333 0 88.5 18.5 117.5 55.5s43.5 86.5 43.5 148.5c0 77.333 -14.167 133.833 -42.5 169.5s-70.166 53.5 -125.499 53.5h-142v220z" />
    <glyph glyph-name="four" unicode="4" horiz-adv-x="1019" 
d="M834 546h126v-228h-126v-318h-283v318h-483l-15 178l497 960h284v-910zM311 546h240v503l-6 1l-15 -27z" />
    <glyph glyph-name="five" unicode="5" horiz-adv-x="1019" 
d="M110 644l71.999 811.998h712v-233h-480l-31 -343c20.667 20.667 46.5 37.834 77.5 51.501s63.5 21.167 97.5 22.5c121.333 2 214.5 -39.833 279.5 -125.5s97.5 -206.167 97.5 -361.5c0 -138.667 -36.833 -254.667 -110.5 -348s-178.834 -140 -315.501 -140
c-116 0 -216.167 37.167 -300.5 111.5s-125.166 175.166 -122.499 302.499l2 5l276 15c0 -65.333 13.333 -116.166 40 -152.499s61.667 -54.5 105 -54.5c50 0 86.333 23.833 109 71.5s34 110.167 34 187.5c0 86 -12.667 154 -38 204s-64 75 -116 75
c-39.333 0 -69.666 -10.667 -90.999 -32s-36 -49.666 -44 -84.999z" />
    <glyph glyph-name="six" unicode="6" horiz-adv-x="1019" 
d="M594 1477c47.333 0 90.501 -5.16602 129.501 -15.499s78.833 -25.833 119.5 -46.5l-48 -215c-35.333 15.333 -67.833 26.833 -97.5 34.5s-63.834 11.5 -102.501 11.5c-69.333 0 -124.833 -31.5 -166.5 -94.5s-61.5 -152.167 -59.5 -267.5l4 -4
c26 30 59.333 53.667 100 71s86 26 136 26c110 0 195.833 -46.333 257.5 -139s92.5 -211.334 92.5 -356.001c0 -145.333 -39.667 -265.5 -119 -360.5s-181.666 -142.5 -306.999 -142.5c-134.667 0 -243.834 52 -327.501 156s-125.5 246.667 -125.5 428v300
c0 188.667 48.167 338.167 144.5 448.5s219.5 165.5 369.5 165.5zM532.001 753.001c-39.333 0 -73 -6.83203 -101 -20.499s-50.333 -32.834 -67 -57.501v-115c0 -114 15.167 -201.667 45.5 -263s71.5 -92 123.5 -92c42.667 0 77 27.167 103 81.5s39 119.5 39 195.5
c0 80.667 -13.333 146 -40 196s-61 75 -103 75z" />
    <glyph glyph-name="seven" unicode="7" horiz-adv-x="1019" 
d="M941 1228c-131.333 -168.667 -218.5 -330.833 -261.5 -486.5s-74.167 -356.167 -93.5 -601.5l-13 -140h-285l14 140c18 218 56.833 417.333 116.5 598s143.167 344 250.5 490h-614v228h886v-228z" />
    <glyph glyph-name="eight" unicode="8" horiz-adv-x="1019" 
d="M910 1070c0 -73.333 -16.499 -138 -49.499 -194s-78.167 -99.667 -135.5 -131c65.333 -33.333 116.666 -80 153.999 -140s56 -129 56 -207c0 -135.333 -39 -239 -117 -311s-180.667 -108 -308 -108s-230.333 36.167 -309 108.5s-118 175.833 -118 310.5
c0 78 18.667 147.167 56 207.5s89 106.833 155 139.5c-58 31.333 -103.333 75 -136 131s-49 120.667 -49 194c0 128.667 36.667 228.667 110 300s170 107 290 107s216.833 -35.667 290.5 -107s110.5 -171.333 110.5 -300zM651.001 419
c0 65.333 -13.002 117.166 -39.002 155.499s-60.333 57.5 -103 57.5c-43.333 0 -77.666 -19.167 -102.999 -57.5s-38 -90.166 -38 -155.499c0 -66.667 12.667 -118.834 38 -156.501s60 -56.5 104 -56.5c42.667 0 76.834 18.833 102.501 56.5s38.5 89.834 38.5 156.501z
M623.999 1056c0 59.333 -9.83301 106.333 -29.5 141s-48.167 52 -85.5 52s-65.666 -17 -84.999 -51s-29 -81.333 -29 -142c0 -61.333 9.83301 -109.5 29.5 -144.5s48.167 -52.5 85.5 -52.5s65.666 17.333 84.999 52s29 83 29 145z" />
    <glyph glyph-name="nine" unicode="9" horiz-adv-x="1019" 
d="M449 206c57.333 0 104.833 27.3311 142.5 81.998s56.5 131.334 56.5 230.001v56c-26.667 -38.667 -57.834 -68 -93.501 -88s-73.5 -30 -113.5 -30c-114 0 -203.5 44.833 -268.5 134.5s-97.5 211.834 -97.5 366.501c0 146 40.167 269.167 120.5 369.5
s181.833 150.5 304.5 150.5c127.333 0 231 -51.5 311 -154.5s120 -246.5 120 -430.5v-356c0 -170.667 -45.5 -306.167 -136.5 -406.5s-206.167 -150.5 -345.5 -150.5c-41.333 0 -85 5.33301 -131 16s-88.667 26 -128 46l32 212c36.667 -16 72.834 -27.833 108.501 -35.5
s75.167 -11.5 118.5 -11.5zM495 669.998c33.333 0 62.833 8.16699 88.5 24.5s47.167 38.5 64.5 66.5v166c0 105.333 -13.333 185 -40 239s-61.667 79.667 -105 77h-6c-40.667 2.66699 -74 -24.833 -100 -82.5s-39 -125.5 -39 -203.5c0 -87.333 11.667 -157 35 -209
s57.333 -78 102 -78z" />
    <glyph glyph-name="colon" unicode=":" horiz-adv-x="540" 
d="M408 0h-281v258h281v-258zM408 823h-281v258h281v-258z" />
    <glyph glyph-name="semicolon" unicode=";" horiz-adv-x="516" 
d="M399 823h-281v258h281v-258zM400 2l-145 -311h-166l59 319v231h252v-239z" />
    <glyph glyph-name="less" unicode="&#x3c;" horiz-adv-x="898" 
d="M305 545v-6l482 -203v-271l-739 365v230l739 364v-270z" />
    <glyph glyph-name="equal" unicode="=" horiz-adv-x="1023" 
d="M892 756h-772v228h772v-228zM892 323h-772v229h772v-229z" />
    <glyph glyph-name="greater" unicode="&#x3e;" horiz-adv-x="909" 
d="M593 543v6l-487 206v269l745 -364v-230l-745 -365v269z" />
    <glyph glyph-name="question" unicode="?" horiz-adv-x="898" 
d="M270 413c0.666992 90.667 13.833 158.001 39.5 202.001s74.834 97 147.501 159c37.333 36.667 67 77.167 89 121.5s33 95.166 33 152.499c0 61.333 -12.5 110 -37.5 146s-60.5 54 -106.5 54c-35.333 0 -66 -15.5 -92 -46.5s-39.333 -75.167 -40 -132.5h-276l-2 6
c-2 131.333 35 231.166 111 299.499s175.667 102.5 299 102.5c133.333 0 238.166 -38.5 314.499 -115.5s114.5 -181.167 114.5 -312.5c0 -83.333 -21.333 -160.5 -64 -231.5s-96 -130.5 -160 -178.5c-34 -30.667 -56.833 -62.167 -68.5 -94.5s-17.5 -76.166 -17.5 -131.499
h-284zM551.999 0.000976562h-281v247h281v-247z" />
    <glyph glyph-name="at" unicode="@" horiz-adv-x="1615" 
d="M1536 516c-5.33301 -146 -43.833 -272 -115.5 -378s-178.834 -159 -321.501 -159c-48 0 -89.167 14.833 -123.5 44.5s-58.5 71.834 -72.5 126.501c-25.333 -56.667 -56.5 -98.834 -93.5 -126.501s-80.167 -41.5 -129.5 -41.5c-85.333 0 -150.833 39.667 -196.5 119
s-62.5 184.333 -50.5 315c14.667 168 57.167 302.667 127.5 404s155.5 152 255.5 152c70.667 0 127.667 -8.66699 171 -26s90.666 -44 141.999 -80l-3 -4h5l-46 -569c-3.33301 -64.667 0 -108.667 10 -132s23.667 -32.666 41 -27.999l6 -1
c64 -3.33301 115.5 31.667 154.5 105s61.167 166.333 66.5 279c8.66699 233.333 -31 415.5 -119 546.5s-224 196.5 -408 196.5c-177.333 0 -318 -70.167 -422 -210.5s-160 -330.5 -168 -570.5c-10.667 -234.667 31.333 -420.5 126 -557.5s230.334 -205.5 407.001 -205.5
c50 0 101.667 6.5 155 19.5s99.333 29.5 138 49.5l35 -148c-40 -28 -90.5 -49.833 -151.5 -65.5s-120.833 -23.5 -179.5 -23.5c-235.333 0 -416.833 83 -544.5 249s-186.167 393.333 -175.5 682c10 285.333 85.333 512.666 226 681.999s326.667 254 558 254
c228 0 403.333 -80.333 526 -241s179.334 -379.667 170.001 -657zM649 416c-5.33301 -84.667 -0.167969 -149.332 15.499 -193.999s40.834 -67 75.501 -67c30.667 0 58.5 9.5 83.5 28.5s47.167 53.5 66.5 103.5v6l39 496c-12.667 3.33301 -25.167 6.16602 -37.5 8.49902
s-24.833 3.5 -37.5 3.5c-63.333 0 -110.833 -31.667 -142.5 -95s-52.5 -160 -62.5 -290z" />
    <glyph glyph-name="A" unicode="A" horiz-adv-x="1134" 
d="M765 309h-384l-78 -309h-287l410 1456h296l409 -1456h-287zM439 538h268l-131 515h-6z" />
    <glyph glyph-name="B" unicode="B" horiz-adv-x="1136" 
d="M110 0v1456h429c150 0 267.167 -33.333 351.5 -100s126.5 -166 126.5 -298c0 -69.333 -15.333 -130.833 -46 -184.5s-76.667 -93.834 -138 -120.501c76.667 -18 133.334 -57 170.001 -117s55 -130.333 55 -211c0 -139.333 -39.833 -245 -119.5 -317
s-193.834 -108 -342.501 -108h-486zM395 642.001v-414.999h201c60 0 104.833 16.667 134.5 50s44.5 83 44.5 149c0 69.333 -12.667 122.666 -38 159.999s-66 56 -122 56h-220zM395 841.002l157 0.000976562c58 1.33301 102.5 18.166 133.5 50.499s46.5 78.833 46.5 139.5
c0 68 -16 117.833 -48 149.5s-80.333 47.5 -145 47.5h-144v-387z" />
    <glyph glyph-name="C" unicode="C" horiz-adv-x="1088" 
d="M1023 469l3 -5.99902c1.33301 -160 -36.667 -280.667 -114 -362s-191.333 -122 -342 -122s-271 46.167 -361 138.5s-135 223.166 -135 392.499v435c0 168.667 43.5 299.5 130.5 392.5s203.5 139.5 349.5 139.5c154.667 0 271.5 -41.333 350.5 -124
s119.833 -205 122.5 -367l-3 -6h-274c4 95.333 -9 164 -39 206s-82.333 63 -157 63c-64 0 -113 -25 -147 -75s-51 -125.667 -51 -227v-437c0 -102.667 18.167 -179 54.5 -229s89.5 -75 159.5 -75c68.667 0 116.5 19.833 143.5 59.5s38.833 107.5 35.5 203.5h274z" />
    <glyph glyph-name="D" unicode="D" horiz-adv-x="1151" 
d="M110 0v1456h440c149.333 0 272.666 -56.5 369.999 -169.5s146 -258.5 146 -436.5v-245c0 -178 -48.667 -323.333 -146 -436s-220.666 -169 -369.999 -169h-440zM395 1228v-1001h139c79.333 0 140.5 34.5 183.5 103.5s64.5 160.5 64.5 274.5v247
c0 113.333 -21.5 204.333 -64.5 273s-104.167 103 -183.5 103h-139z" />
    <glyph glyph-name="E" unicode="E" horiz-adv-x="1008" 
d="M884 639h-489v-412h575v-227h-860v1456h858v-228h-573v-362h489v-227z" />
    <glyph glyph-name="F" unicode="F" horiz-adv-x="1016" 
d="M889 605h-494v-605h-285v1456h866v-228h-581v-396h494v-227z" />
    <glyph glyph-name="G" unicode="G" horiz-adv-x="1179" 
d="M1074 216c-39.333 -62.667 -98.333 -117.833 -177 -165.5s-178.334 -71.5 -299.001 -71.5c-156 0 -281.167 45.667 -375.5 137s-141.5 221.333 -141.5 390v444c0 167.333 45.5 297 136.5 389s211.5 138 361.5 138c161.333 0 282.333 -39.5 363 -118.5
s122.667 -192.167 126 -339.5l-2 -6h-267c-2 82 -20.167 141.833 -54.5 179.5s-86.833 56.5 -157.5 56.5c-69.333 0 -123.666 -24.5 -162.999 -73.5s-59 -123.5 -59 -223.5v-446c0 -102 19.833 -177.5 59.5 -226.5s97.5 -73.5 173.5 -73.5c56.667 0 98.5 7.66699 125.5 23
s49.167 38 66.5 68v261h-192v200h476v-542z" />
    <glyph glyph-name="H" unicode="H" horiz-adv-x="1241" 
d="M1131 0h-284v603h-452v-603h-285v1456h285v-626h452v626h284v-1456z" />
    <glyph glyph-name="I" unicode="I" horiz-adv-x="534" 
d="M408 0h-283v1456h283v-1456z" />
    <glyph glyph-name="J" unicode="J" horiz-adv-x="1015" 
d="M623 1456l282.999 0.000976562v-1012c0 -142.667 -40.167 -255.834 -120.5 -339.501s-181.5 -125.5 -303.5 -125.5c-132 0 -236.5 37.333 -313.5 112s-114.167 184.667 -111.5 330l3 6h277c0 -76.667 13.5 -132.667 40.5 -168s61.833 -53 104.5 -53
c38.667 0 71.834 21 99.501 63s41.5 100.333 41.5 175v1012z" />
    <glyph glyph-name="K" unicode="K" horiz-adv-x="1137" 
d="M519 605h-124v-605h-285v1456h285v-592h92l284 592h349l-397 -665l430 -791h-346z" />
    <glyph glyph-name="L" unicode="L" horiz-adv-x="959" 
d="M395 227h532v-227h-817v1456h285v-1229z" />
    <glyph glyph-name="M" unicode="M" horiz-adv-x="1481" 
d="M474 1456l261 -1069h6l264 1069h371v-1456h-283v423l24 566l-6 1l-278 -990h-189l-275 982l-6 -1l25 -558v-423h-283v1456h369z" />
    <glyph glyph-name="N" unicode="N" horiz-adv-x="1241" 
d="M1129 0h-283l-445 931l-6 -2v-929h-285v1456h285l445 -930l6 2v928h283v-1456z" />
    <glyph glyph-name="O" unicode="O" horiz-adv-x="1166" 
d="M1091 523c0 -170.667 -46.332 -304 -138.999 -400s-216 -144 -370 -144s-277 48 -369 144s-138 229.333 -138 400v408c0 170 46 303.5 138 400.5s214.667 145.5 368 145.5s276.666 -48.5 369.999 -145.5s140 -230.5 140 -400.5v-408zM808.001 933
c0 104 -19.333 182.501 -58 235.501s-95 79.5 -169 79.5c-74.667 0 -130.667 -26.333 -168 -79s-56 -131.334 -56 -236.001v-410c0 -105.333 19 -184.333 57 -237s94 -79 168 -79c73.333 0 129.333 26.333 168 79s58 131.667 58 237v410z" />
    <glyph glyph-name="P" unicode="P" horiz-adv-x="1158" 
d="M395 522v-522h-285v1456h506c145.333 0 260 -43 344 -129s126 -198.667 126 -338c0 -140 -42.167 -252.833 -126.5 -338.5s-198.833 -128.5 -343.5 -128.5h-221zM395 750l221 -0.000976562c60.667 0 107 22.333 139 67s48 101.334 48 170.001
c0 69.333 -15.833 126.833 -47.5 172.5s-78.167 68.5 -139.5 68.5h-221v-478z" />
    <glyph glyph-name="Q" unicode="Q" horiz-adv-x="1241" 
d="M1097 523c0 -75.333 -9.66504 -143.999 -28.998 -205.999s-46.666 -115.667 -81.999 -161l216 -237l-176 -150l-224 249c-32.667 -12.667 -66.834 -22.334 -102.501 -29.001s-72.834 -10 -111.501 -10c-154 0 -277 48 -369 144s-138 229.333 -138 400v408
c0 170 46 303.5 138 400.5s214.667 145.5 368 145.5s276.666 -48.5 369.999 -145.5s140 -230.5 140 -400.5v-408zM814.002 933.001c0 104 -19.333 182.501 -58 235.501s-95 79.5 -169 79.5c-74.667 0 -130.667 -26.333 -168 -79s-56 -131.334 -56 -236.001v-410
c0 -105.333 19 -184.333 57 -237s94 -79 168 -79c73.333 0 129.333 26.333 168 79s58 131.667 58 237v410z" />
    <glyph glyph-name="R" unicode="R" horiz-adv-x="1162" 
d="M395 579l0.000976562 -578.998h-284v1455h475c143.333 0 255.833 -37.833 337.5 -113.5s122.5 -180.834 122.5 -315.501c0 -76 -17 -141.5 -51 -196.5s-83.667 -98.833 -149 -131.5c74.667 -25.333 128.5 -67.333 161.5 -126s49.5 -132 49.5 -220v-103
c0 -40 4.66699 -82.833 14 -128.5s25.666 -78.834 48.999 -99.501v-21h-294c-23.333 21.333 -38 56 -44 104s-9 97 -9 147v99c0 72.667 -14.833 129 -44.5 169s-72.167 60 -127.5 60h-206zM395.001 806.002l190 0.000976562c58 0 102 17.667 132 53s45 85.666 45 150.999
c0 66.667 -15 119.667 -45 159s-73.667 59 -131 59h-191v-422z" />
    <glyph glyph-name="S" unicode="S" horiz-adv-x="1109" 
d="M757 380c0 56.667 -14.6641 101.501 -43.9971 134.501s-81 65.5 -155 97.5c-151.333 52.667 -264.833 112.5 -340.5 179.5s-113.5 160.833 -113.5 281.5c0 119.333 44 216.5 132 291.5s200.333 112.5 337 112.5c138.667 0 251.334 -41.833 338.001 -125.5
s128.667 -189.167 126 -316.5l-2 -6h-276c0 66.667 -16.667 120.667 -50 162s-80.333 62 -141 62c-56.667 0 -100.834 -17.167 -132.501 -51.5s-47.5 -77.5 -47.5 -129.5c0 -48 17.667 -87.5 53 -118.5s96.666 -65.5 183.999 -103.5
c138 -46.667 241.833 -105.834 311.5 -177.501s104.5 -168.5 104.5 -290.5c0 -126 -42 -224.667 -126 -296s-195.667 -107 -335 -107c-138.667 0 -258.834 40.5 -360.501 121.5s-150.834 197.167 -147.501 348.5l2 6h277c0 -90 19 -154.667 57 -194s95.333 -59 172 -59
c60 0 104.5 16 133.5 48s43.5 75.333 43.5 130z" />
    <glyph glyph-name="T" unicode="T" horiz-adv-x="994" 
d="M967 1228h-328v-1228h-284v1228h-326v228h938v-228z" />
    <glyph glyph-name="U" unicode="U" horiz-adv-x="1176" 
d="M1082 1456l-0.000976562 -991.002c0 -155.333 -45.5 -275.166 -136.5 -359.499s-210.167 -126.5 -357.5 -126.5s-266.5 42.333 -357.5 127s-136.5 204.334 -136.5 359.001v991h284v-991c0 -88.667 18.333 -154 55 -196s88.334 -63 155.001 -63c68.667 0 121 20 157 60
s54 106.333 54 199v991h283z" />
    <glyph glyph-name="V" unicode="V" horiz-adv-x="1129" 
d="M549 372l11 -56h6l11 53l243 1087h299l-407 -1456h-296l-407 1456h299z" />
    <glyph glyph-name="W" unicode="W" horiz-adv-x="1548" 
d="M1087 527h6l157 929h276l-281 -1456h-265l-205 892h-6l-203 -892h-264l-281 1456h276l157 -929h6l210 929h204z" />
    <glyph glyph-name="X" unicode="X" horiz-adv-x="1127" 
d="M558 947h6l198 509h329l-353 -722l377 -734h-343l-204 520h-6l-204 -520h-331l362 734l-353 722h327z" />
    <glyph glyph-name="Y" unicode="Y" horiz-adv-x="1124" 
d="M558 832h6l243 624h309l-416 -938v-518h-284v536l-409 920h311z" />
    <glyph glyph-name="Z" unicode="Z" horiz-adv-x="998" 
d="M386 227h559v-227h-879v143l546 1086h-552v227h876v-138z" />
    <glyph glyph-name="bracketleft" unicode="[" horiz-adv-x="530" 
d="M505 1478h-112v-1601h112v-216h-399v2034h399v-217z" />
    <glyph glyph-name="backslash" unicode="\" horiz-adv-x="758" 
d="M0 1456h280l515 -1581h-282z" />
    <glyph glyph-name="bracketright" unicode="]" horiz-adv-x="530" 
d="M21 1695h399v-2034h-399v216h114v1601h-114v217z" />
    <glyph glyph-name="asciicircum" unicode="^" horiz-adv-x="785" 
d="M257 729h-219l253 727h206l253 -727h-219l-134 422l-2 8h-6l-1 -8z" />
    <glyph glyph-name="underscore" unicode="_" horiz-adv-x="793" 
d="M783 -220h-775v220h775v-220z" />
    <glyph glyph-name="grave" unicode="`" horiz-adv-x="629" 
d="M549 1211h-230l-246 260l3 6h298z" />
    <glyph glyph-name="a" unicode="a" horiz-adv-x="944" 
d="M619 0c-8 18 -15.167 37.667 -21.5 59s-11.166 43 -14.499 65c-26.667 -44 -59.167 -79.167 -97.5 -105.5s-82.833 -39.5 -133.5 -39.5c-89.333 0 -160.833 29.333 -214.5 88s-80.5 137 -80.5 235c0 106 34.167 188.333 102.5 247s169.833 88 304.5 88h107v88
c0 52.667 -9.5 93.167 -28.5 121.5s-47.5 42.5 -85.5 42.5c-32 0 -56 -11.333 -72 -34s-24 -55.667 -24 -99l-275 1l-3 6c-3.33301 94 31.5 174 104.5 240s169.167 99 288.5 99c112.667 0 204.167 -32.833 274.5 -98.5s105.5 -159.167 105.5 -280.5v-438
c0 -53.333 3.66699 -103 11 -149s18.666 -91.333 33.999 -136h-282zM434 193c28.667 0 55.165 7.66699 79.498 23s43.5 35 57.5 59v199h-107c-43.333 0 -74.666 -15 -93.999 -45s-29 -68 -29 -114c0 -36 8.33301 -65.333 25 -88s39.334 -34 68.001 -34z" />
    <glyph glyph-name="b" unicode="b" 
d="M940 458c0 -146 -30.1631 -262.333 -90.4961 -349s-148.833 -130 -265.5 -130c-50.667 0 -94.834 11.667 -132.501 35s-69.834 57.333 -96.501 102l-17 -116h-246v1560h284v-570c25.333 36 55.166 63.667 89.499 83s73.166 29 116.499 29
c117.333 0 206.333 -45.167 267 -135.5s91 -210.833 91 -361.5v-147zM657.004 605c0 84.667 -10.4971 150.667 -31.4971 198s-59.833 71 -116.5 71c-30.667 0 -57 -7.66699 -79 -23s-40 -37 -54 -65v-505c13.333 -24.667 31.166 -43.167 53.499 -55.5
s49.166 -18.5 80.499 -18.5c57.333 0 96.166 21.167 116.499 63.5s30.5 104.833 30.5 187.5v147z" />
    <glyph glyph-name="c" unicode="c" horiz-adv-x="910" 
d="M487 206c38.667 0 67.834 14.333 87.501 43s29.5 70 29.5 124h258l3 -6c2 -113.333 -32.833 -206.333 -104.5 -279s-162.834 -109 -273.501 -109c-140 0 -247.5 45.667 -322.5 137s-112.5 209.333 -112.5 354v139c0 144 37.333 262.167 112 354.5
s181.667 138.5 321 138.5c117.333 0 210.5 -37.667 279.5 -113s102.5 -177 100.5 -305l-2 -5h-259c0 58.667 -9.83301 105.834 -29.5 141.501s-49.5 53.5 -89.5 53.5c-56.667 0 -95.667 -24 -117 -72s-32 -112.333 -32 -193v-139c0 -82.667 10.667 -147.334 32 -194.001
s61 -70 119 -70z" />
    <glyph glyph-name="d" unicode="d" 
d="M54 535c0 170 31.333 307 94 411s151 156 265 156c42 0 80 -10 114 -30s64.333 -48.667 91 -86v574h284v-1560h-247l-19 118c-28 -45.333 -60.5 -79.833 -97.5 -103.5s-79.167 -35.5 -126.5 -35.5c-114 0 -202.167 48.833 -264.5 146.5s-93.5 227.167 -93.5 388.5v21z
M338 514c0 -96.667 11.168 -172 33.501 -226s60.166 -81 113.499 -81c29.333 0 55 6.83301 77 20.5s40.667 33.5 56 59.5v492c-15.333 30 -34 53.333 -56 70s-47 25 -75 25c-52.667 0 -90.667 -31 -114 -93s-35 -144 -35 -246v-21z" />
    <glyph glyph-name="e" unicode="e" horiz-adv-x="938" 
d="M513 -21c-136 0 -243.998 44.667 -323.998 134s-120 202 -120 338v152c0 146 37.167 265.667 111.5 359s177.166 140 308.499 140c126.667 0 224.667 -42.333 294 -127s104 -200 104 -346v-174h-535v-4c0 -71.333 16.167 -130 48.5 -176s81.166 -69 146.499 -69
c53.333 0 96.666 6 129.999 18s73 32 119 60l72 -181c-37.333 -36 -87.166 -65.667 -149.499 -89s-130.833 -35 -205.5 -35zM489.002 874c-45.333 0 -78.667 -20.667 -100 -62s-33.333 -97 -36 -167h255v40c0 60 -9.33301 106.5 -28 139.5s-49 49.5 -91 49.5z" />
    <glyph glyph-name="f" unicode="f" horiz-adv-x="647" 
d="M156 0l-0.000976562 876.001h-133v206h133v120c0 121.333 31.333 214.833 94 280.5s150.667 98.5 264 98.5c22 0 44 -1.83301 66 -5.5s47.333 -8.83398 76 -15.501l-24 -218c-13.333 2.66699 -26.166 5 -38.499 7s-26.833 3 -43.5 3c-36 0 -63.333 -13 -82 -39
s-28 -63 -28 -111v-120h174v-206h-174v-876h-284z" />
    <glyph glyph-name="g" unicode="g" horiz-adv-x="994" 
d="M54 591c0 152.667 31.5 276 94.5 370s151.833 141 266.5 141c48 0 90.333 -12.167 127 -36.5s68.667 -59.166 96 -104.499l18 121h247v-1061c0 -142 -41.167 -253.833 -123.5 -335.5s-195.166 -122.5 -338.499 -122.5c-46.667 0 -96.334 7.5 -149.001 22.5
s-101.667 35.167 -147 60.5l50 219c38 -21.333 76.667 -37.333 116 -48s82 -16 128 -16c60 0 105 18.833 135 56.5s45 92.5 45 164.5v62c-26.667 -34.667 -57 -60.834 -91 -78.501s-72.333 -26.5 -115 -26.5c-114 0 -202.333 43.833 -265 131.5s-94 203.5 -94 347.5v133z
M338 458c0 -78.667 11.334 -140.168 34.001 -184.501s60.667 -66.5 114 -66.5c29.333 0 55.166 6 77.499 18s40.833 29.667 55.5 53v512c-14.667 26.667 -32.834 47.334 -54.501 62.001s-47.167 22 -76.5 22c-53.333 0 -91.666 -25.833 -114.999 -77.5
s-35 -120.167 -35 -205.5v-133z" />
    <glyph glyph-name="h" unicode="h" 
d="M368 953c28 47.333 61.6699 84 101.003 110s82.666 39 129.999 39c96 0 171.333 -38.167 226 -114.5s82 -194.166 82 -353.499v-634h-285v636c0 89.333 -10.5 151.333 -31.5 186s-53.833 52 -98.5 52c-26.667 0 -50.334 -5.83301 -71.001 -17.5
s-38.334 -27.834 -53.001 -48.501v-808h-284v1560h284v-607z" />
    <glyph glyph-name="i" unicode="i" horiz-adv-x="495" 
d="M389 0h-284v1082h284v-1082zM389 1343h-284v217h284v-217z" />
    <glyph glyph-name="j" unicode="j" horiz-adv-x="487" 
d="M395 1082l-0.00195312 -1115c0 -129.333 -30 -229 -90 -299s-143.333 -105 -250 -105c-23.333 0 -44.666 1.5 -63.999 4.5s-40.666 7.5 -63.999 13.5l12 223c14.667 -4 28 -7 40 -9s25.333 -3 40 -3c29.333 0 51.833 14.667 67.5 44s23.5 73 23.5 131v1115h285z
M388.998 1343h-284v217h284v-217z" />
    <glyph glyph-name="k" unicode="k" horiz-adv-x="963" 
d="M428 450h-52v-450h-284v1560h284v-886h47l183 408h327l-282 -487l329 -595h-325z" />
    <glyph glyph-name="l" unicode="l" horiz-adv-x="495" 
d="M389 0h-284v1560h284v-1560z" />
    <glyph glyph-name="m" unicode="m" horiz-adv-x="1507" 
d="M358 1082l10.998 -138.001c28.667 50.667 64.667 89.667 108 117s93 41 149 41c54.667 0 102.334 -14.5 143.001 -43.5s71.667 -73.167 93 -132.5c28 56 64 99.333 108 130s95.333 46 154 46c89.333 0 159.833 -36.833 211.5 -110.5s77.5 -186.167 77.5 -337.5v-654h-285
v654c0 83.333 -9 140.833 -27 172.5s-46 47.5 -84 47.5c-27.333 0 -51.666 -8 -72.999 -24s-39 -38 -53 -66l2 -37.5c0.666992 -12.333 1 -25.166 1 -38.499v-708h-283v654c0 82.667 -9.16699 140 -27.5 172s-46.833 48 -85.5 48c-26 0 -49.167 -6.5 -69.5 -19.5
s-37.833 -31.167 -52.5 -54.5v-800h-283v1082h265z" />
    <glyph glyph-name="n" unicode="n" 
d="M352 1082l11.998 -149.001c30 53.333 66.833 94.833 110.5 124.5s91.834 44.5 144.501 44.5c90 0 160.833 -34.667 212.5 -104s77.5 -178.333 77.5 -327v-671h-285v671c0 74.667 -10.5 127.167 -31.5 157.5s-53.5 45.5 -97.5 45.5
c-25.333 0 -48.666 -6.66699 -69.999 -20s-39.333 -31.666 -54 -54.999v-799h-284v1082h265z" />
    <glyph glyph-name="o" unicode="o" 
d="M58 607c0 145.333 38.5 264.166 115.5 356.499s184.833 138.5 323.5 138.5s246.667 -46.167 324 -138.5s116 -211.166 116 -356.499v-134c0 -146.667 -38.667 -265.667 -116 -357s-185 -137 -323 -137c-139.333 0 -247.5 45.667 -324.5 137s-115.5 210.333 -115.5 357
v134zM341 473c0 -83.333 11.6689 -148.666 35.002 -195.999s64 -71 122 -71c56 0 95.833 23.833 119.5 71.5s35.5 112.834 35.5 195.501v134c0 81.333 -11.833 146.166 -35.5 194.499s-63.834 72.5 -120.501 72.5s-96.834 -24.333 -120.501 -73
s-35.5 -113.334 -35.5 -194.001v-134z" />
    <glyph glyph-name="p" unicode="p" 
d="M940 458c0 -144 -31.334 -259.834 -94.001 -347.501s-150.334 -131.5 -263.001 -131.5c-44 0 -83.167 8.83301 -117.5 26.5s-64.166 43.834 -89.499 78.501v-500h-284v1498h263l10 -107c26 40.667 56.833 72 92.5 94s76.834 33 123.501 33
c114 0 202.333 -46.833 265 -140.5s94 -217.167 94 -370.5v-133zM655.999 590.999c0 85.333 -12 153.832 -36 205.499s-61.667 77.5 -113 77.5c-30 0 -56 -7.5 -78 -22.5s-39.667 -36.167 -53 -63.5v-510c13.333 -24 30.833 -42 52.5 -54s48.167 -18 79.5 -18
c52.667 0 90.5 22.333 113.5 67s34.5 106.334 34.5 185.001v133z" />
    <glyph glyph-name="q" unicode="q" 
d="M54 591c0 152.667 31.3359 276 94.0029 370s151 141 265 141c47.333 0 89.166 -11.833 125.499 -35.5s68.166 -57.5 95.499 -101.5l20 117h247v-1498h-285v499c-26 -34 -55.833 -59.833 -89.5 -77.5s-71.834 -26.5 -114.501 -26.5c-113.333 0 -201.333 43.833 -264 131.5
s-94 203.5 -94 347.5v133zM338.003 458c0 -79.333 11.167 -141.167 33.5 -185.5s60.166 -66.5 113.499 -66.5c29.333 0 55 6 77 18s40 29.667 54 53v515c-14 26 -31.667 46.167 -53 60.5s-46.666 21.5 -75.999 21.5c-52.667 0 -90.667 -25.833 -114 -77.5
s-35 -120.167 -35 -205.5v-133z" />
    <glyph glyph-name="r" unicode="r" horiz-adv-x="655" 
d="M603 823l-106.999 3c-30 0 -54.833 -7.33301 -74.5 -22s-34.834 -35.334 -45.501 -62.001v-742h-284v1082h265l11 -145l5 -2c17.333 52 41.5 92.833 72.5 122.5s67.167 44.5 108.5 44.5c12.667 0 26.167 -1.16699 40.5 -3.5s26.833 -5.16602 37.5 -8.49902z" />
    <glyph glyph-name="s" unicode="s" horiz-adv-x="888" 
d="M563 283c0 30.667 -11.9961 57.165 -35.9961 79.498s-70 49.833 -138 82.5c-108.667 40.667 -190.167 86.667 -244.5 138s-81.5 118 -81.5 200c0 88 34.833 163.167 104.5 225.5s161.834 93.5 276.501 93.5c120 0 215.667 -32 287 -96s105.666 -145.667 102.999 -245
l-3 -6h-274c0 45.333 -9.33301 81.333 -28 108s-47.334 40 -86.001 40c-30.667 0 -56.667 -10.333 -78 -31s-32 -45.667 -32 -75c0 -32 10.667 -57.833 32 -77.5s67.666 -46.5 138.999 -80.5c113.333 -38.667 197.333 -84.5 252 -137.5s82 -122.5 82 -208.5
c0 -92 -36.667 -167.333 -110 -226s-169.666 -88 -288.999 -88c-124.667 0 -223.334 36.333 -296.001 109s-107.334 154.667 -104.001 246l2 6h260c1.33301 -57.333 14.666 -98.666 39.999 -123.999s60.333 -38 105 -38c38 0 67 9.33301 87 28s30 44.334 30 77.001z" />
    <glyph glyph-name="t" unicode="t" horiz-adv-x="648" 
d="M430 1351l-0.000976562 -269h150v-206h-150v-543c0 -44 6.33301 -75.5 19 -94.5s30 -28.5 52 -28.5c17.333 0 32 0.833008 44 2.5s25.333 4.5 40 8.5l22 -216c-30 -9.33301 -58.667 -16 -86 -20s-58.333 -6 -93 -6c-91.333 0 -161.166 28.167 -209.499 84.5
s-72.5 145.833 -72.5 268.5v544h-128v206h128v269h284z" />
    <glyph glyph-name="u" unicode="u" 
d="M641 125c-29.333 -47.333 -64.834 -83.5 -106.501 -108.5s-88.834 -37.5 -141.501 -37.5c-96.667 0 -172.167 36.5 -226.5 109.5s-81.5 186.167 -81.5 339.5v654h284v-656c0 -76.667 9.33301 -132.334 28 -167.001s46.334 -52 83.001 -52
c31.333 0 58.833 5.83301 82.5 17.5s43.834 28.834 60.501 51.501v806h285v-1082h-250z" />
    <glyph glyph-name="v" unicode="v" horiz-adv-x="909" 
d="M439 408l13 -82h6l14 82l125 674h297l-300 -1082h-278l-301 1082h297z" />
    <glyph glyph-name="w" unicode="w" horiz-adv-x="1280" 
d="M882 468l6 1l101 613h263l-222 -1082h-237l-151 583h-6l-151 -583h-237l-224 1082h265l101 -616h6l151 616h184z" />
    <glyph glyph-name="x" unicode="x" horiz-adv-x="909" 
d="M451 741h6l114 341h320l-268 -535l276 -547h-319l-119 351h-6l-119 -351h-320l275 547l-268 535h319z" />
    <glyph glyph-name="y" unicode="y" horiz-adv-x="909" 
d="M440 444l2 -11l158 649h304l-365 -1245c-27.333 -78 -63.833 -143.167 -109.5 -195.5s-115.5 -78.5 -209.5 -78.5c-23.333 0 -44 2 -62 6s-42 10 -72 18l33 212c11.333 -2 19.5 -3.5 24.5 -4.5s10.5 -1.5 16.5 -1.5c41.333 0 72.5 10.833 93.5 32.5
s36.167 50.167 45.5 85.5l25 80l-319 1091h305z" />
    <glyph glyph-name="z" unicode="z" horiz-adv-x="883" 
d="M391 227h423v-227h-749v169l412 685h-400v228h730v-165z" />
    <glyph glyph-name="braceleft" unicode="{" horiz-adv-x="586" 
d="M490 -366c-111.333 36.667 -190.668 95.001 -238.001 175.001s-71 176.667 -71 290v206c0 65.333 -11.333 116.5 -34 153.5s-57 55.5 -103 55.5v202c46 0 80.333 18.333 103 55s34 88 34 154v207c0 114 23.667 210.833 71 290.5s126.666 137.834 237.999 174.501l53 -157
c-41.333 -20.667 -70 -57.167 -86 -109.5s-24 -118.5 -24 -198.5v-207c0 -69.333 -13.667 -130.833 -41 -184.5s-68.666 -95.5 -123.999 -125.5c54.667 -30.667 95.834 -72.834 123.501 -126.501s41.5 -114.834 41.5 -183.501v-206c0 -80 7.83301 -146 23.5 -198
s44.5 -88.333 86.5 -109z" />
    <glyph glyph-name="bar" unicode="|" horiz-adv-x="467" 
d="M316 -270h-163v1726h163v-1726z" />
    <glyph glyph-name="braceright" unicode="}" horiz-adv-x="586" 
d="M42 -208c41.333 20.667 70.333 57.001 87 109.001s25 118 25 198v206c0 69.333 13.667 130.833 41 184.5s69.333 95.5 126 125.5c-56.667 29.333 -98.667 70.833 -126 124.5s-41 115.5 -41 185.5v207c0 80 -8.33301 146.167 -25 198.5s-45.667 88.833 -87 109.5l53 157
c110.667 -36.667 189.834 -94.834 237.501 -174.501s71.5 -176.5 71.5 -290.5v-207c0 -66.667 11.167 -118.167 33.5 -154.5s57.5 -54.5 105.5 -54.5v-202c-48 0 -83.167 -18.333 -105.5 -55s-33.5 -88 -33.5 -154v-206c0 -113.333 -23.833 -210 -71.5 -290
s-126.834 -138.333 -237.501 -175z" />
    <glyph glyph-name="asciitilde" unicode="~" horiz-adv-x="1121" 
d="M1030 761c0 -109.333 -25.499 -200.501 -76.499 -273.501s-115.5 -109.5 -193.5 -109.5c-47.333 0 -91.166 10.667 -131.499 32s-81.833 55.333 -124.5 102c-26.667 30 -49.334 51.5 -68.001 64.5s-39.667 19.5 -63 19.5c-25.333 0 -46.833 -17.167 -64.5 -51.5
s-26.5 -76.5 -26.5 -126.5l-193 26c0 110 24.833 201 74.5 273s114.167 108 193.5 108c46 0 90.167 -11.167 132.5 -33.5s84.166 -55.166 125.499 -98.499c24.667 -30.667 46.667 -52.5 66 -65.5s40.333 -19.5 63 -19.5c24.667 0 46.167 17.5 64.5 52.5
s27.5 77.833 27.5 128.5z" />
    <glyph glyph-name="nonbreakingspace" unicode="&#xa0;" horiz-adv-x="449" 
 />
    <glyph glyph-name="exclamdown" unicode="&#xa1;" horiz-adv-x="534" 
d="M410 -374h-285v949h285v-949zM408 821h-280v261h280v-261z" />
    <glyph glyph-name="cent" unicode="&#xa2;" horiz-adv-x="1031" 
d="M524 206c38.667 0 67.832 14.332 87.499 42.999s29.5 70 29.5 124h266c0 -99.333 -27 -183.5 -81 -252.5s-125 -112.833 -213 -131.5v-234h-184v233c-110.667 20 -195 73.667 -253 161s-87 194.333 -87 321v139c0 126 29.167 233 87.5 321s142.5 142.333 252.5 163v225
h184v-225c90.667 -19.333 162.334 -65.166 215.001 -137.499s79 -164.5 79 -276.5h-266c0 58.667 -9.83301 105.834 -29.5 141.501s-49.5 53.5 -89.5 53.5c-56.667 0 -95.667 -24 -117 -72s-32 -112.333 -32 -193v-139c0 -82.667 10.667 -147.334 32 -194.001
s61 -70 119 -70z" />
    <glyph glyph-name="sterling" unicode="&#xa3;" horiz-adv-x="1055" 
d="M510 591l3.00098 -81.999c0 -52 -9.83301 -102.333 -29.5 -151s-47.5 -92.334 -83.5 -131.001h600v-227h-855v227h8c24 8 42 39.5 54 94.5s18 112.167 18 171.5l-3 98h-130v225h122l-7 209c0 140.667 35 251.167 105 331.5s164 120.5 282 120.5
c125.333 0 223 -37.667 293 -113s104 -174.333 102 -297l-3 -6h-276c0 64 -11.333 111.333 -34 142s-50.334 46 -83.001 46c-32 0 -56.833 -19.5 -74.5 -58.5s-26.5 -94.167 -26.5 -165.5l8 -209h280v-225h-270z" />
    <glyph glyph-name="currency" unicode="&#xa4;" horiz-adv-x="1257" 
d="M947 104c-44.667 -40 -93.8311 -70.6699 -147.498 -92.0029s-109.834 -32 -168.501 -32s-114.667 10.5 -168 31.5s-102.333 51.167 -147 90.5l-112 -128l-130 136l122 140c-30 50.667 -52.833 106.334 -68.5 167.001s-23.5 124.334 -23.5 191.001
c0 68.667 8.5 134.167 25.5 196.5s41.5 119.833 73.5 172.5l-129 150l130 137l123 -142c43.333 36 90.833 63.667 142.5 83s105.5 29 161.5 29s109.833 -10 161.5 -30s99.5 -48 143.5 -84l125 145l132 -138l-133 -153c30.667 -52 54.5 -109.167 71.5 -171.5
s25.5 -127.166 25.5 -194.499c0 -66 -7.83301 -129 -23.5 -189s-37.834 -115.333 -66.501 -166l126 -143l-132 -137zM276.003 607.997c0 -126 34.333 -232.167 103 -318.5s152.667 -129.5 252 -129.5c98 0 181.333 43.167 250 129.5s103 192.5 103 318.5
c0 124.667 -34.333 230.167 -103 316.5s-152 129.5 -250 129.5c-99.333 0 -183.333 -43.167 -252 -129.5s-103 -191.833 -103 -316.5z" />
    <glyph glyph-name="yen" unicode="&#xa5;" horiz-adv-x="1082" 
d="M539 895h6l206 561h310l-318 -719h189v-200h-253v-111h253v-198h-253v-228h-283v228h-271v198h271v111h-271v200h215l-318 719h310z" />
    <glyph glyph-name="brokenbar" unicode="&#xa6;" horiz-adv-x="467" 
d="M108 -270v791h251v-791h-251zM359 698h-251v758h251v-758z" />
    <glyph glyph-name="section" unicode="&#xa7;" horiz-adv-x="1115" 
d="M1019 482c0 -60 -12.3311 -112.505 -36.998 -157.505s-59.667 -81.833 -105 -110.5c41.333 -34 72.5 -74.667 93.5 -122s31.5 -104.333 31.5 -171c0 -118 -40.5 -210.333 -121.5 -277s-189.833 -100 -326.5 -100c-134 0 -245.667 33 -335 99s-132.333 171.667 -129 317
l2 6h276c0 -70 17.5 -119.833 52.5 -149.5s79.5 -44.5 133.5 -44.5c52 0 92.333 13.5 121 40.5s43 62.833 43 107.5c0 44 -15.833 79.333 -47.5 106s-91.834 56.334 -180.501 89.001c-138.667 42.667 -241 94.834 -307 156.501s-99 148.834 -99 261.501
c0 58.667 12.167 110.834 36.5 156.501s59.833 83.5 106.5 113.5c-42 34 -73.5 74.667 -94.5 122s-31.5 104.333 -31.5 171c0 114.667 41 206.834 123 276.501s191.667 104.5 329 104.5c140 0 249.667 -37.167 329 -111.5s117.666 -177.833 114.999 -310.5l-2 -6h-276
c0 58 -14.5 105.833 -43.5 143.5s-69.833 56.5 -122.5 56.5c-56 0 -97.667 -14.167 -125 -42.5s-41 -64.5 -41 -108.5c0 -49.333 14.333 -86.833 43 -112.5s89 -54.167 181 -85.5c140 -42 243 -93.833 309 -155.5s99 -149.167 99 -262.5zM515.002 665.995
c-16.667 4.66699 -33.166 9.99805 -49.499 15.998l-49.5 19c-16.667 -15.333 -28.834 -34.666 -36.501 -57.999s-11.5 -49.666 -11.5 -78.999c0 -53.333 13.833 -93.666 41.5 -120.999s86.834 -58.666 177.501 -93.999l67 -22.5l30 -10.5
c18 15.333 31.833 34.666 41.5 57.999s14.5 49.666 14.5 78.999c0 47.333 -15.833 86 -47.5 116s-90.834 62.333 -177.501 97z" />
    <glyph glyph-name="dieresis" unicode="&#xa8;" horiz-adv-x="1000" 
d="M842 1258h-250v198h250v-198zM394 1258h-251v198h251v-198z" />
    <glyph glyph-name="copyright" unicode="&#xa9;" horiz-adv-x="1433" 
d="M987 596l2.99902 -6.00098c2 -100.667 -23.167 -177.167 -75.5 -229.5s-125.166 -78.5 -218.499 -78.5c-95.333 0 -170.833 35.333 -226.5 106s-83.5 164.334 -83.5 281.001v119c0 115.333 27.833 208.666 83.5 279.999s131.167 107 226.5 107
c93.333 0 166.333 -26.5 219 -79.5s78 -129.167 76 -228.5l-3 -6h-136c0 64 -13 110.833 -39 140.5s-65 44.834 -117 45.501c-54 -0.666992 -95.333 -24.667 -124 -72s-43 -109.333 -43 -186v-120c0 -78.667 14.333 -141.5 43 -188.5s70 -70.5 124 -70.5
c52 0 90.833 14.5 116.5 43.5s38.5 76.5 38.5 142.5h136zM192.999 728.999c0 -177.333 50.167 -326.833 150.5 -448.5s222.166 -182.167 365.499 -181.5c142.667 -0.666992 264.167 59.833 364.5 181.5s150.5 271.167 150.5 448.5c0 176 -50.167 324.5 -150.5 445.5
s-221.833 181.5 -364.5 181.5c-143.333 0 -265.166 -60.5 -365.499 -181.5s-150.5 -269.5 -150.5 -445.5zM81.999 728.999c0 210 60.832 387 182.499 531s269.834 216 444.501 216c174 0 322.167 -72 444.5 -216s183.5 -321 183.5 -531
c0 -210.667 -61.333 -388.334 -184 -533.001s-270.667 -217 -444 -217c-174 0 -322 72.333 -444 217s-183 322.334 -183 533.001z" />
    <glyph glyph-name="ordfeminine" unicode="&#xaa;" horiz-adv-x="785" 
d="M510 706c-4.66699 15.333 -8.49707 31.002 -11.4971 47.002s-5.16699 32 -6.5 48c-18 -32 -42.333 -58.167 -73 -78.5s-67.334 -30.5 -110.001 -30.5c-66.667 0 -118.5 20.5 -155.5 61.5s-55.5 96.5 -55.5 166.5c0 72.667 24.167 129 72.5 169s119.166 60 212.499 60h106
v53c0 43.333 -7.5 76.5 -22.5 99.5s-37.167 34.5 -66.5 34.5c-34 0 -60.333 -9.16699 -79 -27.5s-28 -44.5 -28 -78.5l-150 13l-2 6c-3.33301 65.333 19.167 119.666 67.5 162.999s112.166 65 191.499 65c76 0 136.667 -23.833 182 -71.5s68 -115.834 68 -204.501v-314
c0 -34 1.66699 -65.667 5 -95s9 -58 17 -86h-162zM349.003 829.002c26 0 53.332 10 81.999 30s48 42 58 66v112h-105c-39.333 0 -70.166 -11.167 -92.499 -33.5s-33.5 -48.833 -33.5 -79.5s7.5 -54.167 22.5 -70.5s37.833 -24.5 68.5 -24.5z" />
    <glyph glyph-name="guillemotleft" unicode="&#xab;" horiz-adv-x="904" 
d="M269 516l195 -397h-176l-233 388v19l233 389h176zM621 516l195 -397h-176l-233 388v19l233 389h176z" />
    <glyph glyph-name="logicalnot" unicode="&#xac;" horiz-adv-x="972" 
d="M825 375h-183v263h-527v163h710v-426z" />
    <glyph glyph-name="uni00AD" unicode="&#xad;" horiz-adv-x="748" 
d="M617 511h-497v228h497v-228z" />
    <glyph glyph-name="registered" unicode="&#xae;" horiz-adv-x="1433" 
d="M82 729c0 210 61 387 183 531s270.333 216 445 216c173.333 0 321.166 -72 443.499 -216s183.5 -321 183.5 -531c0 -210.667 -61.167 -388.334 -183.5 -533.001s-270.166 -217 -443.499 -217c-174.667 0 -323 72.333 -445 217s-183 322.334 -183 533.001zM194 729
c0 -177.333 50.167 -326.833 150.5 -448.5s222.166 -182.167 365.499 -181.5c142.667 -0.666992 264 59.833 364 181.5s150 271.167 150 448.5c0 176 -50 324.5 -150 445.5s-221.333 181.5 -364 181.5c-143.333 0 -265.166 -60.5 -365.499 -181.5
s-150.5 -269.5 -150.5 -445.5zM585 655l-0.000976562 -339.002h-140v850h251c89.333 0 160 -22.667 212 -68s78 -109.666 78 -192.999c0 -38.667 -8.66699 -72.5 -26 -101.5s-42.666 -53.833 -75.999 -74.5c35.333 -20 61 -48.167 77 -84.5s24 -79.5 24 -129.5v-56
c0 -28 1 -52.667 3 -74s5.66699 -39 11 -53v-16h-143c-5.33301 14 -8.5 34.5 -9.5 61.5s-1.5 54.5 -1.5 82.5v54c0 48.667 -9.83301 84.334 -29.5 107.001s-51.167 34 -94.5 34h-136zM584.999 782.998h112c42.667 0 78.5 10.5 107.5 31.5s43.5 50.833 43.5 89.5
c0 49.333 -11.333 84 -34 104s-62 30 -118 30h-111v-255z" />
    <glyph glyph-name="macron" unicode="&#xaf;" horiz-adv-x="949" 
d="M800 1297h-654v160h654v-160z" />
    <glyph glyph-name="macron" unicode="&#x2c9;" horiz-adv-x="949" 
d="M800 1297h-654v160h654v-160z" />
    <glyph glyph-name="degree" unicode="&#xb0;" horiz-adv-x="725" 
d="M117 1203c0 74.667 24.168 139 72.501 193s106.166 81 173.499 81c66 0 122.833 -27 170.5 -81s71.5 -118.333 71.5 -193c0 -75.333 -23.667 -139.333 -71 -192s-104.333 -79 -171 -79c-68 0 -126 26.333 -174 79s-72 116.667 -72 192zM255.001 1203
c0 -36.667 10.5 -67.3301 31.5 -91.9971s46.5 -37 76.5 -37c28.667 0 53.167 12.167 73.5 36.5s30.5 55.166 30.5 92.499s-10.167 68.666 -30.5 93.999s-44.833 38 -73.5 38c-30 0 -55.5 -12.833 -76.5 -38.5s-31.5 -56.834 -31.5 -93.501z" />
    <glyph glyph-name="plusminus" unicode="&#xb1;" horiz-adv-x="992" 
d="M618 956h279v-235h-279v-382h-250v382h-281v235h281v361h250v-361zM803 7h-705v230h705v-230z" />
    <glyph glyph-name="twosuperior" unicode="&#xb2;" horiz-adv-x="748" 
d="M645 667l-539.001 0.00195312v152l262 254c31.333 32.667 51.333 60.167 60 82.5s13 48.166 13 77.499c0 27.333 -5.5 49.666 -16.5 66.999s-28.833 26 -53.5 26c-26.667 0 -46.5 -10.167 -59.5 -30.5s-19.5 -47.166 -19.5 -80.499h-190l-2 6
c-3.33301 71.333 20.5 132.166 71.5 182.499s119.5 75.5 205.5 75.5c84 0 148.833 -21.5 194.5 -64.5s68.5 -103.833 68.5 -182.5c0 -55.333 -16.167 -105 -48.5 -149s-84.166 -98.333 -155.499 -163l-79 -96l2 -5h286v-152z" />
    <glyph glyph-name="threesuperior" unicode="&#xb3;" horiz-adv-x="740" 
d="M354 1136c32 0 55.501 8.33203 70.501 24.999s22.5 41 22.5 73c0 26 -6.83301 47.667 -20.5 65s-33.834 26 -60.501 26c-26 0 -45.5 -7.5 -58.5 -22.5s-19.5 -33.5 -19.5 -55.5h-189l-2 6c-4 68 19.5 122.5 70.5 163.5s115.5 61.5 193.5 61.5
c87.333 0 156.666 -19.833 207.999 -59.5s77 -96.167 77 -169.5c0 -36.667 -10.167 -70.167 -30.5 -100.5s-48.166 -54.166 -83.499 -71.499c40 -16 71 -39.833 93 -71.5s33 -70.167 33 -115.5c0 -74.667 -25.667 -132.5 -77 -173.5s-121 -61.5 -209 -61.5
c-86.667 0 -157.167 21 -211.5 63s-79.5 101 -75.5 177l2 6h191c0 -29.333 7.66699 -52.333 23 -69s38.333 -25 69 -25c26 0 47.5 8.16699 64.5 24.5s25.5 39.833 25.5 70.5c0 34 -9.16699 60.333 -27.5 79s-44.5 28 -78.5 28h-91v127h91z" />
    <glyph glyph-name="acute" unicode="&#xb4;" horiz-adv-x="683" 
d="M276 1478h299l3 -6l-249 -260h-229z" />
    <glyph glyph-name="mu" unicode="&#xb5;" horiz-adv-x="1113" 
d="M405 1082v-637c0.666992 -91.333 11.834 -153.5 33.501 -186.5s55.167 -49.5 100.5 -49.5c34.667 0 64.167 8 88.5 24s44.166 39.333 59.499 70v779h284v-1082h-267l-4 51c-23.333 -24 -49.333 -42 -78 -54s-59.667 -18 -93 -18c-24 0 -46.333 3 -67 9
s-39.667 14.667 -57 26v-430h-285v1498h285z" />
    <glyph glyph-name="paragraph" unicode="&#xb6;" horiz-adv-x="951" 
d="M537 0v520.001h-65c-131.333 0 -233.5 43.167 -306.5 129.5s-109.5 199.166 -109.5 338.499c0 138 36.5 250.5 109.5 337.5s175.167 130.5 306.5 130.5h351v-1456h-286z" />
    <glyph glyph-name="periodcentered" unicode="&#xb7;" horiz-adv-x="566" 
d="M418 560h-278v262h278v-262z" />
    <glyph glyph-name="cedilla" unicode="&#xb8;" horiz-adv-x="493" 
d="M323 7l-9 -58.999c34 -7.33301 62.833 -24.833 86.5 -52.5s35.5 -67.834 35.5 -120.501c0 -72 -26.833 -129.5 -80.5 -172.5s-129.5 -64.5 -227.5 -64.5l-6 163c22.667 0 40.5 6.83301 53.5 20.5s19.5 34.834 19.5 63.501c0 28 -8.5 47.667 -25.5 59
s-45.833 18.666 -86.5 21.999l27 141h213z" />
    <glyph glyph-name="onesuperior" unicode="&#xb9;" horiz-adv-x="513" 
d="M405 665h-200v634l-103 -1v156l303 23v-812z" />
    <glyph glyph-name="ordmasculine" unicode="&#xba;" horiz-adv-x="811" 
d="M104 1142c0 98.667 26.999 179.167 80.999 241.5s126.333 93.5 217 93.5s162.834 -31.167 216.501 -93.5s80.5 -142.833 80.5 -241.5v-115c0 -100 -26.833 -180.833 -80.5 -242.5s-125.5 -92.5 -215.5 -92.5c-91.333 0 -164 30.833 -218 92.5s-81 142.5 -81 242.5v115z
M264.999 1027c0 -59.333 11.6689 -106.833 35.002 -142.5s57.666 -53.5 102.999 -53.5c43.333 0 76.666 17.833 99.999 53.5s35 83.167 35 142.5v115c0 56.667 -11.667 103.167 -35 139.5s-57 54.5 -101 54.5c-44.667 0 -78.667 -18.167 -102 -54.5s-35 -82.833 -35 -139.5
v-115z" />
    <glyph glyph-name="guillemotright" unicode="&#xbb;" horiz-adv-x="905" 
d="M236 949l233 -389v-19l-233 -389h-176l195 398l-195 399h176zM598 949l233 -389v-19l-233 -389h-176l195 398l-195 399h176z" />
    <glyph glyph-name="onequarter" unicode="&#xbc;" horiz-adv-x="1260" 
d="M402 664h-200v634l-103 -1v156l303 23v-812zM333 118l-134 74l601 1138l134 -74zM1149 294h75v-154h-75v-140h-200v140h-343l-13 124l356 534v3h200v-507zM794 294h155v253l-6 2l-7 -12z" />
    <glyph glyph-name="onehalf" unicode="&#xbd;" horiz-adv-x="1317" 
d="M326 118l-134 74l601 1138l134 -74zM385 664h-200v634l-103 -1v156l303 23v-812zM1238 0l-539.001 0.00195312v152l262 254c31.333 32.667 51.333 60.167 60 82.5s13 48.166 13 77.499c0 27.333 -5.5 49.666 -16.5 66.999s-28.833 26 -53.5 26
c-26.667 0 -46.5 -10.167 -59.5 -30.5s-19.5 -47.166 -19.5 -80.499h-190l-2 6c-3.33301 71.333 20.5 132.166 71.5 182.499s119.5 75.5 205.5 75.5c84 0 148.833 -21.5 194.5 -64.5s68.5 -103.833 68.5 -182.5c0 -55.333 -16.167 -105 -48.5 -149
s-84.166 -98.333 -155.499 -163l-79 -96l2 -5h286v-152z" />
    <glyph glyph-name="threequarters" unicode="&#xbe;" horiz-adv-x="1452" 
d="M518 118l-134 74l601 1138l134 -74zM1303 294h75v-154h-75v-140h-200v140h-343l-13 124l356 534v3h200v-507zM948 294h155v253l-6 2l-7 -12zM340 1137c32 0 55.501 8.33203 70.501 24.999s22.5 41 22.5 73c0 26 -6.83301 47.667 -20.5 65s-33.834 26 -60.501 26
c-26 0 -45.5 -7.5 -58.5 -22.5s-19.5 -33.5 -19.5 -55.5h-189l-2 6c-4 68 19.5 122.5 70.5 163.5s115.5 61.5 193.5 61.5c87.333 0 156.666 -19.833 207.999 -59.5s77 -96.167 77 -169.5c0 -36.667 -10.167 -70.167 -30.5 -100.5s-48.166 -54.166 -83.499 -71.499
c40 -16 71 -39.833 93 -71.5s33 -70.167 33 -115.5c0 -74.667 -25.667 -132.5 -77 -173.5s-121 -61.5 -209 -61.5c-86.667 0 -157.167 21 -211.5 63s-79.5 101 -75.5 177l2 6h191c0 -29.333 7.66699 -52.333 23 -69s38.333 -25 69 -25c26 0 47.5 8.16699 64.5 24.5
s25.5 39.833 25.5 70.5c0 34 -9.16699 60.333 -27.5 79s-44.5 28 -78.5 28h-91v127h91z" />
    <glyph glyph-name="questiondown" unicode="&#xbf;" horiz-adv-x="909" 
d="M656 668c-1.33301 -91.333 -15.002 -159.001 -41.002 -203.001s-75 -96.667 -147 -158c-38 -38 -67.833 -79 -89.5 -123s-32.5 -94.333 -32.5 -151c0 -60.667 12.333 -108.834 37 -144.501s60.334 -53.5 107.001 -53.5c34.667 0 65.167 15.333 91.5 46
s40.166 74.334 41.499 131.001h277l2 -6c0.666992 -130.667 -37.166 -230 -113.499 -298s-175.833 -102 -298.5 -102c-133.333 0 -237.833 38.333 -313.5 115s-113.5 180.334 -113.5 311.001c0 83.333 20.833 160.333 62.5 231s94.834 130.334 159.501 179.001
c34 29.333 57 60.166 69 92.499s18 76.833 18 133.5h284zM372.998 1082h283v-248h-283v248z" />
    <glyph glyph-name="Agrave" unicode="&#xc0;" horiz-adv-x="1134" 
d="M765 309h-384l-78 -309h-287l410 1456h296l409 -1456h-287zM439 538h268l-131 515h-6zM719 1559h-230l-246 260l3 6h298z" />
    <glyph glyph-name="Aacute" unicode="&#xc1;" horiz-adv-x="1134" 
d="M765 309h-384l-78 -309h-287l410 1456h296l409 -1456h-287zM439 538h268l-131 515h-6zM605 1826h299l3 -6l-249 -260h-229z" />
    <glyph glyph-name="Acircumflex" unicode="&#xc2;" horiz-adv-x="1134" 
d="M765 309h-384l-78 -309h-287l410 1456h296l409 -1456h-287zM439 538h268l-131 515h-6zM909 1613v-22h-222l-114 134l-112 -134h-217v25l250 237h159z" />
    <glyph glyph-name="Atilde" unicode="&#xc3;" horiz-adv-x="1134" 
d="M765 309h-384l-78 -309h-287l410 1456h296l409 -1456h-287zM439 538h268l-131 515h-6zM901 1854c0 -63.333 -17.001 -117.167 -51.001 -161.5s-77.333 -66.5 -130 -66.5c-39.333 0 -84.833 14.667 -136.5 44s-92.167 44 -121.5 44c-18 0 -33.333 -11 -46 -33
s-19 -48.333 -19 -79l-149 43c0 62 17.167 115.667 51.5 161s77.5 68 129.5 68c30.667 0 73.834 -14.667 129.501 -44s98.5 -44 128.5 -44c18 0 33.5 10.833 46.5 32.5s19.5 48.5 19.5 80.5z" />
    <glyph glyph-name="Adieresis" unicode="&#xc4;" horiz-adv-x="1134" 
d="M765 309h-384l-78 -309h-287l410 1456h296l409 -1456h-287zM439 538h268l-131 515h-6zM923 1606h-250v198h250v-198zM475 1606h-251v198h251v-198z" />
    <glyph glyph-name="Aring" unicode="&#xc5;" horiz-adv-x="1134" 
d="M765 309h-384l-78 -309h-287l410 1456h296l409 -1456h-287zM439 538h268l-131 515h-6zM381 1739c0 53.333 18.667 98.334 56 135.001s83.333 55 138 55c53.333 0 98.333 -18.333 135 -55s55 -81.667 55 -135c0 -54.667 -18.167 -99.334 -54.5 -134.001
s-81.5 -52 -135.5 -52c-54.667 0 -100.667 17.5 -138 52.5s-56 79.5 -56 133.5zM489 1739c0 -28 8 -50.833 24 -68.5s36.667 -26.5 62 -26.5c24.667 0 44.667 8.66699 60 26s23 40.333 23 69s-7.66699 52 -23 70s-35.333 27 -60 27c-25.333 0 -46 -9 -62 -27
s-24 -41.333 -24 -70z" />
    <glyph glyph-name="AE" unicode="&#xc6;" horiz-adv-x="1656" 
d="M1591 0h-774l-12 339h-329l-136 -339h-331l639 1456h891v-231h-481l12 -363h400v-230h-392l15 -402h498v-230zM573 578h224l-17 497l-6 1z" />
    <glyph glyph-name="Ccedilla" unicode="&#xc7;" horiz-adv-x="1088" 
d="M1023 469l3 -5.99902c1.33301 -160 -36.667 -280.667 -114 -362s-191.333 -122 -342 -122s-271 46.167 -361 138.5s-135 223.166 -135 392.499v435c0 168.667 43.5 299.5 130.5 392.5s203.5 139.5 349.5 139.5c154.667 0 271.5 -41.333 350.5 -124
s119.833 -205 122.5 -367l-3 -6h-274c4 95.333 -9 164 -39 206s-82.333 63 -157 63c-64 0 -113 -25 -147 -75s-51 -125.667 -51 -227v-437c0 -102.667 18.167 -179 54.5 -229s89.5 -75 159.5 -75c68.667 0 116.5 19.833 143.5 59.5s38.833 107.5 35.5 203.5h274z
M654 7.00098l-9 -58.999c34 -7.33301 62.833 -24.833 86.5 -52.5s35.5 -67.834 35.5 -120.501c0 -72 -26.833 -129.5 -80.5 -172.5s-129.5 -64.5 -227.5 -64.5l-6 163c22.667 0 40.5 6.83301 53.5 20.5s19.5 34.834 19.5 63.501c0 28 -8.5 47.667 -25.5 59
s-45.833 18.666 -86.5 21.999l27 141h213z" />
    <glyph glyph-name="Egrave" unicode="&#xc8;" horiz-adv-x="1008" 
d="M884 639h-489v-412h575v-227h-860v1456h858v-228h-573v-362h489v-227zM659 1559h-230l-246 260l3 6h298z" />
    <glyph glyph-name="Eacute" unicode="&#xc9;" horiz-adv-x="1008" 
d="M884 639h-489v-412h575v-227h-860v1456h858v-228h-573v-362h489v-227zM545 1826h299l3 -6l-249 -260h-229z" />
    <glyph glyph-name="Ecircumflex" unicode="&#xca;" horiz-adv-x="1008" 
d="M884 639h-489v-412h575v-227h-860v1456h858v-228h-573v-362h489v-227zM849 1613v-22h-222l-114 134l-112 -134h-217v25l250 237h159z" />
    <glyph glyph-name="Edieresis" unicode="&#xcb;" horiz-adv-x="1008" 
d="M884 639h-489v-412h575v-227h-860v1456h858v-228h-573v-362h489v-227zM863 1606h-250v198h250v-198zM415 1606h-251v198h251v-198z" />
    <glyph glyph-name="Igrave" unicode="&#xcc;" horiz-adv-x="534" 
d="M408 0h-283v1456h283v-1456zM415 1559h-230l-246 260l3 6h298z" />
    <glyph glyph-name="Iacute" unicode="&#xcd;" horiz-adv-x="534" 
d="M408 0h-283v1456h283v-1456zM299 1826h299l3 -6l-249 -260h-229z" />
    <glyph glyph-name="Icircumflex" unicode="&#xce;" horiz-adv-x="534" 
d="M408 0h-283v1456h283v-1456zM605 1613v-22h-222l-114 134l-112 -134h-217v25l250 237h159z" />
    <glyph glyph-name="Idieresis" unicode="&#xcf;" horiz-adv-x="534" 
d="M408 0h-283v1456h283v-1456zM619 1606h-250v198h250v-198zM171 1606h-251v198h251v-198z" />
    <glyph glyph-name="Eth" unicode="&#xd0;" horiz-adv-x="1181" 
d="M140 0v655h-109v175h109v626h440c149.333 0 272.666 -56.5 369.999 -169.5s146 -258.5 146 -436.5v-245c0 -178 -48.667 -323.333 -146 -436s-220.666 -169 -369.999 -169h-440zM612 655h-187v-428h139c79.333 0 140.5 34.5 183.5 103.5s64.5 160.5 64.5 274.5v247
c0 113.333 -21.5 204.333 -64.5 273s-104.167 103 -183.5 103h-139v-398h187v-175z" />
    <glyph glyph-name="Ntilde" unicode="&#xd1;" horiz-adv-x="1241" 
d="M1129 0h-283l-445 931l-6 -2v-929h-285v1456h285l445 -930l6 2v928h283v-1456zM947 1854c0 -63.333 -17.001 -117.167 -51.001 -161.5s-77.333 -66.5 -130 -66.5c-39.333 0 -84.833 14.667 -136.5 44s-92.167 44 -121.5 44c-18 0 -33.333 -11 -46 -33
s-19 -48.333 -19 -79l-149 43c0 62 17.167 115.667 51.5 161s77.5 68 129.5 68c30.667 0 73.834 -14.667 129.501 -44s98.5 -44 128.5 -44c18 0 33.5 10.833 46.5 32.5s19.5 48.5 19.5 80.5z" />
    <glyph glyph-name="Ograve" unicode="&#xd2;" horiz-adv-x="1166" 
d="M1091 523c0 -170.667 -46.332 -304 -138.999 -400s-216 -144 -370 -144s-277 48 -369 144s-138 229.333 -138 400v408c0 170 46 303.5 138 400.5s214.667 145.5 368 145.5s276.666 -48.5 369.999 -145.5s140 -230.5 140 -400.5v-408zM808.001 933
c0 104 -19.333 182.501 -58 235.501s-95 79.5 -169 79.5c-74.667 0 -130.667 -26.333 -168 -79s-56 -131.334 -56 -236.001v-410c0 -105.333 19 -184.333 57 -237s94 -79 168 -79c73.333 0 129.333 26.333 168 79s58 131.667 58 237v410zM729.001 1580h-230l-246 260l3 6
h298z" />
    <glyph glyph-name="Oacute" unicode="&#xd3;" horiz-adv-x="1166" 
d="M1091 523c0 -170.667 -46.332 -304 -138.999 -400s-216 -144 -370 -144s-277 48 -369 144s-138 229.333 -138 400v408c0 170 46 303.5 138 400.5s214.667 145.5 368 145.5s276.666 -48.5 369.999 -145.5s140 -230.5 140 -400.5v-408zM808.001 933
c0 104 -19.333 182.501 -58 235.501s-95 79.5 -169 79.5c-74.667 0 -130.667 -26.333 -168 -79s-56 -131.334 -56 -236.001v-410c0 -105.333 19 -184.333 57 -237s94 -79 168 -79c73.333 0 129.333 26.333 168 79s58 131.667 58 237v410zM615.001 1847h299l3 -6l-249 -260
h-229z" />
    <glyph glyph-name="Ocircumflex" unicode="&#xd4;" horiz-adv-x="1166" 
d="M1091 523c0 -170.667 -46.332 -304 -138.999 -400s-216 -144 -370 -144s-277 48 -369 144s-138 229.333 -138 400v408c0 170 46 303.5 138 400.5s214.667 145.5 368 145.5s276.666 -48.5 369.999 -145.5s140 -230.5 140 -400.5v-408zM808.001 933
c0 104 -19.333 182.501 -58 235.501s-95 79.5 -169 79.5c-74.667 0 -130.667 -26.333 -168 -79s-56 -131.334 -56 -236.001v-410c0 -105.333 19 -184.333 57 -237s94 -79 168 -79c73.333 0 129.333 26.333 168 79s58 131.667 58 237v410zM919.001 1634v-22h-222l-114 134
l-112 -134h-217v25l250 237h159z" />
    <glyph glyph-name="Otilde" unicode="&#xd5;" horiz-adv-x="1166" 
d="M1091 523c0 -170.667 -46.332 -304 -138.999 -400s-216 -144 -370 -144s-277 48 -369 144s-138 229.333 -138 400v408c0 170 46 303.5 138 400.5s214.667 145.5 368 145.5s276.666 -48.5 369.999 -145.5s140 -230.5 140 -400.5v-408zM808.001 933
c0 104 -19.333 182.501 -58 235.501s-95 79.5 -169 79.5c-74.667 0 -130.667 -26.333 -168 -79s-56 -131.334 -56 -236.001v-410c0 -105.333 19 -184.333 57 -237s94 -79 168 -79c73.333 0 129.333 26.333 168 79s58 131.667 58 237v410zM911.001 1875
c0 -63.333 -17.001 -117.167 -51.001 -161.5s-77.333 -66.5 -130 -66.5c-39.333 0 -84.833 14.667 -136.5 44s-92.167 44 -121.5 44c-18 0 -33.333 -11 -46 -33s-19 -48.333 -19 -79l-149 43c0 62 17.167 115.667 51.5 161s77.5 68 129.5 68
c30.667 0 73.834 -14.667 129.501 -44s98.5 -44 128.5 -44c18 0 33.5 10.833 46.5 32.5s19.5 48.5 19.5 80.5z" />
    <glyph glyph-name="Odieresis" unicode="&#xd6;" horiz-adv-x="1166" 
d="M1091 523c0 -170.667 -46.332 -304 -138.999 -400s-216 -144 -370 -144s-277 48 -369 144s-138 229.333 -138 400v408c0 170 46 303.5 138 400.5s214.667 145.5 368 145.5s276.666 -48.5 369.999 -145.5s140 -230.5 140 -400.5v-408zM808.001 933
c0 104 -19.333 182.501 -58 235.501s-95 79.5 -169 79.5c-74.667 0 -130.667 -26.333 -168 -79s-56 -131.334 -56 -236.001v-410c0 -105.333 19 -184.333 57 -237s94 -79 168 -79c73.333 0 129.333 26.333 168 79s58 131.667 58 237v410zM933.001 1627h-250v198h250v-198z
M485.001 1627h-251v198h251v-198z" />
    <glyph glyph-name="multiply" unicode="&#xd7;" horiz-adv-x="978" 
d="M60 369l272 314l-275 317l167 163l262 -302l262 302l166 -163l-275 -316l274 -315l-167 -163l-261 300l-260 -300z" />
    <glyph glyph-name="Oslash" unicode="&#xd8;" horiz-adv-x="1215" 
d="M1097 523c0 -170.667 -46.334 -303.999 -139.001 -399.999s-216 -144 -370 -144c-42 0 -82.167 3.66699 -120.5 11s-74.166 18.666 -107.499 33.999l-57 -117h-127l86 176c-58 46.667 -102.667 107.167 -134 181.5s-47 160.5 -47 258.5v408c0 170 46 303.5 138 400.5
s214.667 145.5 368 145.5c60 0 116.167 -8 168.5 -24s99.5 -39 141.5 -69l65 132h129l-106 -216c36 -47.333 63.667 -102 83 -164s29 -130.333 29 -205v-408zM362.999 523.001c0 -36 2.00098 -68.499 6.00098 -97.499s10.333 -52.5 19 -70.5l6 -1l382 781
c-18.667 37.333 -43.834 65.5 -75.501 84.5s-69.5 28.5 -113.5 28.5c-74.667 0 -130.667 -26.333 -168 -79s-56 -131.334 -56 -236.001v-410zM814 933.002v4l-6 1l-342 -697c16 -12 34.167 -20.667 54.5 -26s42.833 -8 67.5 -8c73.333 0 129.333 26.333 168 79
s58 131.667 58 237v410z" />
    <glyph glyph-name="Ugrave" unicode="&#xd9;" horiz-adv-x="1176" 
d="M1082 1456l-0.000976562 -991.002c0 -155.333 -45.5 -275.166 -136.5 -359.499s-210.167 -126.5 -357.5 -126.5s-266.5 42.333 -357.5 127s-136.5 204.334 -136.5 359.001v991h284v-991c0 -88.667 18.333 -154 55 -196s88.334 -63 155.001 -63c68.667 0 121 20 157 60
s54 106.333 54 199v991h283zM731.999 1559h-230l-246 260l3 6h298z" />
    <glyph glyph-name="Uacute" unicode="&#xda;" horiz-adv-x="1176" 
d="M1082 1456l-0.000976562 -991.002c0 -155.333 -45.5 -275.166 -136.5 -359.499s-210.167 -126.5 -357.5 -126.5s-266.5 42.333 -357.5 127s-136.5 204.334 -136.5 359.001v991h284v-991c0 -88.667 18.333 -154 55 -196s88.334 -63 155.001 -63c68.667 0 121 20 157 60
s54 106.333 54 199v991h283zM617.999 1826h299l3 -6l-249 -260h-229z" />
    <glyph glyph-name="Ucircumflex" unicode="&#xdb;" horiz-adv-x="1176" 
d="M1082 1456l-0.000976562 -991.002c0 -155.333 -45.5 -275.166 -136.5 -359.499s-210.167 -126.5 -357.5 -126.5s-266.5 42.333 -357.5 127s-136.5 204.334 -136.5 359.001v991h284v-991c0 -88.667 18.333 -154 55 -196s88.334 -63 155.001 -63c68.667 0 121 20 157 60
s54 106.333 54 199v991h283zM921.999 1613v-22h-222l-114 134l-112 -134h-217v25l250 237h159z" />
    <glyph glyph-name="Udieresis" unicode="&#xdc;" horiz-adv-x="1176" 
d="M1082 1456l-0.000976562 -991.002c0 -155.333 -45.5 -275.166 -136.5 -359.499s-210.167 -126.5 -357.5 -126.5s-266.5 42.333 -357.5 127s-136.5 204.334 -136.5 359.001v991h284v-991c0 -88.667 18.333 -154 55 -196s88.334 -63 155.001 -63c68.667 0 121 20 157 60
s54 106.333 54 199v991h283zM935.999 1606h-250v198h250v-198zM487.999 1606h-251v198h251v-198z" />
    <glyph glyph-name="Yacute" unicode="&#xdd;" horiz-adv-x="1124" 
d="M558 832h6l243 624h309l-416 -938v-518h-284v536l-409 920h311zM601 1825h299l3 -6l-249 -260h-229z" />
    <glyph glyph-name="Thorn" unicode="&#xde;" horiz-adv-x="1079" 
d="M393 1456v-268h165c148.667 0 264.167 -41.333 346.5 -124s123.5 -191.334 123.5 -326.001c0 -135.333 -41.167 -244.166 -123.5 -326.499s-197.833 -123.5 -346.5 -123.5h-165v-288h-285v1456h285zM393 963v-448h165c62.667 0 109.167 21 139.5 63s45.5 94.667 45.5 158
c0 64 -15.333 117.5 -46 160.5s-77 64.5 -139 64.5h-163z" />
    <glyph glyph-name="germandbls" unicode="&#xdf;" horiz-adv-x="1132" 
d="M402 0l-282.999 0.00292969v1104c0 148.667 38 263.334 114 344.001s181 121 315 121c107.333 0 196.666 -32 267.999 -96s107 -153.667 107 -269c0 -70 -14.167 -136.833 -42.5 -200.5s-42.5 -119.834 -42.5 -168.501c0 -35.333 39.5 -100 118.5 -194
s118.5 -188 118.5 -282c0 -128 -32.833 -223.333 -98.5 -286s-164.5 -94 -296.5 -94c-44 0 -87.667 5 -131 15s-76 23.333 -98 40l50 224c21.333 -15.333 47 -28 77 -38s63.333 -15 100 -15c35.333 0 63.333 12.667 84 38s31 60.333 31 105
c0 47.333 -40 115.166 -120 203.499s-120 179.166 -120 272.499c0 62.667 14.667 126.667 44 192s44 123.333 44 174c0 42 -11.833 78 -35.5 108s-50.5 45 -80.5 45c-36 0 -65.5 -21.833 -88.5 -65.5s-34.5 -102.834 -34.5 -177.501v-1100z" />
    <glyph glyph-name="agrave" unicode="&#xe0;" horiz-adv-x="944" 
d="M619 0c-8 18 -15.167 37.667 -21.5 59s-11.166 43 -14.499 65c-26.667 -44 -59.167 -79.167 -97.5 -105.5s-82.833 -39.5 -133.5 -39.5c-89.333 0 -160.833 29.333 -214.5 88s-80.5 137 -80.5 235c0 106 34.167 188.333 102.5 247s169.833 88 304.5 88h107v88
c0 52.667 -9.5 93.167 -28.5 121.5s-47.5 42.5 -85.5 42.5c-32 0 -56 -11.333 -72 -34s-24 -55.667 -24 -99l-275 1l-3 6c-3.33301 94 31.5 174 104.5 240s169.167 99 288.5 99c112.667 0 204.167 -32.833 274.5 -98.5s105.5 -159.167 105.5 -280.5v-438
c0 -53.333 3.66699 -103 11 -149s18.666 -91.333 33.999 -136h-282zM434 193c28.667 0 55.165 7.66699 79.498 23s43.5 35 57.5 59v199h-107c-43.333 0 -74.666 -15 -93.999 -45s-29 -68 -29 -114c0 -36 8.33301 -65.333 25 -88s39.334 -34 68.001 -34zM611.998 1237h-230
l-246 260l3 6h298z" />
    <glyph glyph-name="aacute" unicode="&#xe1;" horiz-adv-x="944" 
d="M619 0c-8 18 -15.167 37.667 -21.5 59s-11.166 43 -14.499 65c-26.667 -44 -59.167 -79.167 -97.5 -105.5s-82.833 -39.5 -133.5 -39.5c-89.333 0 -160.833 29.333 -214.5 88s-80.5 137 -80.5 235c0 106 34.167 188.333 102.5 247s169.833 88 304.5 88h107v88
c0 52.667 -9.5 93.167 -28.5 121.5s-47.5 42.5 -85.5 42.5c-32 0 -56 -11.333 -72 -34s-24 -55.667 -24 -99l-275 1l-3 6c-3.33301 94 31.5 174 104.5 240s169.167 99 288.5 99c112.667 0 204.167 -32.833 274.5 -98.5s105.5 -159.167 105.5 -280.5v-438
c0 -53.333 3.66699 -103 11 -149s18.666 -91.333 33.999 -136h-282zM434 193c28.667 0 55.165 7.66699 79.498 23s43.5 35 57.5 59v199h-107c-43.333 0 -74.666 -15 -93.999 -45s-29 -68 -29 -114c0 -36 8.33301 -65.333 25 -88s39.334 -34 68.001 -34zM497.998 1504h299
l3 -6l-249 -260h-229z" />
    <glyph glyph-name="acircumflex" unicode="&#xe2;" horiz-adv-x="944" 
d="M619 0c-8 18 -15.167 37.667 -21.5 59s-11.166 43 -14.499 65c-26.667 -44 -59.167 -79.167 -97.5 -105.5s-82.833 -39.5 -133.5 -39.5c-89.333 0 -160.833 29.333 -214.5 88s-80.5 137 -80.5 235c0 106 34.167 188.333 102.5 247s169.833 88 304.5 88h107v88
c0 52.667 -9.5 93.167 -28.5 121.5s-47.5 42.5 -85.5 42.5c-32 0 -56 -11.333 -72 -34s-24 -55.667 -24 -99l-275 1l-3 6c-3.33301 94 31.5 174 104.5 240s169.167 99 288.5 99c112.667 0 204.167 -32.833 274.5 -98.5s105.5 -159.167 105.5 -280.5v-438
c0 -53.333 3.66699 -103 11 -149s18.666 -91.333 33.999 -136h-282zM434 193c28.667 0 55.165 7.66699 79.498 23s43.5 35 57.5 59v199h-107c-43.333 0 -74.666 -15 -93.999 -45s-29 -68 -29 -114c0 -36 8.33301 -65.333 25 -88s39.334 -34 68.001 -34zM801.998 1291v-22
h-222l-114 134l-112 -134h-217v25l250 237h159z" />
    <glyph glyph-name="atilde" unicode="&#xe3;" horiz-adv-x="944" 
d="M619 0c-8 18 -15.167 37.667 -21.5 59s-11.166 43 -14.499 65c-26.667 -44 -59.167 -79.167 -97.5 -105.5s-82.833 -39.5 -133.5 -39.5c-89.333 0 -160.833 29.333 -214.5 88s-80.5 137 -80.5 235c0 106 34.167 188.333 102.5 247s169.833 88 304.5 88h107v88
c0 52.667 -9.5 93.167 -28.5 121.5s-47.5 42.5 -85.5 42.5c-32 0 -56 -11.333 -72 -34s-24 -55.667 -24 -99l-275 1l-3 6c-3.33301 94 31.5 174 104.5 240s169.167 99 288.5 99c112.667 0 204.167 -32.833 274.5 -98.5s105.5 -159.167 105.5 -280.5v-438
c0 -53.333 3.66699 -103 11 -149s18.666 -91.333 33.999 -136h-282zM434 193c28.667 0 55.165 7.66699 79.498 23s43.5 35 57.5 59v199h-107c-43.333 0 -74.666 -15 -93.999 -45s-29 -68 -29 -114c0 -36 8.33301 -65.333 25 -88s39.334 -34 68.001 -34zM793.998 1532
c0 -63.333 -17.001 -117.167 -51.001 -161.5s-77.333 -66.5 -130 -66.5c-39.333 0 -84.833 14.667 -136.5 44s-92.167 44 -121.5 44c-18 0 -33.333 -11 -46 -33s-19 -48.333 -19 -79l-149 43c0 62 17.167 115.667 51.5 161s77.5 68 129.5 68
c30.667 0 73.834 -14.667 129.501 -44s98.5 -44 128.5 -44c18 0 33.5 10.833 46.5 32.5s19.5 48.5 19.5 80.5z" />
    <glyph glyph-name="adieresis" unicode="&#xe4;" horiz-adv-x="944" 
d="M619 0c-8 18 -15.167 37.667 -21.5 59s-11.166 43 -14.499 65c-26.667 -44 -59.167 -79.167 -97.5 -105.5s-82.833 -39.5 -133.5 -39.5c-89.333 0 -160.833 29.333 -214.5 88s-80.5 137 -80.5 235c0 106 34.167 188.333 102.5 247s169.833 88 304.5 88h107v88
c0 52.667 -9.5 93.167 -28.5 121.5s-47.5 42.5 -85.5 42.5c-32 0 -56 -11.333 -72 -34s-24 -55.667 -24 -99l-275 1l-3 6c-3.33301 94 31.5 174 104.5 240s169.167 99 288.5 99c112.667 0 204.167 -32.833 274.5 -98.5s105.5 -159.167 105.5 -280.5v-438
c0 -53.333 3.66699 -103 11 -149s18.666 -91.333 33.999 -136h-282zM434 193c28.667 0 55.165 7.66699 79.498 23s43.5 35 57.5 59v199h-107c-43.333 0 -74.666 -15 -93.999 -45s-29 -68 -29 -114c0 -36 8.33301 -65.333 25 -88s39.334 -34 68.001 -34zM817.998 1284h-250
v198h250v-198zM369.998 1284h-251v198h251v-198z" />
    <glyph glyph-name="aring" unicode="&#xe5;" horiz-adv-x="944" 
d="M619 0c-8 18 -15.167 37.667 -21.5 59s-11.166 43 -14.499 65c-26.667 -44 -59.167 -79.167 -97.5 -105.5s-82.833 -39.5 -133.5 -39.5c-89.333 0 -160.833 29.333 -214.5 88s-80.5 137 -80.5 235c0 106 34.167 188.333 102.5 247s169.833 88 304.5 88h107v88
c0 52.667 -9.5 93.167 -28.5 121.5s-47.5 42.5 -85.5 42.5c-32 0 -56 -11.333 -72 -34s-24 -55.667 -24 -99l-275 1l-3 6c-3.33301 94 31.5 174 104.5 240s169.167 99 288.5 99c112.667 0 204.167 -32.833 274.5 -98.5s105.5 -159.167 105.5 -280.5v-438
c0 -53.333 3.66699 -103 11 -149s18.666 -91.333 33.999 -136h-282zM434 193c28.667 0 55.165 7.66699 79.498 23s43.5 35 57.5 59v199h-107c-43.333 0 -74.666 -15 -93.999 -45s-29 -68 -29 -114c0 -36 8.33301 -65.333 25 -88s39.334 -34 68.001 -34zM273.998 1417
c0 53.333 18.667 98.334 56 135.001s83.333 55 138 55c53.333 0 98.333 -18.333 135 -55s55 -81.667 55 -135c0 -54.667 -18.167 -99.334 -54.5 -134.001s-81.5 -52 -135.5 -52c-54.667 0 -100.667 17.5 -138 52.5s-56 79.5 -56 133.5zM381.998 1417
c0 -28 8 -50.833 24 -68.5s36.667 -26.5 62 -26.5c24.667 0 44.667 8.66699 60 26s23 40.333 23 69s-7.66699 52 -23 70s-35.333 27 -60 27c-25.333 0 -46 -9 -62 -27s-24 -41.333 -24 -70z" />
    <glyph glyph-name="ae" unicode="&#xe6;" horiz-adv-x="1479" 
d="M1057 -21c-72 0 -136 12.6689 -192 38.002s-103.333 62 -142 110c-34.667 -43.333 -79.834 -78.833 -135.501 -106.5s-121.167 -41.5 -196.5 -41.5c-112 0 -198.333 30.167 -259 90.5s-91 142.833 -91 247.5c0 106 36.833 187.833 110.5 245.5s181.167 86.5 322.5 86.5
h136v56c0 52.667 -10 94 -30 124s-47.667 45 -83 45c-38 0 -67.833 -12.333 -89.5 -37s-32.5 -55.334 -32.5 -92.001l-275 17l-2 6c-3.33301 96.667 32.167 176.5 106.5 239.5s172.833 94.5 295.5 94.5c55.333 0 106.333 -7.83301 153 -23.5s87 -38.5 121 -68.5
c34 29.333 73.333 52 118 68s94.334 24 149.001 24c120.667 0 215.667 -43.667 285 -131s104 -206 104 -356v-160h-535c3.33301 -78 20.5 -139 51.5 -183s79.167 -66 144.5 -66c51.333 0 93.833 6.16699 127.5 18.5s72.167 32.166 115.5 59.499l71 -183
c-35.333 -32.667 -84.5 -61.167 -147.5 -85.5s-129.833 -36.5 -200.5 -36.5zM446 184.002c27.333 0 56.668 9.00195 88.001 27.002s56.666 39.667 75.999 65v190h-134c-47.333 0 -84.5 -14.833 -111.5 -44.5s-40.5 -65.834 -40.5 -108.501c0 -40.667 10 -72.334 30 -95.001
s50.667 -34 92 -34zM1041 874.004c-48.667 0 -84 -20 -106 -60s-35 -96.667 -39 -170h257v27c0 62.667 -9.33301 112.167 -28 148.5s-46.667 54.5 -84 54.5z" />
    <glyph glyph-name="ccedilla" unicode="&#xe7;" horiz-adv-x="910" 
d="M487 206c38.667 0 67.834 14.333 87.501 43s29.5 70 29.5 124h258l3 -6c2 -113.333 -32.833 -206.333 -104.5 -279s-162.834 -109 -273.501 -109c-140 0 -247.5 45.667 -322.5 137s-112.5 209.333 -112.5 354v139c0 144 37.333 262.167 112 354.5
s181.667 138.5 321 138.5c117.333 0 210.5 -37.667 279.5 -113s102.5 -177 100.5 -305l-2 -5h-259c0 58.667 -9.83301 105.834 -29.5 141.501s-49.5 53.5 -89.5 53.5c-56.667 0 -95.667 -24 -117 -72s-32 -112.333 -32 -193v-139c0 -82.667 10.667 -147.334 32 -194.001
s61 -70 119 -70zM586 7l-9 -58.999c34 -7.33301 62.833 -24.833 86.5 -52.5s35.5 -67.834 35.5 -120.501c0 -72 -26.833 -129.5 -80.5 -172.5s-129.5 -64.5 -227.5 -64.5l-6 163c22.667 0 40.5 6.83301 53.5 20.5s19.5 34.834 19.5 63.501c0 28 -8.5 47.667 -25.5 59
s-45.833 18.666 -86.5 21.999l27 141h213z" />
    <glyph glyph-name="egrave" unicode="&#xe8;" horiz-adv-x="938" 
d="M513 -21c-136 0 -243.998 44.667 -323.998 134s-120 202 -120 338v152c0 146 37.167 265.667 111.5 359s177.166 140 308.499 140c126.667 0 224.667 -42.333 294 -127s104 -200 104 -346v-174h-535v-4c0 -71.333 16.167 -130 48.5 -176s81.166 -69 146.499 -69
c53.333 0 96.666 6 129.999 18s73 32 119 60l72 -181c-37.333 -36 -87.166 -65.667 -149.499 -89s-130.833 -35 -205.5 -35zM489.002 874c-45.333 0 -78.667 -20.667 -100 -62s-33.333 -97 -36 -167h255v40c0 60 -9.33301 106.5 -28 139.5s-49 49.5 -91 49.5zM611.001 1238
h-230l-246 260l3 6h298z" />
    <glyph glyph-name="eacute" unicode="&#xe9;" horiz-adv-x="938" 
d="M513 -21c-136 0 -243.998 44.667 -323.998 134s-120 202 -120 338v152c0 146 37.167 265.667 111.5 359s177.166 140 308.499 140c126.667 0 224.667 -42.333 294 -127s104 -200 104 -346v-174h-535v-4c0 -71.333 16.167 -130 48.5 -176s81.166 -69 146.499 -69
c53.333 0 96.666 6 129.999 18s73 32 119 60l72 -181c-37.333 -36 -87.166 -65.667 -149.499 -89s-130.833 -35 -205.5 -35zM489.002 874c-45.333 0 -78.667 -20.667 -100 -62s-33.333 -97 -36 -167h255v40c0 60 -9.33301 106.5 -28 139.5s-49 49.5 -91 49.5zM497.001 1505
h299l3 -6l-249 -260h-229z" />
    <glyph glyph-name="ecircumflex" unicode="&#xea;" horiz-adv-x="938" 
d="M513 -21c-136 0 -243.998 44.667 -323.998 134s-120 202 -120 338v152c0 146 37.167 265.667 111.5 359s177.166 140 308.499 140c126.667 0 224.667 -42.333 294 -127s104 -200 104 -346v-174h-535v-4c0 -71.333 16.167 -130 48.5 -176s81.166 -69 146.499 -69
c53.333 0 96.666 6 129.999 18s73 32 119 60l72 -181c-37.333 -36 -87.166 -65.667 -149.499 -89s-130.833 -35 -205.5 -35zM489.002 874c-45.333 0 -78.667 -20.667 -100 -62s-33.333 -97 -36 -167h255v40c0 60 -9.33301 106.5 -28 139.5s-49 49.5 -91 49.5zM801.001 1292
v-22h-222l-114 134l-112 -134h-217v25l250 237h159z" />
    <glyph glyph-name="edieresis" unicode="&#xeb;" horiz-adv-x="938" 
d="M513 -21c-136 0 -243.998 44.667 -323.998 134s-120 202 -120 338v152c0 146 37.167 265.667 111.5 359s177.166 140 308.499 140c126.667 0 224.667 -42.333 294 -127s104 -200 104 -346v-174h-535v-4c0 -71.333 16.167 -130 48.5 -176s81.166 -69 146.499 -69
c53.333 0 96.666 6 129.999 18s73 32 119 60l72 -181c-37.333 -36 -87.166 -65.667 -149.499 -89s-130.833 -35 -205.5 -35zM489.002 874c-45.333 0 -78.667 -20.667 -100 -62s-33.333 -97 -36 -167h255v40c0 60 -9.33301 106.5 -28 139.5s-49 49.5 -91 49.5zM817.001 1285
h-250v198h250v-198zM369.001 1285h-251v198h251v-198z" />
    <glyph glyph-name="igrave" unicode="&#xec;" horiz-adv-x="513" 
d="M398 0h-285v1082h285v-1082zM403 1216h-230l-246 260l3 6h298z" />
    <glyph glyph-name="iacute" unicode="&#xed;" horiz-adv-x="513" 
d="M398 0h-285v1082h285v-1082zM287 1483h299l3 -6l-249 -260h-229z" />
    <glyph glyph-name="icircumflex" unicode="&#xee;" horiz-adv-x="513" 
d="M398 0h-285v1082h285v-1082zM593 1272v-22h-222l-114 134l-112 -134h-217v25l250 237h159z" />
    <glyph glyph-name="idieresis" unicode="&#xef;" horiz-adv-x="513" 
d="M398 0h-285v1082h285v-1082zM607 1263h-250v198h250v-198zM159 1263h-251v198h251v-198z" />
    <glyph glyph-name="eth" unicode="&#xf0;" horiz-adv-x="1053" 
d="M781 1284c65.333 -78 116.168 -169.499 152.501 -274.499s54.5 -220.167 54.5 -345.5v-71c0 -180 -45.833 -327.333 -137.5 -442s-205.834 -172 -342.501 -172c-138.667 0 -251.667 46.5 -339 139.5s-131 208.833 -131 347.5c0 151.333 37.833 272 113.5 362
s180.167 135 313.5 135c39.333 0 76.833 -6.33301 112.5 -19s66.834 -30 93.501 -52l4 4c-11.333 46 -27 89.5 -47 130.5s-43.667 78.167 -71 111.5l-181 -119l-72 111l155 101c-20 14 -40.667 26.667 -62 38s-43 21.666 -65 30.999l89 217c48 -14 94.167 -32.667 138.5 -56
s86.166 -51 125.499 -83l173 112l70 -110zM511.002 206.001c60 0 107.001 36.001 141.001 108.001s51 165 51 279v70c-18.667 25.333 -44.167 46.166 -76.5 62.499s-69.5 24.5 -111.5 24.5c-62 0 -109.667 -25.833 -143 -77.5s-50 -120.5 -50 -206.5
c0 -74 17.167 -135.833 51.5 -185.5s80.166 -74.5 137.499 -74.5z" />
    <glyph glyph-name="ntilde" unicode="&#xf1;" 
d="M352 1082l11.998 -149.001c30 53.333 66.833 94.833 110.5 124.5s91.834 44.5 144.501 44.5c90 0 160.833 -34.667 212.5 -104s77.5 -178.333 77.5 -327v-671h-285v671c0 74.667 -10.5 127.167 -31.5 157.5s-53.5 45.5 -97.5 45.5
c-25.333 0 -48.666 -6.66699 -69.999 -20s-39.333 -31.666 -54 -54.999v-799h-284v1082h265zM822.998 1532c0 -63.333 -17.001 -117.167 -51.001 -161.5s-77.333 -66.5 -130 -66.5c-39.333 0 -84.833 14.667 -136.5 44s-92.167 44 -121.5 44c-18 0 -33.333 -11 -46 -33
s-19 -48.333 -19 -79l-149 43c0 62 17.167 115.667 51.5 161s77.5 68 129.5 68c30.667 0 73.834 -14.667 129.501 -44s98.5 -44 128.5 -44c18 0 33.5 10.833 46.5 32.5s19.5 48.5 19.5 80.5z" />
    <glyph glyph-name="ograve" unicode="&#xf2;" 
d="M58 607c0 145.333 38.5 264.166 115.5 356.499s184.833 138.5 323.5 138.5s246.667 -46.167 324 -138.5s116 -211.166 116 -356.499v-134c0 -146.667 -38.667 -265.667 -116 -357s-185 -137 -323 -137c-139.333 0 -247.5 45.667 -324.5 137s-115.5 210.333 -115.5 357
v134zM341 473c0 -83.333 11.6689 -148.666 35.002 -195.999s64 -71 122 -71c56 0 95.833 23.833 119.5 71.5s35.5 112.834 35.5 195.501v134c0 81.333 -11.833 146.166 -35.5 194.499s-63.834 72.5 -120.501 72.5s-96.834 -24.333 -120.501 -73
s-35.5 -113.334 -35.5 -194.001v-134zM641.002 1237h-230l-246 260l3 6h298z" />
    <glyph glyph-name="oacute" unicode="&#xf3;" 
d="M58 607c0 145.333 38.5 264.166 115.5 356.499s184.833 138.5 323.5 138.5s246.667 -46.167 324 -138.5s116 -211.166 116 -356.499v-134c0 -146.667 -38.667 -265.667 -116 -357s-185 -137 -323 -137c-139.333 0 -247.5 45.667 -324.5 137s-115.5 210.333 -115.5 357
v134zM341 473c0 -83.333 11.6689 -148.666 35.002 -195.999s64 -71 122 -71c56 0 95.833 23.833 119.5 71.5s35.5 112.834 35.5 195.501v134c0 81.333 -11.833 146.166 -35.5 194.499s-63.834 72.5 -120.501 72.5s-96.834 -24.333 -120.501 -73
s-35.5 -113.334 -35.5 -194.001v-134zM527.002 1504h299l3 -6l-249 -260h-229z" />
    <glyph glyph-name="ocircumflex" unicode="&#xf4;" 
d="M58 607c0 145.333 38.5 264.166 115.5 356.499s184.833 138.5 323.5 138.5s246.667 -46.167 324 -138.5s116 -211.166 116 -356.499v-134c0 -146.667 -38.667 -265.667 -116 -357s-185 -137 -323 -137c-139.333 0 -247.5 45.667 -324.5 137s-115.5 210.333 -115.5 357
v134zM341 473c0 -83.333 11.6689 -148.666 35.002 -195.999s64 -71 122 -71c56 0 95.833 23.833 119.5 71.5s35.5 112.834 35.5 195.501v134c0 81.333 -11.833 146.166 -35.5 194.499s-63.834 72.5 -120.501 72.5s-96.834 -24.333 -120.501 -73
s-35.5 -113.334 -35.5 -194.001v-134zM831.002 1291v-22h-222l-114 134l-112 -134h-217v25l250 237h159z" />
    <glyph glyph-name="otilde" unicode="&#xf5;" 
d="M58 607c0 145.333 38.5 264.166 115.5 356.499s184.833 138.5 323.5 138.5s246.667 -46.167 324 -138.5s116 -211.166 116 -356.499v-134c0 -146.667 -38.667 -265.667 -116 -357s-185 -137 -323 -137c-139.333 0 -247.5 45.667 -324.5 137s-115.5 210.333 -115.5 357
v134zM341 473c0 -83.333 11.6689 -148.666 35.002 -195.999s64 -71 122 -71c56 0 95.833 23.833 119.5 71.5s35.5 112.834 35.5 195.501v134c0 81.333 -11.833 146.166 -35.5 194.499s-63.834 72.5 -120.501 72.5s-96.834 -24.333 -120.501 -73
s-35.5 -113.334 -35.5 -194.001v-134zM823.002 1532c0 -63.333 -17.001 -117.167 -51.001 -161.5s-77.333 -66.5 -130 -66.5c-39.333 0 -84.833 14.667 -136.5 44s-92.167 44 -121.5 44c-18 0 -33.333 -11 -46 -33s-19 -48.333 -19 -79l-149 43
c0 62 17.167 115.667 51.5 161s77.5 68 129.5 68c30.667 0 73.834 -14.667 129.501 -44s98.5 -44 128.5 -44c18 0 33.5 10.833 46.5 32.5s19.5 48.5 19.5 80.5z" />
    <glyph glyph-name="odieresis" unicode="&#xf6;" 
d="M58 607c0 145.333 38.5 264.166 115.5 356.499s184.833 138.5 323.5 138.5s246.667 -46.167 324 -138.5s116 -211.166 116 -356.499v-134c0 -146.667 -38.667 -265.667 -116 -357s-185 -137 -323 -137c-139.333 0 -247.5 45.667 -324.5 137s-115.5 210.333 -115.5 357
v134zM341 473c0 -83.333 11.6689 -148.666 35.002 -195.999s64 -71 122 -71c56 0 95.833 23.833 119.5 71.5s35.5 112.834 35.5 195.501v134c0 81.333 -11.833 146.166 -35.5 194.499s-63.834 72.5 -120.501 72.5s-96.834 -24.333 -120.501 -73
s-35.5 -113.334 -35.5 -194.001v-134zM845.002 1284h-250v198h250v-198zM397.002 1284h-251v198h251v-198z" />
    <glyph glyph-name="divide" unicode="&#xf7;" horiz-adv-x="1005" 
d="M937 577h-878v221h878v-221zM638 971h-281v230h281v-230zM638 167h-281v230h281v-230z" />
    <glyph glyph-name="oslash" unicode="&#xf8;" horiz-adv-x="997" 
d="M58 607c0 145.333 38.5029 264.166 115.503 356.499s184.833 138.5 323.5 138.5c26.667 0 52.667 -2 78 -6s49.666 -9.66699 72.999 -17l57 138h152l-85 -206c53.333 -44 94.166 -100.833 122.499 -170.5s42.5 -147.5 42.5 -233.5v-134
c0 -146.667 -38.667 -265.667 -116 -357s-185 -137 -323 -137c-26.667 0 -51.834 1.83301 -75.501 5.5s-46.5 8.5 -68.5 14.5l-58 -142h-151l85 206c-56.667 42.667 -99.5 99.334 -128.5 170.001s-43.5 150.667 -43.5 240v134zM341.003 473
c0 -23.333 0.5 -43.999 1.5 -61.999s3.16699 -32.333 6.5 -43l6 -1l203 494c-9.33301 4 -19.166 7.16699 -29.499 9.5s-20.833 3.5 -31.5 3.5c-56.667 0 -96.834 -24.333 -120.501 -73s-35.5 -113.334 -35.5 -194.001v-134zM653.003 607.001
c0 18 -0.668945 34.498 -2.00195 49.498s-2.66602 27.167 -3.99902 36.5l-6 1l-197 -479c8 -3.33301 16.333 -5.66602 25 -6.99902s18.334 -2 29.001 -2c56 0 95.833 23.833 119.5 71.5s35.5 112.834 35.5 195.501v134z" />
    <glyph glyph-name="ugrave" unicode="&#xf9;" 
d="M641 125c-29.333 -47.333 -64.834 -83.5 -106.501 -108.5s-88.834 -37.5 -141.501 -37.5c-96.667 0 -172.167 36.5 -226.5 109.5s-81.5 186.167 -81.5 339.5v654h284v-656c0 -76.667 9.33301 -132.334 28 -167.001s46.334 -52 83.001 -52
c31.333 0 58.833 5.83301 82.5 17.5s43.834 28.834 60.501 51.501v806h285v-1082h-250zM638.999 1216h-230l-246 260l3 6h298z" />
    <glyph glyph-name="uacute" unicode="&#xfa;" 
d="M641 125c-29.333 -47.333 -64.834 -83.5 -106.501 -108.5s-88.834 -37.5 -141.501 -37.5c-96.667 0 -172.167 36.5 -226.5 109.5s-81.5 186.167 -81.5 339.5v654h284v-656c0 -76.667 9.33301 -132.334 28 -167.001s46.334 -52 83.001 -52
c31.333 0 58.833 5.83301 82.5 17.5s43.834 28.834 60.501 51.501v806h285v-1082h-250zM524.999 1483h299l3 -6l-249 -260h-229z" />
    <glyph glyph-name="ucircumflex" unicode="&#xfb;" 
d="M641 125c-29.333 -47.333 -64.834 -83.5 -106.501 -108.5s-88.834 -37.5 -141.501 -37.5c-96.667 0 -172.167 36.5 -226.5 109.5s-81.5 186.167 -81.5 339.5v654h284v-656c0 -76.667 9.33301 -132.334 28 -167.001s46.334 -52 83.001 -52
c31.333 0 58.833 5.83301 82.5 17.5s43.834 28.834 60.501 51.501v806h285v-1082h-250zM828.999 1272v-22h-222l-114 134l-112 -134h-217v25l250 237h159z" />
    <glyph glyph-name="udieresis" unicode="&#xfc;" 
d="M641 125c-29.333 -47.333 -64.834 -83.5 -106.501 -108.5s-88.834 -37.5 -141.501 -37.5c-96.667 0 -172.167 36.5 -226.5 109.5s-81.5 186.167 -81.5 339.5v654h284v-656c0 -76.667 9.33301 -132.334 28 -167.001s46.334 -52 83.001 -52
c31.333 0 58.833 5.83301 82.5 17.5s43.834 28.834 60.501 51.501v806h285v-1082h-250zM842.999 1263h-250v198h250v-198zM394.999 1263h-251v198h251v-198z" />
    <glyph glyph-name="yacute" unicode="&#xfd;" horiz-adv-x="909" 
d="M440 444l2 -11l158 649h304l-365 -1245c-27.333 -78 -63.833 -143.167 -109.5 -195.5s-115.5 -78.5 -209.5 -78.5c-23.333 0 -44 2 -62 6s-42 10 -72 18l33 212c11.333 -2 19.5 -3.5 24.5 -4.5s10.5 -1.5 16.5 -1.5c41.333 0 72.5 10.833 93.5 32.5
s36.167 50.167 45.5 85.5l25 80l-319 1091h305zM483 1483h299l3 -6l-249 -260h-229z" />
    <glyph glyph-name="thorn" unicode="&#xfe;" horiz-adv-x="999" 
d="M941 458c0 -144 -31.333 -259.834 -94 -347.501s-150.334 -131.5 -263.001 -131.5c-44 0 -83.167 8.83301 -117.5 26.5s-64.166 43.834 -89.499 78.501v-500h-284v1976h284v-570c25.333 36 55 63.667 89 83s72.667 29 116 29c114 0 202.333 -46.833 265 -140.5
s94 -217.167 94 -370.5v-133zM657 590.999c0 85.333 -12 153.832 -36 205.499s-61.667 77.5 -113 77.5c-30 0 -56 -7.5 -78 -22.5s-39.667 -36.167 -53 -63.5v-511c13.333 -23.333 30.833 -41 52.5 -53s48.167 -18 79.5 -18c52.667 0 90.5 22.333 113.5 67
s34.5 106.334 34.5 185.001v133z" />
    <glyph glyph-name="ydieresis" unicode="&#xff;" horiz-adv-x="909" 
d="M440 444l2 -11l158 649h304l-365 -1245c-27.333 -78 -63.833 -143.167 -109.5 -195.5s-115.5 -78.5 -209.5 -78.5c-23.333 0 -44 2 -62 6s-42 10 -72 18l33 212c11.333 -2 19.5 -3.5 24.5 -4.5s10.5 -1.5 16.5 -1.5c41.333 0 72.5 10.833 93.5 32.5
s36.167 50.167 45.5 85.5l25 80l-319 1091h305zM803 1263h-250v198h250v-198zM355 1263h-251v198h251v-198z" />
    <glyph glyph-name="Amacron" unicode="&#x100;" horiz-adv-x="1134" 
d="M765 309h-384l-78 -309h-287l410 1456h296l409 -1456h-287zM439 538h268l-131 515h-6zM902 1617h-654v160h654v-160z" />
    <glyph glyph-name="amacron" unicode="&#x101;" horiz-adv-x="944" 
d="M619 0c-8 18 -15.167 37.667 -21.5 59s-11.166 43 -14.499 65c-26.667 -44 -59.167 -79.167 -97.5 -105.5s-82.833 -39.5 -133.5 -39.5c-89.333 0 -160.833 29.333 -214.5 88s-80.5 137 -80.5 235c0 106 34.167 188.333 102.5 247s169.833 88 304.5 88h107v88
c0 52.667 -9.5 93.167 -28.5 121.5s-47.5 42.5 -85.5 42.5c-32 0 -56 -11.333 -72 -34s-24 -55.667 -24 -99l-275 1l-3 6c-3.33301 94 31.5 174 104.5 240s169.167 99 288.5 99c112.667 0 204.167 -32.833 274.5 -98.5s105.5 -159.167 105.5 -280.5v-438
c0 -53.333 3.66699 -103 11 -149s18.666 -91.333 33.999 -136h-282zM434 193c28.667 0 55.165 7.66699 79.498 23s43.5 35 57.5 59v199h-107c-43.333 0 -74.666 -15 -93.999 -45s-29 -68 -29 -114c0 -36 8.33301 -65.333 25 -88s39.334 -34 68.001 -34zM796.998 1297h-654
v160h654v-160z" />
    <glyph glyph-name="Abreve" unicode="&#x102;" horiz-adv-x="1134" 
d="M765 309h-384l-78 -309h-287l410 1456h296l409 -1456h-287zM439 538h268l-131 515h-6zM884 1897l1.99902 -6c2.66699 -86 -24.5 -155.833 -81.5 -209.5s-133.5 -80.5 -229.5 -80.5c-97.333 0 -174.666 27 -231.999 81s-84.333 123.667 -81 209l2 6h207
c0 -35.333 8.5 -64.333 25.5 -87s43.167 -34 78.5 -34c34 0 59.167 11.333 75.5 34s24.5 51.667 24.5 87h209z" />
    <glyph glyph-name="abreve" unicode="&#x103;" horiz-adv-x="944" 
d="M619 0c-8 18 -15.167 37.667 -21.5 59s-11.166 43 -14.499 65c-26.667 -44 -59.167 -79.167 -97.5 -105.5s-82.833 -39.5 -133.5 -39.5c-89.333 0 -160.833 29.333 -214.5 88s-80.5 137 -80.5 235c0 106 34.167 188.333 102.5 247s169.833 88 304.5 88h107v88
c0 52.667 -9.5 93.167 -28.5 121.5s-47.5 42.5 -85.5 42.5c-32 0 -56 -11.333 -72 -34s-24 -55.667 -24 -99l-275 1l-3 6c-3.33301 94 31.5 174 104.5 240s169.167 99 288.5 99c112.667 0 204.167 -32.833 274.5 -98.5s105.5 -159.167 105.5 -280.5v-438
c0 -53.333 3.66699 -103 11 -149s18.666 -91.333 33.999 -136h-282zM434 193c28.667 0 55.165 7.66699 79.498 23s43.5 35 57.5 59v199h-107c-43.333 0 -74.666 -15 -93.999 -45s-29 -68 -29 -114c0 -36 8.33301 -65.333 25 -88s39.334 -34 68.001 -34zM776.998 1575
l1.99902 -6c2.66699 -86 -24.5 -155.833 -81.5 -209.5s-133.5 -80.5 -229.5 -80.5c-97.333 0 -174.666 27 -231.999 81s-84.333 123.667 -81 209l2 6h207c0 -35.333 8.5 -64.333 25.5 -87s43.167 -34 78.5 -34c34 0 59.167 11.333 75.5 34s24.5 51.667 24.5 87h209z" />
    <glyph glyph-name="Aogonek" unicode="&#x104;" horiz-adv-x="1134" 
d="M765 309h-384l-78 -309h-287l410 1456h296l409 -1456h-287zM439 538h268l-131 515h-6zM1044 0c-26.667 -35.333 -46 -65 -58 -89s-18 -52.333 -18 -85c0 -15.333 4.33301 -30.166 13 -44.499s27.667 -21.5 57 -21.5c15.333 0 28.666 1.83301 39.999 5.5
s23.666 8.5 36.999 14.5l32 -151c-20.667 -12 -44.167 -22.333 -70.5 -31s-57.166 -13 -92.499 -13c-65.333 0 -119.166 18.167 -161.499 54.5s-63.5 87.166 -63.5 152.499c0 50.667 12.5 98.667 37.5 144s64.5 85.333 118.5 120z" />
    <glyph glyph-name="aogonek" unicode="&#x105;" horiz-adv-x="944" 
d="M619 0c-8 18 -15.167 37.667 -21.5 59s-11.166 43 -14.499 65c-26.667 -44 -59.167 -79.167 -97.5 -105.5s-82.833 -39.5 -133.5 -39.5c-89.333 0 -160.833 29.333 -214.5 88s-80.5 137 -80.5 235c0 106 34.167 188.333 102.5 247s169.833 88 304.5 88h107v88
c0 52.667 -9.5 93.167 -28.5 121.5s-47.5 42.5 -85.5 42.5c-32 0 -56 -11.333 -72 -34s-24 -55.667 -24 -99l-275 1l-3 6c-3.33301 94 31.5 174 104.5 240s169.167 99 288.5 99c112.667 0 204.167 -32.833 274.5 -98.5s105.5 -159.167 105.5 -280.5v-438
c0 -53.333 3.66699 -103 11 -149s18.666 -91.333 33.999 -136h-282zM434 193c28.667 0 55.165 7.66699 79.498 23s43.5 35 57.5 59v199h-107c-43.333 0 -74.666 -15 -93.999 -45s-29 -68 -29 -114c0 -36 8.33301 -65.333 25 -88s39.334 -34 68.001 -34zM812.998 0
c-26.667 -35.333 -46 -65 -58 -89s-18 -52.333 -18 -85c0 -15.333 4.33301 -30.166 13 -44.499s27.667 -21.5 57 -21.5c15.333 0 28.666 1.83301 39.999 5.5s23.666 8.5 36.999 14.5l32 -151c-20.667 -12 -44.167 -22.333 -70.5 -31s-57.166 -13 -92.499 -13
c-65.333 0 -119.166 18.167 -161.499 54.5s-63.5 87.166 -63.5 152.499c0 50.667 12.5 98.667 37.5 144s64.5 85.333 118.5 120z" />
    <glyph glyph-name="Cacute" unicode="&#x106;" horiz-adv-x="1088" 
d="M1023 469l3 -5.99902c1.33301 -160 -36.667 -280.667 -114 -362s-191.333 -122 -342 -122s-271 46.167 -361 138.5s-135 223.166 -135 392.499v435c0 168.667 43.5 299.5 130.5 392.5s203.5 139.5 349.5 139.5c154.667 0 271.5 -41.333 350.5 -124
s119.833 -205 122.5 -367l-3 -6h-274c4 95.333 -9 164 -39 206s-82.333 63 -157 63c-64 0 -113 -25 -147 -75s-51 -125.667 -51 -227v-437c0 -102.667 18.167 -179 54.5 -229s89.5 -75 159.5 -75c68.667 0 116.5 19.833 143.5 59.5s38.833 107.5 35.5 203.5h274zM590 1847
h299l3 -6l-249 -260h-229z" />
    <glyph glyph-name="cacute" unicode="&#x107;" horiz-adv-x="910" 
d="M487 206c38.667 0 67.834 14.333 87.501 43s29.5 70 29.5 124h258l3 -6c2 -113.333 -32.833 -206.333 -104.5 -279s-162.834 -109 -273.501 -109c-140 0 -247.5 45.667 -322.5 137s-112.5 209.333 -112.5 354v139c0 144 37.333 262.167 112 354.5
s181.667 138.5 321 138.5c117.333 0 210.5 -37.667 279.5 -113s102.5 -177 100.5 -305l-2 -5h-259c0 58.667 -9.83301 105.834 -29.5 141.501s-49.5 53.5 -89.5 53.5c-56.667 0 -95.667 -24 -117 -72s-32 -112.333 -32 -193v-139c0 -82.667 10.667 -147.334 32 -194.001
s61 -70 119 -70zM486 1504h299l3 -6l-249 -260h-229z" />
    <glyph glyph-name="Ccircumflex" unicode="&#x108;" horiz-adv-x="1088" 
d="M1023 469l3 -5.99902c1.33301 -160 -36.667 -280.667 -114 -362s-191.333 -122 -342 -122s-271 46.167 -361 138.5s-135 223.166 -135 392.499v435c0 168.667 43.5 299.5 130.5 392.5s203.5 139.5 349.5 139.5c154.667 0 271.5 -41.333 350.5 -124
s119.833 -205 122.5 -367l-3 -6h-274c4 95.333 -9 164 -39 206s-82.333 63 -157 63c-64 0 -113 -25 -147 -75s-51 -125.667 -51 -227v-437c0 -102.667 18.167 -179 54.5 -229s89.5 -75 159.5 -75c68.667 0 116.5 19.833 143.5 59.5s38.833 107.5 35.5 203.5h274zM894 1634
v-22h-222l-114 134l-112 -134h-217v25l250 237h159z" />
    <glyph glyph-name="ccircumflex" unicode="&#x109;" horiz-adv-x="910" 
d="M487 206c38.667 0 67.834 14.333 87.501 43s29.5 70 29.5 124h258l3 -6c2 -113.333 -32.833 -206.333 -104.5 -279s-162.834 -109 -273.501 -109c-140 0 -247.5 45.667 -322.5 137s-112.5 209.333 -112.5 354v139c0 144 37.333 262.167 112 354.5
s181.667 138.5 321 138.5c117.333 0 210.5 -37.667 279.5 -113s102.5 -177 100.5 -305l-2 -5h-259c0 58.667 -9.83301 105.834 -29.5 141.501s-49.5 53.5 -89.5 53.5c-56.667 0 -95.667 -24 -117 -72s-32 -112.333 -32 -193v-139c0 -82.667 10.667 -147.334 32 -194.001
s61 -70 119 -70zM790 1291v-22h-222l-114 134l-112 -134h-217v25l250 237h159z" />
    <glyph glyph-name="uni010A" unicode="&#x10a;" horiz-adv-x="1088" 
d="M1023 469l3 -5.99902c1.33301 -160 -36.667 -280.667 -114 -362s-191.333 -122 -342 -122s-271 46.167 -361 138.5s-135 223.166 -135 392.499v435c0 168.667 43.5 299.5 130.5 392.5s203.5 139.5 349.5 139.5c154.667 0 271.5 -41.333 350.5 -124
s119.833 -205 122.5 -367l-3 -6h-274c4 95.333 -9 164 -39 206s-82.333 63 -157 63c-64 0 -113 -25 -147 -75s-51 -125.667 -51 -227v-437c0 -102.667 18.167 -179 54.5 -229s89.5 -75 159.5 -75c68.667 0 116.5 19.833 143.5 59.5s38.833 107.5 35.5 203.5h274zM700 1628
h-291v241h291v-241z" />
    <glyph glyph-name="uni010B" unicode="&#x10b;" horiz-adv-x="910" 
d="M487 206c38.667 0 67.834 14.333 87.501 43s29.5 70 29.5 124h258l3 -6c2 -113.333 -32.833 -206.333 -104.5 -279s-162.834 -109 -273.501 -109c-140 0 -247.5 45.667 -322.5 137s-112.5 209.333 -112.5 354v139c0 144 37.333 262.167 112 354.5
s181.667 138.5 321 138.5c117.333 0 210.5 -37.667 279.5 -113s102.5 -177 100.5 -305l-2 -5h-259c0 58.667 -9.83301 105.834 -29.5 141.501s-49.5 53.5 -89.5 53.5c-56.667 0 -95.667 -24 -117 -72s-32 -112.333 -32 -193v-139c0 -82.667 10.667 -147.334 32 -194.001
s61 -70 119 -70zM596 1285h-291v241h291v-241z" />
    <glyph glyph-name="Ccaron" unicode="&#x10c;" horiz-adv-x="1088" 
d="M1023 469l3 -5.99902c1.33301 -160 -36.667 -280.667 -114 -362s-191.333 -122 -342 -122s-271 46.167 -361 138.5s-135 223.166 -135 392.499v435c0 168.667 43.5 299.5 130.5 392.5s203.5 139.5 349.5 139.5c154.667 0 271.5 -41.333 350.5 -124
s119.833 -205 122.5 -367l-3 -6h-274c4 95.333 -9 164 -39 206s-82.333 63 -157 63c-64 0 -113 -25 -147 -75s-51 -125.667 -51 -227v-437c0 -102.667 18.167 -179 54.5 -229s89.5 -75 159.5 -75c68.667 0 116.5 19.833 143.5 59.5s38.833 107.5 35.5 203.5h274zM558 1766
l88 127h256v-17l-248 -253h-192l-248 255v15h256z" />
    <glyph glyph-name="ccaron" unicode="&#x10d;" horiz-adv-x="910" 
d="M487 206c38.667 0 67.834 14.333 87.501 43s29.5 70 29.5 124h258l3 -6c2 -113.333 -32.833 -206.333 -104.5 -279s-162.834 -109 -273.501 -109c-140 0 -247.5 45.667 -322.5 137s-112.5 209.333 -112.5 354v139c0 144 37.333 262.167 112 354.5
s181.667 138.5 321 138.5c117.333 0 210.5 -37.667 279.5 -113s102.5 -177 100.5 -305l-2 -5h-259c0 58.667 -9.83301 105.834 -29.5 141.501s-49.5 53.5 -89.5 53.5c-56.667 0 -95.667 -24 -117 -72s-32 -112.333 -32 -193v-139c0 -82.667 10.667 -147.334 32 -194.001
s61 -70 119 -70zM454 1423l88 127h256v-17l-248 -253h-192l-248 255v15h256z" />
    <glyph glyph-name="Dcaron" unicode="&#x10e;" horiz-adv-x="1151" 
d="M110 0v1456h440c149.333 0 272.666 -56.5 369.999 -169.5s146 -258.5 146 -436.5v-245c0 -178 -48.667 -323.333 -146 -436s-220.666 -169 -369.999 -169h-440zM395 1228v-1001h139c79.333 0 140.5 34.5 183.5 103.5s64.5 160.5 64.5 274.5v247
c0 113.333 -21.5 204.333 -64.5 273s-104.167 103 -183.5 103h-139zM506 1745l88 127h256v-17l-248 -253h-192l-248 255v15h256z" />
    <glyph glyph-name="dcaron" unicode="&#x10f;" horiz-adv-x="1145" 
d="M54 535c0 170 31.333 307 94 411s151 156 265 156c42 0 80 -10 114 -30s64.333 -48.667 91 -86v574h284v-1560h-247l-19 118c-28 -45.333 -60.5 -79.833 -97.5 -103.5s-79.167 -35.5 -126.5 -35.5c-114 0 -202.167 48.833 -264.5 146.5s-93.5 227.167 -93.5 388.5v21z
M338 514c0 -96.667 11.168 -172 33.501 -226s60.166 -81 113.499 -81c29.333 0 55 6.83301 77 20.5s40.667 33.5 56 59.5v492c-15.333 30 -34 53.333 -56 70s-47 25 -75 25c-52.667 0 -90.667 -31 -114 -93s-35 -144 -35 -246v-21zM1189 1398l-119 -231h-114l53 240v152h180
v-161z" />
    <glyph glyph-name="Dcroat" unicode="&#x110;" horiz-adv-x="1181" 
d="M140 0v655h-109v175h109v626h440c149.333 0 272.666 -56.5 369.999 -169.5s146 -258.5 146 -436.5v-245c0 -178 -48.667 -323.333 -146 -436s-220.666 -169 -369.999 -169h-440zM612 655h-187v-428h139c79.333 0 140.5 34.5 183.5 103.5s64.5 160.5 64.5 274.5v247
c0 113.333 -21.5 204.333 -64.5 273s-104.167 103 -183.5 103h-139v-398h187v-175z" />
    <glyph glyph-name="dcroat" unicode="&#x111;" horiz-adv-x="1025" 
d="M1014 1223h-112v-1223h-247l-19 118c-28 -45.333 -60.5 -79.833 -97.5 -103.5s-79.167 -35.5 -126.5 -35.5c-114 0 -202.167 48.833 -264.5 146.5s-93.5 227.167 -93.5 388.5v21c0 170 31.333 307 94 411s151 156 265 156c42 0 80 -10 114 -30s64.333 -48.667 91 -86v237
h-185v175h185v162h284v-162h112v-175zM338 514c0 -96.667 11.168 -172 33.501 -226s60.166 -81 113.499 -81c29.333 0 55 6.83301 77 20.5s40.667 33.5 56 59.5v492c-15.333 30 -34 53.333 -56 70s-47 25 -75 25c-52.667 0 -90.667 -31 -114 -93s-35 -144 -35 -246v-21z" />
    <glyph glyph-name="Emacron" unicode="&#x112;" horiz-adv-x="1008" 
d="M884 639h-489v-412h575v-227h-860v1456h858v-228h-573v-362h489v-227zM842 1617h-654v160h654v-160z" />
    <glyph glyph-name="emacron" unicode="&#x113;" horiz-adv-x="938" 
d="M513 -21c-136 0 -243.998 44.667 -323.998 134s-120 202 -120 338v152c0 146 37.167 265.667 111.5 359s177.166 140 308.499 140c126.667 0 224.667 -42.333 294 -127s104 -200 104 -346v-174h-535v-4c0 -71.333 16.167 -130 48.5 -176s81.166 -69 146.499 -69
c53.333 0 96.666 6 129.999 18s73 32 119 60l72 -181c-37.333 -36 -87.166 -65.667 -149.499 -89s-130.833 -35 -205.5 -35zM489.002 874c-45.333 0 -78.667 -20.667 -100 -62s-33.333 -97 -36 -167h255v40c0 60 -9.33301 106.5 -28 139.5s-49 49.5 -91 49.5zM796.001 1297
h-654v160h654v-160z" />
    <glyph glyph-name="Ebreve" unicode="&#x114;" horiz-adv-x="1008" 
d="M884 639h-489v-412h575v-227h-860v1456h858v-228h-573v-362h489v-227zM824 1897l1.99902 -6c2.66699 -86 -24.5 -155.833 -81.5 -209.5s-133.5 -80.5 -229.5 -80.5c-97.333 0 -174.666 27 -231.999 81s-84.333 123.667 -81 209l2 6h207c0 -35.333 8.5 -64.333 25.5 -87
s43.167 -34 78.5 -34c34 0 59.167 11.333 75.5 34s24.5 51.667 24.5 87h209z" />
    <glyph glyph-name="ebreve" unicode="&#x115;" horiz-adv-x="938" 
d="M513 -21c-136 0 -243.998 44.667 -323.998 134s-120 202 -120 338v152c0 146 37.167 265.667 111.5 359s177.166 140 308.499 140c126.667 0 224.667 -42.333 294 -127s104 -200 104 -346v-174h-535v-4c0 -71.333 16.167 -130 48.5 -176s81.166 -69 146.499 -69
c53.333 0 96.666 6 129.999 18s73 32 119 60l72 -181c-37.333 -36 -87.166 -65.667 -149.499 -89s-130.833 -35 -205.5 -35zM489.002 874c-45.333 0 -78.667 -20.667 -100 -62s-33.333 -97 -36 -167h255v40c0 60 -9.33301 106.5 -28 139.5s-49 49.5 -91 49.5zM776.001 1576
l1.99902 -6c2.66699 -86 -24.5 -155.833 -81.5 -209.5s-133.5 -80.5 -229.5 -80.5c-97.333 0 -174.666 27 -231.999 81s-84.333 123.667 -81 209l2 6h207c0 -35.333 8.5 -64.333 25.5 -87s43.167 -34 78.5 -34c34 0 59.167 11.333 75.5 34s24.5 51.667 24.5 87h209z" />
    <glyph glyph-name="Edotaccent" unicode="&#x116;" horiz-adv-x="1008" 
d="M884 639h-489v-412h575v-227h-860v1456h858v-228h-573v-362h489v-227zM655 1607h-291v241h291v-241z" />
    <glyph glyph-name="edotaccent" unicode="&#x117;" horiz-adv-x="938" 
d="M513 -21c-136 0 -243.998 44.667 -323.998 134s-120 202 -120 338v152c0 146 37.167 265.667 111.5 359s177.166 140 308.499 140c126.667 0 224.667 -42.333 294 -127s104 -200 104 -346v-174h-535v-4c0 -71.333 16.167 -130 48.5 -176s81.166 -69 146.499 -69
c53.333 0 96.666 6 129.999 18s73 32 119 60l72 -181c-37.333 -36 -87.166 -65.667 -149.499 -89s-130.833 -35 -205.5 -35zM489.002 874c-45.333 0 -78.667 -20.667 -100 -62s-33.333 -97 -36 -167h255v40c0 60 -9.33301 106.5 -28 139.5s-49 49.5 -91 49.5zM607.001 1286
h-291v241h291v-241z" />
    <glyph glyph-name="Eogonek" unicode="&#x118;" horiz-adv-x="1008" 
d="M884 639h-489v-412h575v-227h-860v1456h858v-228h-573v-362h489v-227zM595 0c-26.667 -35.333 -46 -65 -58 -89s-18 -52.333 -18 -85c0 -15.333 4.33301 -30.166 13 -44.499s27.667 -21.5 57 -21.5c15.333 0 28.666 1.83301 39.999 5.5s23.666 8.5 36.999 14.5l32 -151
c-20.667 -12 -44.167 -22.333 -70.5 -31s-57.166 -13 -92.499 -13c-65.333 0 -119.166 18.167 -161.499 54.5s-63.5 87.166 -63.5 152.499c0 50.667 12.5 98.667 37.5 144s64.5 85.333 118.5 120z" />
    <glyph glyph-name="eogonek" unicode="&#x119;" horiz-adv-x="938" 
d="M513 -21c-136 0 -243.998 44.667 -323.998 134s-120 202 -120 338v152c0 146 37.167 265.667 111.5 359s177.166 140 308.499 140c126.667 0 224.667 -42.333 294 -127s104 -200 104 -346v-174h-535v-4c0 -71.333 16.167 -130 48.5 -176s81.166 -69 146.499 -69
c53.333 0 96.666 6 129.999 18s73 32 119 60l72 -181c-37.333 -36 -87.166 -65.667 -149.499 -89s-130.833 -35 -205.5 -35zM489.002 874c-45.333 0 -78.667 -20.667 -100 -62s-33.333 -97 -36 -167h255v40c0 60 -9.33301 106.5 -28 139.5s-49 49.5 -91 49.5zM754.001 40
c-26.667 -35.333 -46 -65 -58 -89s-18 -52.333 -18 -85c0 -15.333 4.33301 -30.166 13 -44.499s27.667 -21.5 57 -21.5c15.333 0 28.666 1.83301 39.999 5.5s23.666 8.5 36.999 14.5l32 -151c-20.667 -12 -44.167 -22.333 -70.5 -31s-57.166 -13 -92.499 -13
c-65.333 0 -119.166 18.167 -161.499 54.5s-63.5 87.166 -63.5 152.499c0 50.667 12.5 98.667 37.5 144s64.5 85.333 118.5 120z" />
    <glyph glyph-name="Ecaron" unicode="&#x11a;" horiz-adv-x="1008" 
d="M884 639h-489v-412h575v-227h-860v1456h858v-228h-573v-362h489v-227zM513 1745l88 127h256v-17l-248 -253h-192l-248 255v15h256z" />
    <glyph glyph-name="ecaron" unicode="&#x11b;" horiz-adv-x="938" 
d="M513 -21c-136 0 -243.998 44.667 -323.998 134s-120 202 -120 338v152c0 146 37.167 265.667 111.5 359s177.166 140 308.499 140c126.667 0 224.667 -42.333 294 -127s104 -200 104 -346v-174h-535v-4c0 -71.333 16.167 -130 48.5 -176s81.166 -69 146.499 -69
c53.333 0 96.666 6 129.999 18s73 32 119 60l72 -181c-37.333 -36 -87.166 -65.667 -149.499 -89s-130.833 -35 -205.5 -35zM489.002 874c-45.333 0 -78.667 -20.667 -100 -62s-33.333 -97 -36 -167h255v40c0 60 -9.33301 106.5 -28 139.5s-49 49.5 -91 49.5zM465.001 1424
l88 127h256v-17l-248 -253h-192l-248 255v15h256z" />
    <glyph glyph-name="Gcircumflex" unicode="&#x11c;" horiz-adv-x="1179" 
d="M1074 216c-39.333 -62.667 -98.333 -117.833 -177 -165.5s-178.334 -71.5 -299.001 -71.5c-156 0 -281.167 45.667 -375.5 137s-141.5 221.333 -141.5 390v444c0 167.333 45.5 297 136.5 389s211.5 138 361.5 138c161.333 0 282.333 -39.5 363 -118.5
s122.667 -192.167 126 -339.5l-2 -6h-267c-2 82 -20.167 141.833 -54.5 179.5s-86.833 56.5 -157.5 56.5c-69.333 0 -123.666 -24.5 -162.999 -73.5s-59 -123.5 -59 -223.5v-446c0 -102 19.833 -177.5 59.5 -226.5s97.5 -73.5 173.5 -73.5c56.667 0 98.5 7.66699 125.5 23
s49.167 38 66.5 68v261h-192v200h476v-542zM911 1634v-22h-222l-114 134l-112 -134h-217v25l250 237h159z" />
    <glyph glyph-name="gcircumflex" unicode="&#x11d;" horiz-adv-x="994" 
d="M54 591c0 152.667 31.5 276 94.5 370s151.833 141 266.5 141c48 0 90.333 -12.167 127 -36.5s68.667 -59.166 96 -104.499l18 121h247v-1061c0 -142 -41.167 -253.833 -123.5 -335.5s-195.166 -122.5 -338.499 -122.5c-46.667 0 -96.334 7.5 -149.001 22.5
s-101.667 35.167 -147 60.5l50 219c38 -21.333 76.667 -37.333 116 -48s82 -16 128 -16c60 0 105 18.833 135 56.5s45 92.5 45 164.5v62c-26.667 -34.667 -57 -60.834 -91 -78.501s-72.333 -26.5 -115 -26.5c-114 0 -202.333 43.833 -265 131.5s-94 203.5 -94 347.5v133z
M338 458c0 -78.667 11.334 -140.168 34.001 -184.501s60.667 -66.5 114 -66.5c29.333 0 55.166 6 77.499 18s40.833 29.667 55.5 53v512c-14.667 26.667 -32.834 47.334 -54.501 62.001s-47.167 22 -76.5 22c-53.333 0 -91.666 -25.833 -114.999 -77.5
s-35 -120.167 -35 -205.5v-133zM811.001 1291v-22h-222l-114 134l-112 -134h-217v25l250 237h159z" />
    <glyph glyph-name="Gbreve" unicode="&#x11e;" horiz-adv-x="1179" 
d="M1074 216c-39.333 -62.667 -98.333 -117.833 -177 -165.5s-178.334 -71.5 -299.001 -71.5c-156 0 -281.167 45.667 -375.5 137s-141.5 221.333 -141.5 390v444c0 167.333 45.5 297 136.5 389s211.5 138 361.5 138c161.333 0 282.333 -39.5 363 -118.5
s122.667 -192.167 126 -339.5l-2 -6h-267c-2 82 -20.167 141.833 -54.5 179.5s-86.833 56.5 -157.5 56.5c-69.333 0 -123.666 -24.5 -162.999 -73.5s-59 -123.5 -59 -223.5v-446c0 -102 19.833 -177.5 59.5 -226.5s97.5 -73.5 173.5 -73.5c56.667 0 98.5 7.66699 125.5 23
s49.167 38 66.5 68v261h-192v200h476v-542zM886 1918l1.99902 -6c2.66699 -86 -24.5 -155.833 -81.5 -209.5s-133.5 -80.5 -229.5 -80.5c-97.333 0 -174.666 27 -231.999 81s-84.333 123.667 -81 209l2 6h207c0 -35.333 8.5 -64.333 25.5 -87s43.167 -34 78.5 -34
c34 0 59.167 11.333 75.5 34s24.5 51.667 24.5 87h209z" />
    <glyph glyph-name="gbreve" unicode="&#x11f;" horiz-adv-x="994" 
d="M54 591c0 152.667 31.5 276 94.5 370s151.833 141 266.5 141c48 0 90.333 -12.167 127 -36.5s68.667 -59.166 96 -104.499l18 121h247v-1061c0 -142 -41.167 -253.833 -123.5 -335.5s-195.166 -122.5 -338.499 -122.5c-46.667 0 -96.334 7.5 -149.001 22.5
s-101.667 35.167 -147 60.5l50 219c38 -21.333 76.667 -37.333 116 -48s82 -16 128 -16c60 0 105 18.833 135 56.5s45 92.5 45 164.5v62c-26.667 -34.667 -57 -60.834 -91 -78.501s-72.333 -26.5 -115 -26.5c-114 0 -202.333 43.833 -265 131.5s-94 203.5 -94 347.5v133z
M338 458c0 -78.667 11.334 -140.168 34.001 -184.501s60.667 -66.5 114 -66.5c29.333 0 55.166 6 77.499 18s40.833 29.667 55.5 53v512c-14.667 26.667 -32.834 47.334 -54.501 62.001s-47.167 22 -76.5 22c-53.333 0 -91.666 -25.833 -114.999 -77.5
s-35 -120.167 -35 -205.5v-133zM786.001 1575l1.99902 -6c2.66699 -86 -24.5 -155.833 -81.5 -209.5s-133.5 -80.5 -229.5 -80.5c-97.333 0 -174.666 27 -231.999 81s-84.333 123.667 -81 209l2 6h207c0 -35.333 8.5 -64.333 25.5 -87s43.167 -34 78.5 -34
c34 0 59.167 11.333 75.5 34s24.5 51.667 24.5 87h209z" />
    <glyph glyph-name="uni0120" unicode="&#x120;" horiz-adv-x="1179" 
d="M1074 216c-39.333 -62.667 -98.333 -117.833 -177 -165.5s-178.334 -71.5 -299.001 -71.5c-156 0 -281.167 45.667 -375.5 137s-141.5 221.333 -141.5 390v444c0 167.333 45.5 297 136.5 389s211.5 138 361.5 138c161.333 0 282.333 -39.5 363 -118.5
s122.667 -192.167 126 -339.5l-2 -6h-267c-2 82 -20.167 141.833 -54.5 179.5s-86.833 56.5 -157.5 56.5c-69.333 0 -123.666 -24.5 -162.999 -73.5s-59 -123.5 -59 -223.5v-446c0 -102 19.833 -177.5 59.5 -226.5s97.5 -73.5 173.5 -73.5c56.667 0 98.5 7.66699 125.5 23
s49.167 38 66.5 68v261h-192v200h476v-542zM717 1628h-291v241h291v-241z" />
    <glyph glyph-name="uni0121" unicode="&#x121;" horiz-adv-x="994" 
d="M54 591c0 152.667 31.5 276 94.5 370s151.833 141 266.5 141c48 0 90.333 -12.167 127 -36.5s68.667 -59.166 96 -104.499l18 121h247v-1061c0 -142 -41.167 -253.833 -123.5 -335.5s-195.166 -122.5 -338.499 -122.5c-46.667 0 -96.334 7.5 -149.001 22.5
s-101.667 35.167 -147 60.5l50 219c38 -21.333 76.667 -37.333 116 -48s82 -16 128 -16c60 0 105 18.833 135 56.5s45 92.5 45 164.5v62c-26.667 -34.667 -57 -60.834 -91 -78.501s-72.333 -26.5 -115 -26.5c-114 0 -202.333 43.833 -265 131.5s-94 203.5 -94 347.5v133z
M338 458c0 -78.667 11.334 -140.168 34.001 -184.501s60.667 -66.5 114 -66.5c29.333 0 55.166 6 77.499 18s40.833 29.667 55.5 53v512c-14.667 26.667 -32.834 47.334 -54.501 62.001s-47.167 22 -76.5 22c-53.333 0 -91.666 -25.833 -114.999 -77.5
s-35 -120.167 -35 -205.5v-133zM617.001 1285h-291v241h291v-241z" />
    <glyph glyph-name="Gcommaaccent" unicode="&#x122;" horiz-adv-x="1179" 
d="M1074 216c-39.333 -62.667 -98.333 -117.833 -177 -165.5s-178.334 -71.5 -299.001 -71.5c-156 0 -281.167 45.667 -375.5 137s-141.5 221.333 -141.5 390v444c0 167.333 45.5 297 136.5 389s211.5 138 361.5 138c161.333 0 282.333 -39.5 363 -118.5
s122.667 -192.167 126 -339.5l-2 -6h-267c-2 82 -20.167 141.833 -54.5 179.5s-86.833 56.5 -157.5 56.5c-69.333 0 -123.666 -24.5 -162.999 -73.5s-59 -123.5 -59 -223.5v-446c0 -102 19.833 -177.5 59.5 -226.5s97.5 -73.5 173.5 -73.5c56.667 0 98.5 7.66699 125.5 23
s49.167 38 66.5 68v261h-192v200h476v-542zM676 -257.999l-119 -231h-114l53 240v152h180v-161z" />
    <glyph glyph-name="gcommaaccent" unicode="&#x123;" horiz-adv-x="994" 
d="M54 591c0 152.667 31.5 276 94.5 370s151.833 141 266.5 141c48 0 90.333 -12.167 127 -36.5s68.667 -59.166 96 -104.499l18 121h247v-1061c0 -142 -41.167 -253.833 -123.5 -335.5s-195.166 -122.5 -338.499 -122.5c-46.667 0 -96.334 7.5 -149.001 22.5
s-101.667 35.167 -147 60.5l50 219c38 -21.333 76.667 -37.333 116 -48s82 -16 128 -16c60 0 105 18.833 135 56.5s45 92.5 45 164.5v62c-26.667 -34.667 -57 -60.834 -91 -78.501s-72.333 -26.5 -115 -26.5c-114 0 -202.333 43.833 -265 131.5s-94 203.5 -94 347.5v133z
M338 458c0 -78.667 11.334 -140.168 34.001 -184.501s60.667 -66.5 114 -66.5c29.333 0 55.166 6 77.499 18s40.833 29.667 55.5 53v512c-14.667 26.667 -32.834 47.334 -54.501 62.001s-47.167 22 -76.5 22c-53.333 0 -91.666 -25.833 -114.999 -77.5
s-35 -120.167 -35 -205.5v-133zM358.001 1438l101 257h155l-30 -265v-170h-226v178z" />
    <glyph glyph-name="Hcircumflex" unicode="&#x124;" horiz-adv-x="1241" 
d="M1131 0h-284v603h-452v-603h-285v1456h285v-626h452v626h284v-1456zM955 1613v-22h-222l-114 134l-112 -134h-217v25l250 237h159z" />
    <glyph glyph-name="hcircumflex" unicode="&#x125;" 
d="M368 953c28 47.333 61.6699 84 101.003 110s82.666 39 129.999 39c96 0 171.333 -38.167 226 -114.5s82 -194.166 82 -353.499v-634h-285v636c0 89.333 -10.5 151.333 -31.5 186s-53.833 52 -98.5 52c-26.667 0 -50.334 -5.83301 -71.001 -17.5
s-38.334 -27.834 -53.001 -48.501v-808h-284v1560h284v-607zM787.003 1615v-22h-222l-114 134l-112 -134h-217v25l250 237h159z" />
    <glyph glyph-name="Hbar" unicode="&#x126;" horiz-adv-x="1245" 
d="M1135 1196h100v-167h-100v-1029h-284v603h-452v-603h-285v1029h-94v167h94v260h285v-260h452v260h284v-260zM399 830h452v199h-452v-199z" />
    <glyph glyph-name="hbar" unicode="&#x127;" horiz-adv-x="1025" 
d="M580 1220h-181.997v-267c28 47.333 61.667 84 101 110s82.666 39 129.999 39c96 0 171.333 -38.167 226 -114.5s82 -194.166 82 -353.499v-634h-285v636c0 89.333 -10.5 151.333 -31.5 186s-53.833 52 -98.5 52c-26.667 0 -50.334 -5.83301 -71.001 -17.5
s-38.334 -27.834 -53.001 -48.501v-808h-284v1220h-115v175h115v165h284v-165h182v-175z" />
    <glyph glyph-name="Itilde" unicode="&#x128;" horiz-adv-x="534" 
d="M408 0h-283v1456h283v-1456zM597 1854c0 -63.333 -17.001 -117.167 -51.001 -161.5s-77.333 -66.5 -130 -66.5c-39.333 0 -84.833 14.667 -136.5 44s-92.167 44 -121.5 44c-18 0 -33.333 -11 -46 -33s-19 -48.333 -19 -79l-149 43c0 62 17.167 115.667 51.5 161
s77.5 68 129.5 68c30.667 0 73.834 -14.667 129.501 -44s98.5 -44 128.5 -44c18 0 33.5 10.833 46.5 32.5s19.5 48.5 19.5 80.5z" />
    <glyph glyph-name="itilde" unicode="&#x129;" horiz-adv-x="513" 
d="M398 0h-285v1082h285v-1082zM585 1511c0 -63.333 -17.001 -117.167 -51.001 -161.5s-77.333 -66.5 -130 -66.5c-39.333 0 -84.833 14.667 -136.5 44s-92.167 44 -121.5 44c-18 0 -33.333 -11 -46 -33s-19 -48.333 -19 -79l-149 43c0 62 17.167 115.667 51.5 161
s77.5 68 129.5 68c30.667 0 73.834 -14.667 129.501 -44s98.5 -44 128.5 -44c18 0 33.5 10.833 46.5 32.5s19.5 48.5 19.5 80.5z" />
    <glyph glyph-name="Imacron" unicode="&#x12a;" horiz-adv-x="534" 
d="M408 0h-283v1456h283v-1456zM598 1617h-654v160h654v-160z" />
    <glyph glyph-name="imacron" unicode="&#x12b;" horiz-adv-x="513" 
d="M398 0h-285v1082h285v-1082zM586 1276h-654v160h654v-160z" />
    <glyph glyph-name="Ibreve" unicode="&#x12c;" horiz-adv-x="534" 
d="M408 0h-283v1456h283v-1456zM580 1897l1.99902 -6c2.66699 -86 -24.5 -155.833 -81.5 -209.5s-133.5 -80.5 -229.5 -80.5c-97.333 0 -174.666 27 -231.999 81s-84.333 123.667 -81 209l2 6h207c0 -35.333 8.5 -64.333 25.5 -87s43.167 -34 78.5 -34
c34 0 59.167 11.333 75.5 34s24.5 51.667 24.5 87h209z" />
    <glyph glyph-name="ibreve" unicode="&#x12d;" horiz-adv-x="513" 
d="M398 0h-285v1082h285v-1082zM568 1554l1.99902 -6c2.66699 -86 -24.5 -155.833 -81.5 -209.5s-133.5 -80.5 -229.5 -80.5c-97.333 0 -174.666 27 -231.999 81s-84.333 123.667 -81 209l2 6h207c0 -35.333 8.5 -64.333 25.5 -87s43.167 -34 78.5 -34
c34 0 59.167 11.333 75.5 34s24.5 51.667 24.5 87h209z" />
    <glyph glyph-name="Iogonek" unicode="&#x12e;" horiz-adv-x="534" 
d="M408 0h-283v1456h283v-1456zM322 0c-26.667 -35.333 -46 -65 -58 -89s-18 -52.333 -18 -85c0 -15.333 4.33301 -30.166 13 -44.499s27.667 -21.5 57 -21.5c15.333 0 28.666 1.83301 39.999 5.5s23.666 8.5 36.999 14.5l32 -151c-20.667 -12 -44.167 -22.333 -70.5 -31
s-57.166 -13 -92.499 -13c-65.333 0 -119.166 18.167 -161.499 54.5s-63.5 87.166 -63.5 152.499c0 50.667 12.5 98.667 37.5 144s64.5 85.333 118.5 120z" />
    <glyph glyph-name="iogonek" unicode="&#x12f;" horiz-adv-x="495" 
d="M389 0h-284v1082h284v-1082zM389 1343h-284v217h284v-217zM303 0c-26.667 -35.333 -46 -65 -58 -89s-18 -52.333 -18 -85c0 -15.333 4.33301 -30.166 13 -44.499s27.667 -21.5 57 -21.5c15.333 0 28.666 1.83301 39.999 5.5s23.666 8.5 36.999 14.5l32 -151
c-20.667 -12 -44.167 -22.333 -70.5 -31s-57.166 -13 -92.499 -13c-65.333 0 -119.166 18.167 -161.499 54.5s-63.5 87.166 -63.5 152.499c0 50.667 12.5 98.667 37.5 144s64.5 85.333 118.5 120z" />
    <glyph glyph-name="Idotaccent" unicode="&#x130;" horiz-adv-x="534" 
d="M408 0h-283v1456h283v-1456zM411 1607h-291v241h291v-241z" />
    <glyph glyph-name="dotlessi" unicode="&#x131;" horiz-adv-x="513" 
d="M398 0h-285v1082h285v-1082z" />
    <glyph glyph-name="IJ" unicode="&#x132;" horiz-adv-x="1549" 
d="M408 0h-283v1456h283v-1456zM1157 1456l282.999 0.000976562v-1012c0 -142.667 -40.167 -255.834 -120.5 -339.501s-181.5 -125.5 -303.5 -125.5c-132 0 -236.5 37.333 -313.5 112s-114.167 184.667 -111.5 330l3 6h277c0 -76.667 13.5 -132.667 40.5 -168
s61.833 -53 104.5 -53c38.667 0 71.834 21 99.501 63s41.5 100.333 41.5 175v1012z" />
    <glyph glyph-name="ij" unicode="&#x133;" horiz-adv-x="982" 
d="M389 0h-284v1082h284v-1082zM389 1343h-284v217h284v-217zM890 1082l-0.00195312 -1115c0 -129.333 -30 -229 -90 -299s-143.333 -105 -250 -105c-23.333 0 -44.666 1.5 -63.999 4.5s-40.666 7.5 -63.999 13.5l12 223c14.667 -4 28 -7 40 -9s25.333 -3 40 -3
c29.333 0 51.833 14.667 67.5 44s23.5 73 23.5 131v1115h285zM883.998 1343h-284v217h284v-217z" />
    <glyph glyph-name="Jcircumflex" unicode="&#x134;" horiz-adv-x="1015" 
d="M623 1456l282.999 0.000976562v-1012c0 -142.667 -40.167 -255.834 -120.5 -339.501s-181.5 -125.5 -303.5 -125.5c-132 0 -236.5 37.333 -313.5 112s-114.167 184.667 -111.5 330l3 6h277c0 -76.667 13.5 -132.667 40.5 -168s61.833 -53 104.5 -53
c38.667 0 71.834 21 99.501 63s41.5 100.333 41.5 175v1012zM1083 1608v-22h-222l-114 134l-112 -134h-217v25l250 237h159z" />
    <glyph glyph-name="jcircumflex" unicode="&#x135;" horiz-adv-x="528" 
d="M411 1082l-0.00292969 -1115c0 -129.333 -30 -229 -90 -299s-143.333 -105 -250 -105c-23.333 0 -44.666 1.5 -63.999 4.5s-40.666 7.5 -63.999 13.5l13 222c14 -4 27 -7 39 -9s26 -3 42 -3c28.667 0 50.834 15.167 66.501 45.5s23.5 73.833 23.5 130.5v1115h284z
M584.997 1267v-22h-222l-114 134l-112 -134h-217v25l250 237h159z" />
    <glyph glyph-name="Kcommaaccent" unicode="&#x136;" horiz-adv-x="1137" 
d="M519 605h-124v-605h-285v1456h285v-592h92l284 592h349l-397 -665l430 -791h-346zM642 -258l-119 -231h-114l53 240v152h180v-161z" />
    <glyph glyph-name="kcommaaccent" unicode="&#x137;" horiz-adv-x="963" 
d="M428 450h-52v-450h-284v1560h284v-886h47l183 408h327l-282 -487l329 -595h-325zM578 -258l-119 -231h-114l53 240v152h180v-161z" />
    <glyph glyph-name="kgreenlandic" unicode="&#x138;" horiz-adv-x="1062" 
d="M481 402h-88v-402h-284v1082h284v-409h66l199 409h361l-311 -493l2 1l315 -590h-364z" />
    <glyph glyph-name="Lacute" unicode="&#x139;" horiz-adv-x="959" 
d="M395 227h532v-227h-817v1456h285v-1229zM286 1810h299l3 -6l-249 -260h-229z" />
    <glyph glyph-name="lacute" unicode="&#x13a;" horiz-adv-x="495" 
d="M389 0h-284v1560h284v-1560zM278 1890h299l3 -6l-249 -260h-229z" />
    <glyph glyph-name="Lcommaaccent" unicode="&#x13b;" horiz-adv-x="959" 
d="M395 227h532v-227h-817v1456h285v-1229zM601 -258l-119 -231h-114l53 240v152h180v-161z" />
    <glyph glyph-name="lcommaaccent" unicode="&#x13c;" horiz-adv-x="495" 
d="M389 0h-284v1560h284v-1560zM331 -258l-119 -231h-114l53 240v152h180v-161z" />
    <glyph glyph-name="Lcaron" unicode="&#x13d;" horiz-adv-x="959" 
d="M395 227h532v-227h-817v1456h285v-1229zM771 1298l-119 -231h-114l53 240v152h180v-161z" />
    <glyph glyph-name="lcaron" unicode="&#x13e;" horiz-adv-x="645" 
d="M389 0h-284v1560h284v-1560zM688 1398l-119 -231h-114l53 240v152h180v-161z" />
    <glyph glyph-name="Ldot" unicode="&#x13f;" horiz-adv-x="959" 
d="M395 227h532v-227h-817v1456h285v-1229zM780 680h-291v241h291v-241z" />
    <glyph glyph-name="ldot" unicode="&#x140;" horiz-adv-x="715" 
d="M389 0h-284v1560h284v-1560zM750 628h-291v241h291v-241z" />
    <glyph glyph-name="Lslash" unicode="&#x141;" horiz-adv-x="889" 
d="M386 892l194 64v-191l-194 -64v-474h532v-227h-817v606l-87 -28v191l87 28v659h285v-564z" />
    <glyph glyph-name="lslash" unicode="&#x142;" horiz-adv-x="532" 
d="M404 915l113 43v-191l-113 -43v-724h-284v618l-102 -38v191l102 38v751h284v-645z" />
    <glyph glyph-name="Nacute" unicode="&#x143;" horiz-adv-x="1241" 
d="M1129 0h-283l-445 931l-6 -2v-929h-285v1456h285l445 -930l6 2v928h283v-1456zM651 1826h299l3 -6l-249 -260h-229z" />
    <glyph glyph-name="nacute" unicode="&#x144;" 
d="M352 1082l11.998 -149.001c30 53.333 66.833 94.833 110.5 124.5s91.834 44.5 144.501 44.5c90 0 160.833 -34.667 212.5 -104s77.5 -178.333 77.5 -327v-671h-285v671c0 74.667 -10.5 127.167 -31.5 157.5s-53.5 45.5 -97.5 45.5
c-25.333 0 -48.666 -6.66699 -69.999 -20s-39.333 -31.666 -54 -54.999v-799h-284v1082h265zM526.998 1504h299l3 -6l-249 -260h-229z" />
    <glyph glyph-name="Ncommaaccent" unicode="&#x145;" horiz-adv-x="1241" 
d="M1129 0h-283l-445 931l-6 -2v-929h-285v1456h285l445 -930l6 2v928h283v-1456zM704 -258l-119 -231h-114l53 240v152h180v-161z" />
    <glyph glyph-name="ncommaaccent" unicode="&#x146;" 
d="M352 1082l11.998 -149.001c30 53.333 66.833 94.833 110.5 124.5s91.834 44.5 144.501 44.5c90 0 160.833 -34.667 212.5 -104s77.5 -178.333 77.5 -327v-671h-285v671c0 74.667 -10.5 127.167 -31.5 157.5s-53.5 45.5 -97.5 45.5
c-25.333 0 -48.666 -6.66699 -69.999 -20s-39.333 -31.666 -54 -54.999v-799h-284v1082h265zM579.998 -258.001l-119 -231h-114l53 240v152h180v-161z" />
    <glyph glyph-name="Ncaron" unicode="&#x147;" horiz-adv-x="1241" 
d="M1129 0h-283l-445 931l-6 -2v-929h-285v1456h285l445 -930l6 2v928h283v-1456zM619 1745l88 127h256v-17l-248 -253h-192l-248 255v15h256z" />
    <glyph glyph-name="ncaron" unicode="&#x148;" 
d="M352 1082l11.998 -149.001c30 53.333 66.833 94.833 110.5 124.5s91.834 44.5 144.501 44.5c90 0 160.833 -34.667 212.5 -104s77.5 -178.333 77.5 -327v-671h-285v671c0 74.667 -10.5 127.167 -31.5 157.5s-53.5 45.5 -97.5 45.5
c-25.333 0 -48.666 -6.66699 -69.999 -20s-39.333 -31.666 -54 -54.999v-799h-284v1082h265zM494.998 1423l88 127h256v-17l-248 -253h-192l-248 255v15h256z" />
    <glyph glyph-name="napostrophe" unicode="&#x149;" 
d="M352 1082l11.998 -149.001c30 53.333 66.833 94.833 110.5 124.5s91.834 44.5 144.501 44.5c90 0 160.833 -34.667 212.5 -104s77.5 -178.333 77.5 -327v-671h-285v671c0 74.667 -10.5 127.167 -31.5 157.5s-53.5 45.5 -97.5 45.5
c-25.333 0 -48.666 -6.66699 -69.999 -20s-39.333 -31.666 -54 -54.999v-799h-284v1082h265zM217.998 1397l-119 -231h-114l53 240v152h180v-161z" />
    <glyph glyph-name="Eng" unicode="&#x14a;" horiz-adv-x="1234" 
d="M1127 1456l-0.000976562 -1489c0 -129.333 -30 -229 -90 -299s-143.333 -105 -250 -105c-23.333 0 -45.333 1.5 -66 4.5s-42.334 7.5 -65.001 13.5l12 222c14.667 -4 28.334 -7 41.001 -9s27.334 -3 44.001 -3c28.667 0 51 15.167 67 45.5s24 73.833 24 130.5v33
l-445 917l-6 -1v-916h-285v1456h285l445 -918l6 1v917h283z" />
    <glyph glyph-name="eng" unicode="&#x14b;" 
d="M352 1082l12.002 -147c30 52.667 66.667 93.667 110 123s91.333 44 144 44c90 0 160.833 -35.833 212.5 -107.5s77.5 -184.5 77.5 -338.5v-689c0 -129.333 -30 -229 -90 -299s-143.333 -105 -250 -105c-23.333 0 -45 1.5 -65 4.5s-41.333 7.5 -64 13.5l12 224
c15.333 -4 29.166 -7.16699 41.499 -9.5s26.166 -3.5 41.499 -3.5c28.667 0 50.667 15 66 45s23 73.333 23 130v689c0 80 -9.33301 136.333 -28 169s-47 49 -85 49c-29.333 0 -55.5 -6.66699 -78.5 -20s-42.833 -32.333 -59.5 -57v-797h-285v1082h265z" />
    <glyph glyph-name="Omacron" unicode="&#x14c;" horiz-adv-x="1166" 
d="M1091 523c0 -170.667 -46.332 -304 -138.999 -400s-216 -144 -370 -144s-277 48 -369 144s-138 229.333 -138 400v408c0 170 46 303.5 138 400.5s214.667 145.5 368 145.5s276.666 -48.5 369.999 -145.5s140 -230.5 140 -400.5v-408zM808.001 933
c0 104 -19.333 182.501 -58 235.501s-95 79.5 -169 79.5c-74.667 0 -130.667 -26.333 -168 -79s-56 -131.334 -56 -236.001v-410c0 -105.333 19 -184.333 57 -237s94 -79 168 -79c73.333 0 129.333 26.333 168 79s58 131.667 58 237v410zM912.001 1638h-654v160h654v-160z
" />
    <glyph glyph-name="omacron" unicode="&#x14d;" 
d="M58 607c0 145.333 38.5 264.166 115.5 356.499s184.833 138.5 323.5 138.5s246.667 -46.167 324 -138.5s116 -211.166 116 -356.499v-134c0 -146.667 -38.667 -265.667 -116 -357s-185 -137 -323 -137c-139.333 0 -247.5 45.667 -324.5 137s-115.5 210.333 -115.5 357
v134zM341 473c0 -83.333 11.6689 -148.666 35.002 -195.999s64 -71 122 -71c56 0 95.833 23.833 119.5 71.5s35.5 112.834 35.5 195.501v134c0 81.333 -11.833 146.166 -35.5 194.499s-63.834 72.5 -120.501 72.5s-96.834 -24.333 -120.501 -73
s-35.5 -113.334 -35.5 -194.001v-134zM824.002 1297h-654v160h654v-160z" />
    <glyph glyph-name="Obreve" unicode="&#x14e;" horiz-adv-x="1166" 
d="M1091 523c0 -170.667 -46.332 -304 -138.999 -400s-216 -144 -370 -144s-277 48 -369 144s-138 229.333 -138 400v408c0 170 46 303.5 138 400.5s214.667 145.5 368 145.5s276.666 -48.5 369.999 -145.5s140 -230.5 140 -400.5v-408zM808.001 933
c0 104 -19.333 182.501 -58 235.501s-95 79.5 -169 79.5c-74.667 0 -130.667 -26.333 -168 -79s-56 -131.334 -56 -236.001v-410c0 -105.333 19 -184.333 57 -237s94 -79 168 -79c73.333 0 129.333 26.333 168 79s58 131.667 58 237v410zM894.001 1918l1.99902 -6
c2.66699 -86 -24.5 -155.833 -81.5 -209.5s-133.5 -80.5 -229.5 -80.5c-97.333 0 -174.666 27 -231.999 81s-84.333 123.667 -81 209l2 6h207c0 -35.333 8.5 -64.333 25.5 -87s43.167 -34 78.5 -34c34 0 59.167 11.333 75.5 34s24.5 51.667 24.5 87h209z" />
    <glyph glyph-name="obreve" unicode="&#x14f;" 
d="M58 607c0 145.333 38.5 264.166 115.5 356.499s184.833 138.5 323.5 138.5s246.667 -46.167 324 -138.5s116 -211.166 116 -356.499v-134c0 -146.667 -38.667 -265.667 -116 -357s-185 -137 -323 -137c-139.333 0 -247.5 45.667 -324.5 137s-115.5 210.333 -115.5 357
v134zM341 473c0 -83.333 11.6689 -148.666 35.002 -195.999s64 -71 122 -71c56 0 95.833 23.833 119.5 71.5s35.5 112.834 35.5 195.501v134c0 81.333 -11.833 146.166 -35.5 194.499s-63.834 72.5 -120.501 72.5s-96.834 -24.333 -120.501 -73
s-35.5 -113.334 -35.5 -194.001v-134zM806.002 1575l1.99902 -6c2.66699 -86 -24.5 -155.833 -81.5 -209.5s-133.5 -80.5 -229.5 -80.5c-97.333 0 -174.666 27 -231.999 81s-84.333 123.667 -81 209l2 6h207c0 -35.333 8.5 -64.333 25.5 -87s43.167 -34 78.5 -34
c34 0 59.167 11.333 75.5 34s24.5 51.667 24.5 87h209z" />
    <glyph glyph-name="Ohungarumlaut" unicode="&#x150;" horiz-adv-x="1166" 
d="M1091 523c0 -170.667 -46.332 -304 -138.999 -400s-216 -144 -370 -144s-277 48 -369 144s-138 229.333 -138 400v408c0 170 46 303.5 138 400.5s214.667 145.5 368 145.5s276.666 -48.5 369.999 -145.5s140 -230.5 140 -400.5v-408zM808.001 933
c0 104 -19.333 182.501 -58 235.501s-95 79.5 -169 79.5c-74.667 0 -130.667 -26.333 -168 -79s-56 -131.334 -56 -236.001v-410c0 -105.333 19 -184.333 57 -237s94 -79 168 -79c73.333 0 129.333 26.333 168 79s58 131.667 58 237v410zM811.001 1888h264l2 -5l-238 -261
h-230zM463.001 1888h268l-207 -266h-227z" />
    <glyph glyph-name="ohungarumlaut" unicode="&#x151;" 
d="M58 607c0 145.333 38.5 264.166 115.5 356.499s184.833 138.5 323.5 138.5s246.667 -46.167 324 -138.5s116 -211.166 116 -356.499v-134c0 -146.667 -38.667 -265.667 -116 -357s-185 -137 -323 -137c-139.333 0 -247.5 45.667 -324.5 137s-115.5 210.333 -115.5 357
v134zM341 473c0 -83.333 11.6689 -148.666 35.002 -195.999s64 -71 122 -71c56 0 95.833 23.833 119.5 71.5s35.5 112.834 35.5 195.501v134c0 81.333 -11.833 146.166 -35.5 194.499s-63.834 72.5 -120.501 72.5s-96.834 -24.333 -120.501 -73
s-35.5 -113.334 -35.5 -194.001v-134zM723.002 1545h264l2 -5l-238 -261h-230zM375.002 1545h268l-207 -266h-227z" />
    <glyph glyph-name="OE" unicode="&#x152;" horiz-adv-x="1709" 
d="M1639 0l-782.999 -0.000976562c-50.667 -6.66699 -94.167 -11.834 -130.5 -15.501s-72.833 -5.5 -109.5 -5.5c-156.667 0 -284 55.333 -382 166s-147 254.334 -147 431.001v304c0 176.667 48.667 320.334 146 431.001s224.666 166 381.999 166c38 0 76.833 -2 116.5 -6
s81.167 -9 124.5 -15h781v-228h-573v-362h489v-227h-489v-412h575v-227zM616.001 205.999c27.333 0 54.665 1 81.998 3s54.333 5.33301 81 10v1018c-27.333 4 -54.666 7.16699 -81.999 9.5s-54.666 3.5 -81.999 3.5c-77.333 0 -137.333 -31.667 -180 -95
s-64 -154.333 -64 -273v-306c0 -119.333 21.667 -210.833 65 -274.5s103.333 -95.5 180 -95.5z" />
    <glyph glyph-name="oe" unicode="&#x153;" horiz-adv-x="1571" 
d="M75 551c0 162.667 38.3359 295.167 115.003 397.5s184.334 153.5 323.001 153.5c61.333 0 117.333 -10.833 168 -32.5s94.667 -52.5 132 -92.5c35.333 40 77 70.833 125 92.5s101.333 32.5 160 32.5c126.667 0 224.667 -43.5 294 -130.5s104 -205.5 104 -355.5v-161h-532
c5.33301 -74 24.166 -134 56.499 -180s77.5 -69 135.5 -69c53.333 0 97 6 131 18s73.667 32 119 60l73 -181c-38 -36 -88.333 -65.667 -151 -89s-131.334 -35 -206.001 -35c-62.667 0 -119.834 11 -171.501 33s-96.5 53.667 -134.5 95
c-37.333 -42 -81.333 -73.833 -132 -95.5s-107.334 -32.5 -170.001 -32.5c-139.333 0 -247.333 50.833 -324 152.5s-115 234.167 -115 397.5v22zM359.003 529c0 -100 11.501 -178.668 34.501 -236.001s62.167 -84.333 117.5 -81h6c54.667 -3.33301 93.667 23.834 117 81.501
s35 136.167 35 235.5v22c0 97.333 -11.833 175.166 -35.5 233.499s-62.834 86.166 -117.501 83.499h-6c-54.667 2.66699 -93.5 -25.166 -116.5 -83.499s-34.5 -136.166 -34.5 -233.499v-22zM1098 873.999c-40.667 0 -71.668 -20.5 -93.001 -61.5
s-34.666 -96.833 -39.999 -167.5h253v27c0 63.333 -9.5 112.833 -28.5 148.5s-49.5 53.5 -91.5 53.5z" />
    <glyph glyph-name="Racute" unicode="&#x154;" horiz-adv-x="1162" 
d="M395 579l0.000976562 -578.998h-284v1455h475c143.333 0 255.833 -37.833 337.5 -113.5s122.5 -180.834 122.5 -315.501c0 -76 -17 -141.5 -51 -196.5s-83.667 -98.833 -149 -131.5c74.667 -25.333 128.5 -67.333 161.5 -126s49.5 -132 49.5 -220v-103
c0 -40 4.66699 -82.833 14 -128.5s25.666 -78.834 48.999 -99.501v-21h-294c-23.333 21.333 -38 56 -44 104s-9 97 -9 147v99c0 72.667 -14.833 129 -44.5 169s-72.167 60 -127.5 60h-206zM395.001 806.002l190 0.000976562c58 0 102 17.667 132 53s45 85.666 45 150.999
c0 66.667 -15 119.667 -45 159s-73.667 59 -131 59h-191v-422zM576.001 1826h299l3 -6l-249 -260h-229z" />
    <glyph glyph-name="racute" unicode="&#x155;" horiz-adv-x="655" 
d="M603 823l-106.999 3c-30 0 -54.833 -7.33301 -74.5 -22s-34.834 -35.334 -45.501 -62.001v-742h-284v1082h265l11 -145l5 -2c17.333 52 41.5 92.833 72.5 122.5s67.167 44.5 108.5 44.5c12.667 0 26.167 -1.16699 40.5 -3.5s26.833 -5.16602 37.5 -8.49902zM388.001 1504
h299l3 -6l-249 -260h-229z" />
    <glyph glyph-name="Rcommaaccent" unicode="&#x156;" horiz-adv-x="1162" 
d="M395 579l0.000976562 -578.998h-284v1455h475c143.333 0 255.833 -37.833 337.5 -113.5s122.5 -180.834 122.5 -315.501c0 -76 -17 -141.5 -51 -196.5s-83.667 -98.833 -149 -131.5c74.667 -25.333 128.5 -67.333 161.5 -126s49.5 -132 49.5 -220v-103
c0 -40 4.66699 -82.833 14 -128.5s25.666 -78.834 48.999 -99.501v-21h-294c-23.333 21.333 -38 56 -44 104s-9 97 -9 147v99c0 72.667 -14.833 129 -44.5 169s-72.167 60 -127.5 60h-206zM395.001 806.002l190 0.000976562c58 0 102 17.667 132 53s45 85.666 45 150.999
c0 66.667 -15 119.667 -45 159s-73.667 59 -131 59h-191v-422zM629.001 -257.997l-119 -231h-114l53 240v152h180v-161z" />
    <glyph glyph-name="rcommaaccent" unicode="&#x157;" horiz-adv-x="655" 
d="M603 823l-106.999 3c-30 0 -54.833 -7.33301 -74.5 -22s-34.834 -35.334 -45.501 -62.001v-742h-284v1082h265l11 -145l5 -2c17.333 52 41.5 92.833 72.5 122.5s67.167 44.5 108.5 44.5c12.667 0 26.167 -1.16699 40.5 -3.5s26.833 -5.16602 37.5 -8.49902zM331.001 -258
l-119 -231h-114l53 240v152h180v-161z" />
    <glyph glyph-name="Rcaron" unicode="&#x158;" horiz-adv-x="1162" 
d="M395 579l0.000976562 -578.998h-284v1455h475c143.333 0 255.833 -37.833 337.5 -113.5s122.5 -180.834 122.5 -315.501c0 -76 -17 -141.5 -51 -196.5s-83.667 -98.833 -149 -131.5c74.667 -25.333 128.5 -67.333 161.5 -126s49.5 -132 49.5 -220v-103
c0 -40 4.66699 -82.833 14 -128.5s25.666 -78.834 48.999 -99.501v-21h-294c-23.333 21.333 -38 56 -44 104s-9 97 -9 147v99c0 72.667 -14.833 129 -44.5 169s-72.167 60 -127.5 60h-206zM395.001 806.002l190 0.000976562c58 0 102 17.667 132 53s45 85.666 45 150.999
c0 66.667 -15 119.667 -45 159s-73.667 59 -131 59h-191v-422zM544.001 1745l88 127h256v-17l-248 -253h-192l-248 255v15h256z" />
    <glyph glyph-name="rcaron" unicode="&#x159;" horiz-adv-x="655" 
d="M603 823l-106.999 3c-30 0 -54.833 -7.33301 -74.5 -22s-34.834 -35.334 -45.501 -62.001v-742h-284v1082h265l11 -145l5 -2c17.333 52 41.5 92.833 72.5 122.5s67.167 44.5 108.5 44.5c12.667 0 26.167 -1.16699 40.5 -3.5s26.833 -5.16602 37.5 -8.49902zM358.001 1423
l88 127h256v-17l-248 -253h-192l-248 255v15h256z" />
    <glyph glyph-name="Sacute" unicode="&#x15a;" horiz-adv-x="1109" 
d="M757 380c0 56.667 -14.6641 101.501 -43.9971 134.501s-81 65.5 -155 97.5c-151.333 52.667 -264.833 112.5 -340.5 179.5s-113.5 160.833 -113.5 281.5c0 119.333 44 216.5 132 291.5s200.333 112.5 337 112.5c138.667 0 251.334 -41.833 338.001 -125.5
s128.667 -189.167 126 -316.5l-2 -6h-276c0 66.667 -16.667 120.667 -50 162s-80.333 62 -141 62c-56.667 0 -100.834 -17.167 -132.501 -51.5s-47.5 -77.5 -47.5 -129.5c0 -48 17.667 -87.5 53 -118.5s96.666 -65.5 183.999 -103.5
c138 -46.667 241.833 -105.834 311.5 -177.501s104.5 -168.5 104.5 -290.5c0 -126 -42 -224.667 -126 -296s-195.667 -107 -335 -107c-138.667 0 -258.834 40.5 -360.501 121.5s-150.834 197.167 -147.501 348.5l2 6h277c0 -90 19 -154.667 57 -194s95.333 -59 172 -59
c60 0 104.5 16 133.5 48s43.5 75.333 43.5 130zM587.003 1847h299l3 -6l-249 -260h-229z" />
    <glyph glyph-name="sacute" unicode="&#x15b;" horiz-adv-x="888" 
d="M563 283c0 30.667 -11.9961 57.165 -35.9961 79.498s-70 49.833 -138 82.5c-108.667 40.667 -190.167 86.667 -244.5 138s-81.5 118 -81.5 200c0 88 34.833 163.167 104.5 225.5s161.834 93.5 276.501 93.5c120 0 215.667 -32 287 -96s105.666 -145.667 102.999 -245
l-3 -6h-274c0 45.333 -9.33301 81.333 -28 108s-47.334 40 -86.001 40c-30.667 0 -56.667 -10.333 -78 -31s-32 -45.667 -32 -75c0 -32 10.667 -57.833 32 -77.5s67.666 -46.5 138.999 -80.5c113.333 -38.667 197.333 -84.5 252 -137.5s82 -122.5 82 -208.5
c0 -92 -36.667 -167.333 -110 -226s-169.666 -88 -288.999 -88c-124.667 0 -223.334 36.333 -296.001 109s-107.334 154.667 -104.001 246l2 6h260c1.33301 -57.333 14.666 -98.666 39.999 -123.999s60.333 -38 105 -38c38 0 67 9.33301 87 28s30 44.334 30 77.001z
M479.004 1504h299l3 -6l-249 -260h-229z" />
    <glyph glyph-name="Scircumflex" unicode="&#x15c;" horiz-adv-x="1109" 
d="M757 380c0 56.667 -14.6641 101.501 -43.9971 134.501s-81 65.5 -155 97.5c-151.333 52.667 -264.833 112.5 -340.5 179.5s-113.5 160.833 -113.5 281.5c0 119.333 44 216.5 132 291.5s200.333 112.5 337 112.5c138.667 0 251.334 -41.833 338.001 -125.5
s128.667 -189.167 126 -316.5l-2 -6h-276c0 66.667 -16.667 120.667 -50 162s-80.333 62 -141 62c-56.667 0 -100.834 -17.167 -132.501 -51.5s-47.5 -77.5 -47.5 -129.5c0 -48 17.667 -87.5 53 -118.5s96.666 -65.5 183.999 -103.5
c138 -46.667 241.833 -105.834 311.5 -177.501s104.5 -168.5 104.5 -290.5c0 -126 -42 -224.667 -126 -296s-195.667 -107 -335 -107c-138.667 0 -258.834 40.5 -360.501 121.5s-150.834 197.167 -147.501 348.5l2 6h277c0 -90 19 -154.667 57 -194s95.333 -59 172 -59
c60 0 104.5 16 133.5 48s43.5 75.333 43.5 130zM891.003 1634v-22h-222l-114 134l-112 -134h-217v25l250 237h159z" />
    <glyph glyph-name="scircumflex" unicode="&#x15d;" horiz-adv-x="888" 
d="M563 283c0 30.667 -11.9961 57.165 -35.9961 79.498s-70 49.833 -138 82.5c-108.667 40.667 -190.167 86.667 -244.5 138s-81.5 118 -81.5 200c0 88 34.833 163.167 104.5 225.5s161.834 93.5 276.501 93.5c120 0 215.667 -32 287 -96s105.666 -145.667 102.999 -245
l-3 -6h-274c0 45.333 -9.33301 81.333 -28 108s-47.334 40 -86.001 40c-30.667 0 -56.667 -10.333 -78 -31s-32 -45.667 -32 -75c0 -32 10.667 -57.833 32 -77.5s67.666 -46.5 138.999 -80.5c113.333 -38.667 197.333 -84.5 252 -137.5s82 -122.5 82 -208.5
c0 -92 -36.667 -167.333 -110 -226s-169.666 -88 -288.999 -88c-124.667 0 -223.334 36.333 -296.001 109s-107.334 154.667 -104.001 246l2 6h260c1.33301 -57.333 14.666 -98.666 39.999 -123.999s60.333 -38 105 -38c38 0 67 9.33301 87 28s30 44.334 30 77.001z
M783.004 1291v-22h-222l-114 134l-112 -134h-217v25l250 237h159z" />
    <glyph glyph-name="Scedilla" unicode="&#x15e;" horiz-adv-x="1109" 
d="M757 380c0 56.667 -14.6641 101.501 -43.9971 134.501s-81 65.5 -155 97.5c-151.333 52.667 -264.833 112.5 -340.5 179.5s-113.5 160.833 -113.5 281.5c0 119.333 44 216.5 132 291.5s200.333 112.5 337 112.5c138.667 0 251.334 -41.833 338.001 -125.5
s128.667 -189.167 126 -316.5l-2 -6h-276c0 66.667 -16.667 120.667 -50 162s-80.333 62 -141 62c-56.667 0 -100.834 -17.167 -132.501 -51.5s-47.5 -77.5 -47.5 -129.5c0 -48 17.667 -87.5 53 -118.5s96.666 -65.5 183.999 -103.5
c138 -46.667 241.833 -105.834 311.5 -177.501s104.5 -168.5 104.5 -290.5c0 -126 -42 -224.667 -126 -296s-195.667 -107 -335 -107c-138.667 0 -258.834 40.5 -360.501 121.5s-150.834 197.167 -147.501 348.5l2 6h277c0 -90 19 -154.667 57 -194s95.333 -59 172 -59
c60 0 104.5 16 133.5 48s43.5 75.333 43.5 130zM684.003 -0.999023l-9 -58.999c34 -7.33301 62.833 -24.833 86.5 -52.5s35.5 -67.834 35.5 -120.501c0 -72 -26.833 -129.5 -80.5 -172.5s-129.5 -64.5 -227.5 -64.5l-6 163c22.667 0 40.5 6.83301 53.5 20.5
s19.5 34.834 19.5 63.501c0 28 -8.5 47.667 -25.5 59s-45.833 18.666 -86.5 21.999l27 141h213z" />
    <glyph glyph-name="scedilla" unicode="&#x15f;" horiz-adv-x="888" 
d="M563 283c0 30.667 -11.9961 57.165 -35.9961 79.498s-70 49.833 -138 82.5c-108.667 40.667 -190.167 86.667 -244.5 138s-81.5 118 -81.5 200c0 88 34.833 163.167 104.5 225.5s161.834 93.5 276.501 93.5c120 0 215.667 -32 287 -96s105.666 -145.667 102.999 -245
l-3 -6h-274c0 45.333 -9.33301 81.333 -28 108s-47.334 40 -86.001 40c-30.667 0 -56.667 -10.333 -78 -31s-32 -45.667 -32 -75c0 -32 10.667 -57.833 32 -77.5s67.666 -46.5 138.999 -80.5c113.333 -38.667 197.333 -84.5 252 -137.5s82 -122.5 82 -208.5
c0 -92 -36.667 -167.333 -110 -226s-169.666 -88 -288.999 -88c-124.667 0 -223.334 36.333 -296.001 109s-107.334 154.667 -104.001 246l2 6h260c1.33301 -57.333 14.666 -98.666 39.999 -123.999s60.333 -38 105 -38c38 0 67 9.33301 87 28s30 44.334 30 77.001z
M557.004 -0.00195312l-9 -58.999c34 -7.33301 62.833 -24.833 86.5 -52.5s35.5 -67.834 35.5 -120.501c0 -72 -26.833 -129.5 -80.5 -172.5s-129.5 -64.5 -227.5 -64.5l-6 163c22.667 0 40.5 6.83301 53.5 20.5s19.5 34.834 19.5 63.501c0 28 -8.5 47.667 -25.5 59
s-45.833 18.666 -86.5 21.999l27 141h213z" />
    <glyph glyph-name="Scaron" unicode="&#x160;" horiz-adv-x="1109" 
d="M757 380c0 56.667 -14.6641 101.501 -43.9971 134.501s-81 65.5 -155 97.5c-151.333 52.667 -264.833 112.5 -340.5 179.5s-113.5 160.833 -113.5 281.5c0 119.333 44 216.5 132 291.5s200.333 112.5 337 112.5c138.667 0 251.334 -41.833 338.001 -125.5
s128.667 -189.167 126 -316.5l-2 -6h-276c0 66.667 -16.667 120.667 -50 162s-80.333 62 -141 62c-56.667 0 -100.834 -17.167 -132.501 -51.5s-47.5 -77.5 -47.5 -129.5c0 -48 17.667 -87.5 53 -118.5s96.666 -65.5 183.999 -103.5
c138 -46.667 241.833 -105.834 311.5 -177.501s104.5 -168.5 104.5 -290.5c0 -126 -42 -224.667 -126 -296s-195.667 -107 -335 -107c-138.667 0 -258.834 40.5 -360.501 121.5s-150.834 197.167 -147.501 348.5l2 6h277c0 -90 19 -154.667 57 -194s95.333 -59 172 -59
c60 0 104.5 16 133.5 48s43.5 75.333 43.5 130zM555.003 1766l88 127h256v-17l-248 -253h-192l-248 255v15h256z" />
    <glyph glyph-name="scaron" unicode="&#x161;" horiz-adv-x="888" 
d="M563 283c0 30.667 -11.9961 57.165 -35.9961 79.498s-70 49.833 -138 82.5c-108.667 40.667 -190.167 86.667 -244.5 138s-81.5 118 -81.5 200c0 88 34.833 163.167 104.5 225.5s161.834 93.5 276.501 93.5c120 0 215.667 -32 287 -96s105.666 -145.667 102.999 -245
l-3 -6h-274c0 45.333 -9.33301 81.333 -28 108s-47.334 40 -86.001 40c-30.667 0 -56.667 -10.333 -78 -31s-32 -45.667 -32 -75c0 -32 10.667 -57.833 32 -77.5s67.666 -46.5 138.999 -80.5c113.333 -38.667 197.333 -84.5 252 -137.5s82 -122.5 82 -208.5
c0 -92 -36.667 -167.333 -110 -226s-169.666 -88 -288.999 -88c-124.667 0 -223.334 36.333 -296.001 109s-107.334 154.667 -104.001 246l2 6h260c1.33301 -57.333 14.666 -98.666 39.999 -123.999s60.333 -38 105 -38c38 0 67 9.33301 87 28s30 44.334 30 77.001z
M447.004 1423l88 127h256v-17l-248 -253h-192l-248 255v15h256z" />
    <glyph glyph-name="uni0162" unicode="&#x162;" horiz-adv-x="994" 
d="M967 1228h-328v-1228h-284v1228h-326v228h938v-228zM584 -258l-119 -231h-114l53 240v152h180v-161z" />
    <glyph glyph-name="uni0163" unicode="&#x163;" horiz-adv-x="648" 
d="M430 1351l-0.000976562 -269h150v-206h-150v-543c0 -44 6.33301 -75.5 19 -94.5s30 -28.5 52 -28.5c17.333 0 32 0.833008 44 2.5s25.333 4.5 40 8.5l22 -216c-30 -9.33301 -58.667 -16 -86 -20s-58.333 -6 -93 -6c-91.333 0 -161.166 28.167 -209.499 84.5
s-72.5 145.833 -72.5 268.5v544h-128v206h128v269h284zM459.999 -258l-119 -231h-114l53 240v152h180v-161z" />
    <glyph glyph-name="Tcaron" unicode="&#x164;" horiz-adv-x="994" 
d="M967 1228h-328v-1228h-284v1228h-326v228h938v-228zM500 1744l88 127h256v-17l-248 -253h-192l-248 255v15h256z" />
    <glyph glyph-name="tcaron" unicode="&#x165;" horiz-adv-x="688" 
d="M430 1351l-0.000976562 -269h150v-206h-150v-543c0 -44 6.33301 -75.5 19 -94.5s30 -28.5 52 -28.5c17.333 0 32 0.833008 44 2.5s25.333 4.5 40 8.5l22 -216c-30 -9.33301 -58.667 -16 -86 -20s-58.333 -6 -93 -6c-91.333 0 -161.166 28.167 -209.499 84.5
s-72.5 145.833 -72.5 268.5v544h-128v206h128v269h284zM761.999 1424l-119 -231h-114l53 240v152h180v-161z" />
    <glyph glyph-name="Tbar" unicode="&#x166;" horiz-adv-x="994" 
d="M797 749h-158v-749h-284v749h-139v175h139v304h-326v228h938v-228h-328v-304h158v-175z" />
    <glyph glyph-name="tbar" unicode="&#x167;" horiz-adv-x="648" 
d="M430 1351l-0.000976562 -269h150v-206h-150v-168h149v-175h-149v-200c0 -44 6.33301 -75.5 19 -94.5s30 -28.5 52 -28.5c17.333 0 32 0.833008 44 2.5s25.333 4.5 40 8.5l22 -216c-30 -9.33301 -58.667 -16 -86 -20s-58.333 -6 -93 -6
c-91.333 0 -161.166 28.167 -209.499 84.5s-72.5 145.833 -72.5 268.5v201h-148v175h148v168h-128v206h128v269h284z" />
    <glyph glyph-name="Utilde" unicode="&#x168;" horiz-adv-x="1176" 
d="M1082 1456l-0.000976562 -991.002c0 -155.333 -45.5 -275.166 -136.5 -359.499s-210.167 -126.5 -357.5 -126.5s-266.5 42.333 -357.5 127s-136.5 204.334 -136.5 359.001v991h284v-991c0 -88.667 18.333 -154 55 -196s88.334 -63 155.001 -63c68.667 0 121 20 157 60
s54 106.333 54 199v991h283zM913.999 1854c0 -63.333 -17.001 -117.167 -51.001 -161.5s-77.333 -66.5 -130 -66.5c-39.333 0 -84.833 14.667 -136.5 44s-92.167 44 -121.5 44c-18 0 -33.333 -11 -46 -33s-19 -48.333 -19 -79l-149 43c0 62 17.167 115.667 51.5 161
s77.5 68 129.5 68c30.667 0 73.834 -14.667 129.501 -44s98.5 -44 128.5 -44c18 0 33.5 10.833 46.5 32.5s19.5 48.5 19.5 80.5z" />
    <glyph glyph-name="utilde" unicode="&#x169;" 
d="M641 125c-29.333 -47.333 -64.834 -83.5 -106.501 -108.5s-88.834 -37.5 -141.501 -37.5c-96.667 0 -172.167 36.5 -226.5 109.5s-81.5 186.167 -81.5 339.5v654h284v-656c0 -76.667 9.33301 -132.334 28 -167.001s46.334 -52 83.001 -52
c31.333 0 58.833 5.83301 82.5 17.5s43.834 28.834 60.501 51.501v806h285v-1082h-250zM820.999 1511c0 -63.333 -17.001 -117.167 -51.001 -161.5s-77.333 -66.5 -130 -66.5c-39.333 0 -84.833 14.667 -136.5 44s-92.167 44 -121.5 44c-18 0 -33.333 -11 -46 -33
s-19 -48.333 -19 -79l-149 43c0 62 17.167 115.667 51.5 161s77.5 68 129.5 68c30.667 0 73.834 -14.667 129.501 -44s98.5 -44 128.5 -44c18 0 33.5 10.833 46.5 32.5s19.5 48.5 19.5 80.5z" />
    <glyph glyph-name="Umacron" unicode="&#x16a;" horiz-adv-x="1176" 
d="M1082 1456l-0.000976562 -991.002c0 -155.333 -45.5 -275.166 -136.5 -359.499s-210.167 -126.5 -357.5 -126.5s-266.5 42.333 -357.5 127s-136.5 204.334 -136.5 359.001v991h284v-991c0 -88.667 18.333 -154 55 -196s88.334 -63 155.001 -63c68.667 0 121 20 157 60
s54 106.333 54 199v991h283zM914.999 1617h-654v160h654v-160z" />
    <glyph glyph-name="umacron" unicode="&#x16b;" 
d="M641 125c-29.333 -47.333 -64.834 -83.5 -106.501 -108.5s-88.834 -37.5 -141.501 -37.5c-96.667 0 -172.167 36.5 -226.5 109.5s-81.5 186.167 -81.5 339.5v654h284v-656c0 -76.667 9.33301 -132.334 28 -167.001s46.334 -52 83.001 -52
c31.333 0 58.833 5.83301 82.5 17.5s43.834 28.834 60.501 51.501v806h285v-1082h-250zM821.999 1276h-654v160h654v-160z" />
    <glyph glyph-name="Ubreve" unicode="&#x16c;" horiz-adv-x="1176" 
d="M1082 1456l-0.000976562 -991.002c0 -155.333 -45.5 -275.166 -136.5 -359.499s-210.167 -126.5 -357.5 -126.5s-266.5 42.333 -357.5 127s-136.5 204.334 -136.5 359.001v991h284v-991c0 -88.667 18.333 -154 55 -196s88.334 -63 155.001 -63c68.667 0 121 20 157 60
s54 106.333 54 199v991h283zM896.999 1897l1.99902 -6c2.66699 -86 -24.5 -155.833 -81.5 -209.5s-133.5 -80.5 -229.5 -80.5c-97.333 0 -174.666 27 -231.999 81s-84.333 123.667 -81 209l2 6h207c0 -35.333 8.5 -64.333 25.5 -87s43.167 -34 78.5 -34
c34 0 59.167 11.333 75.5 34s24.5 51.667 24.5 87h209z" />
    <glyph glyph-name="ubreve" unicode="&#x16d;" 
d="M641 125c-29.333 -47.333 -64.834 -83.5 -106.501 -108.5s-88.834 -37.5 -141.501 -37.5c-96.667 0 -172.167 36.5 -226.5 109.5s-81.5 186.167 -81.5 339.5v654h284v-656c0 -76.667 9.33301 -132.334 28 -167.001s46.334 -52 83.001 -52
c31.333 0 58.833 5.83301 82.5 17.5s43.834 28.834 60.501 51.501v806h285v-1082h-250zM803.999 1554l1.99902 -6c2.66699 -86 -24.5 -155.833 -81.5 -209.5s-133.5 -80.5 -229.5 -80.5c-97.333 0 -174.666 27 -231.999 81s-84.333 123.667 -81 209l2 6h207
c0 -35.333 8.5 -64.333 25.5 -87s43.167 -34 78.5 -34c34 0 59.167 11.333 75.5 34s24.5 51.667 24.5 87h209z" />
    <glyph glyph-name="Uring" unicode="&#x16e;" horiz-adv-x="1176" 
d="M1082 1456l-0.000976562 -991.002c0 -155.333 -45.5 -275.166 -136.5 -359.499s-210.167 -126.5 -357.5 -126.5s-266.5 42.333 -357.5 127s-136.5 204.334 -136.5 359.001v991h284v-991c0 -88.667 18.333 -154 55 -196s88.334 -63 155.001 -63c68.667 0 121 20 157 60
s54 106.333 54 199v991h283zM393.999 1739c0 53.333 18.667 98.334 56 135.001s83.333 55 138 55c53.333 0 98.333 -18.333 135 -55s55 -81.667 55 -135c0 -54.667 -18.167 -99.334 -54.5 -134.001s-81.5 -52 -135.5 -52c-54.667 0 -100.667 17.5 -138 52.5
s-56 79.5 -56 133.5zM501.999 1739c0 -28 8 -50.833 24 -68.5s36.667 -26.5 62 -26.5c24.667 0 44.667 8.66699 60 26s23 40.333 23 69s-7.66699 52 -23 70s-35.333 27 -60 27c-25.333 0 -46 -9 -62 -27s-24 -41.333 -24 -70z" />
    <glyph glyph-name="uring" unicode="&#x16f;" 
d="M641 125c-29.333 -47.333 -64.834 -83.5 -106.501 -108.5s-88.834 -37.5 -141.501 -37.5c-96.667 0 -172.167 36.5 -226.5 109.5s-81.5 186.167 -81.5 339.5v654h284v-656c0 -76.667 9.33301 -132.334 28 -167.001s46.334 -52 83.001 -52
c31.333 0 58.833 5.83301 82.5 17.5s43.834 28.834 60.501 51.501v806h285v-1082h-250zM300.999 1396c0 53.333 18.667 98.334 56 135.001s83.333 55 138 55c53.333 0 98.333 -18.333 135 -55s55 -81.667 55 -135c0 -54.667 -18.167 -99.334 -54.5 -134.001
s-81.5 -52 -135.5 -52c-54.667 0 -100.667 17.5 -138 52.5s-56 79.5 -56 133.5zM408.999 1396c0 -28 8 -50.833 24 -68.5s36.667 -26.5 62 -26.5c24.667 0 44.667 8.66699 60 26s23 40.333 23 69s-7.66699 52 -23 70s-35.333 27 -60 27c-25.333 0 -46 -9 -62 -27
s-24 -41.333 -24 -70z" />
    <glyph glyph-name="Uhungarumlaut" unicode="&#x170;" horiz-adv-x="1176" 
d="M1082 1456l-0.000976562 -991.002c0 -155.333 -45.5 -275.166 -136.5 -359.499s-210.167 -126.5 -357.5 -126.5s-266.5 42.333 -357.5 127s-136.5 204.334 -136.5 359.001v991h284v-991c0 -88.667 18.333 -154 55 -196s88.334 -63 155.001 -63c68.667 0 121 20 157 60
s54 106.333 54 199v991h283zM813.999 1867h264l2 -5l-238 -261h-230zM465.999 1867h268l-207 -266h-227z" />
    <glyph glyph-name="uhungarumlaut" unicode="&#x171;" 
d="M641 125c-29.333 -47.333 -64.834 -83.5 -106.501 -108.5s-88.834 -37.5 -141.501 -37.5c-96.667 0 -172.167 36.5 -226.5 109.5s-81.5 186.167 -81.5 339.5v654h284v-656c0 -76.667 9.33301 -132.334 28 -167.001s46.334 -52 83.001 -52
c31.333 0 58.833 5.83301 82.5 17.5s43.834 28.834 60.501 51.501v806h285v-1082h-250zM720.999 1524h264l2 -5l-238 -261h-230zM372.999 1524h268l-207 -266h-227z" />
    <glyph glyph-name="Uogonek" unicode="&#x172;" horiz-adv-x="1176" 
d="M1082 1456l-0.000976562 -991.002c0 -155.333 -45.5 -275.166 -136.5 -359.499s-210.167 -126.5 -357.5 -126.5s-266.5 42.333 -357.5 127s-136.5 204.334 -136.5 359.001v991h284v-991c0 -88.667 18.333 -154 55 -196s88.334 -63 155.001 -63c68.667 0 121 20 157 60
s54 106.333 54 199v991h283zM678.999 -0.00195312c-26.667 -35.333 -46 -65 -58 -89s-18 -52.333 -18 -85c0 -15.333 4.33301 -30.166 13 -44.499s27.667 -21.5 57 -21.5c15.333 0 28.666 1.83301 39.999 5.5s23.666 8.5 36.999 14.5l32 -151
c-20.667 -12 -44.167 -22.333 -70.5 -31s-57.166 -13 -92.499 -13c-65.333 0 -119.166 18.167 -161.499 54.5s-63.5 87.166 -63.5 152.499c0 50.667 12.5 98.667 37.5 144s64.5 85.333 118.5 120z" />
    <glyph glyph-name="uogonek" unicode="&#x173;" 
d="M641 125c-29.333 -47.333 -64.834 -83.5 -106.501 -108.5s-88.834 -37.5 -141.501 -37.5c-96.667 0 -172.167 36.5 -226.5 109.5s-81.5 186.167 -81.5 339.5v654h284v-656c0 -76.667 9.33301 -132.334 28 -167.001s46.334 -52 83.001 -52
c31.333 0 58.833 5.83301 82.5 17.5s43.834 28.834 60.501 51.501v806h285v-1082h-250zM817.999 0c-26.667 -35.333 -46 -65 -58 -89s-18 -52.333 -18 -85c0 -15.333 4.33301 -30.166 13 -44.499s27.667 -21.5 57 -21.5c15.333 0 28.666 1.83301 39.999 5.5
s23.666 8.5 36.999 14.5l32 -151c-20.667 -12 -44.167 -22.333 -70.5 -31s-57.166 -13 -92.499 -13c-65.333 0 -119.166 18.167 -161.499 54.5s-63.5 87.166 -63.5 152.499c0 50.667 12.5 98.667 37.5 144s64.5 85.333 118.5 120z" />
    <glyph glyph-name="Wcircumflex" unicode="&#x174;" horiz-adv-x="1548" 
d="M1087 527h6l157 929h276l-281 -1456h-265l-205 892h-6l-203 -892h-264l-281 1456h276l157 -929h6l210 929h204zM1109 1613v-22h-222l-114 134l-112 -134h-217v25l250 237h159z" />
    <glyph glyph-name="wcircumflex" unicode="&#x175;" horiz-adv-x="1280" 
d="M882 468l6 1l101 613h263l-222 -1082h-237l-151 583h-6l-151 -583h-237l-224 1082h265l101 -616h6l151 616h184zM974 1272v-22h-222l-114 134l-112 -134h-217v25l250 237h159z" />
    <glyph glyph-name="Ycircumflex" unicode="&#x176;" horiz-adv-x="1124" 
d="M558 832h6l243 624h309l-416 -938v-518h-284v536l-409 920h311zM905 1612v-22h-222l-114 134l-112 -134h-217v25l250 237h159z" />
    <glyph glyph-name="ycircumflex" unicode="&#x177;" horiz-adv-x="909" 
d="M440 444l2 -11l158 649h304l-365 -1245c-27.333 -78 -63.833 -143.167 -109.5 -195.5s-115.5 -78.5 -209.5 -78.5c-23.333 0 -44 2 -62 6s-42 10 -72 18l33 212c11.333 -2 19.5 -3.5 24.5 -4.5s10.5 -1.5 16.5 -1.5c41.333 0 72.5 10.833 93.5 32.5
s36.167 50.167 45.5 85.5l25 80l-319 1091h305zM787 1272v-22h-222l-114 134l-112 -134h-217v25l250 237h159z" />
    <glyph glyph-name="Ydieresis" unicode="&#x178;" horiz-adv-x="1124" 
d="M558 832h6l243 624h309l-416 -938v-518h-284v536l-409 920h311zM919 1605h-250v198h250v-198zM471 1605h-251v198h251v-198z" />
    <glyph glyph-name="Zacute" unicode="&#x179;" horiz-adv-x="998" 
d="M386 227h559v-227h-879v143l546 1086h-552v227h876v-138zM529 1828h299l3 -6l-249 -260h-229z" />
    <glyph glyph-name="zacute" unicode="&#x17a;" horiz-adv-x="883" 
d="M391 227h423v-227h-749v169l412 685h-400v228h730v-165zM469 1483h299l3 -6l-249 -260h-229z" />
    <glyph glyph-name="Zdotaccent" unicode="&#x17b;" horiz-adv-x="998" 
d="M386 227h559v-227h-879v143l546 1086h-552v227h876v-138zM639 1609h-291v241h291v-241z" />
    <glyph glyph-name="zdotaccent" unicode="&#x17c;" horiz-adv-x="883" 
d="M391 227h423v-227h-749v169l412 685h-400v228h730v-165zM579 1264h-291v241h291v-241z" />
    <glyph glyph-name="Zcaron" unicode="&#x17d;" horiz-adv-x="998" 
d="M386 227h559v-227h-879v143l546 1086h-552v227h876v-138zM497 1747l88 127h256v-17l-248 -253h-192l-248 255v15h256z" />
    <glyph glyph-name="zcaron" unicode="&#x17e;" horiz-adv-x="883" 
d="M391 227h423v-227h-749v169l412 685h-400v228h730v-165zM437 1402l88 127h256v-17l-248 -253h-192l-248 255v15h256z" />
    <glyph glyph-name="longs" unicode="&#x17f;" horiz-adv-x="479" 
d="M94 0v1202c0 121.333 31.333 214.833 94 280.5s150.667 98.5 264 98.5c21.333 0 43.333 -1.83301 66 -5.5s47.667 -8.83398 75 -15.501l-23 -217c-14 3.33301 -27 5.83301 -39 7.5s-26 2.5 -42 2.5c-36 0 -63.5 -13.167 -82.5 -39.5s-28.5 -63.5 -28.5 -111.5v-1202h-284
z" />
    <glyph glyph-name="florin" unicode="&#x192;" horiz-adv-x="657" 
d="M606 876l-171.001 0.000976562v-909c0 -128.667 -30.167 -228.167 -90.5 -298.5s-143.833 -105.5 -250.5 -105.5c-23.333 0 -44.833 1.5 -64.5 4.5s-40.5 7.5 -62.5 13.5l12 222c12.667 -4 25.334 -7 38.001 -9s27 -3 43 -3c29.333 0 51.833 15 67.5 45
s23.5 73.667 23.5 131v909h-132v206h132v120c0 121.333 31.333 214.833 94 280.5s150.667 98.5 264 98.5c22 0 44.333 -1.83301 67 -5.5s47.667 -8.83398 75 -15.501l-23 -218c-13.333 3.33301 -26.333 5.83301 -39 7.5s-27 2.5 -43 2.5c-36 0 -63.5 -13 -82.5 -39
s-28.5 -63 -28.5 -111v-120h171v-206z" />
    <glyph glyph-name="Ohorn" unicode="&#x1a0;" horiz-adv-x="1234" 
d="M1093 523c0 -170.667 -46.332 -304.001 -138.999 -400.001s-216 -144 -370 -144s-277 48 -369 144s-138 229.333 -138 400v408c0 170 46 303.5 138 400.5s214.667 145.5 368 145.5c84.667 0 161.167 -15.5 229.5 -46.5s125.166 -75.5 170.499 -133.5
c50 22 88 59.5 114 112.5s39 118.833 39 197.5h201c0 -126 -23 -231.167 -69 -315.5s-111.667 -144.166 -197 -179.499c6.66699 -28.667 12 -58 16 -88s6 -61 6 -93v-408zM810.001 932.999c0 104 -19.333 182.501 -58 235.501s-95 79.5 -169 79.5
c-74.667 0 -130.667 -26.333 -168 -79s-56 -131.334 -56 -236.001v-410c0 -105.333 19 -184.333 57 -237s94 -79 168 -79c73.333 0 129.333 26.333 168 79s58 131.667 58 237v410z" />
    <glyph glyph-name="ohorn" unicode="&#x1a1;" horiz-adv-x="1033" 
d="M56 607c0 145.333 38.5 264.165 115.5 356.498s184.833 138.5 323.5 138.5c64.667 0 123.167 -10.833 175.5 -32.5s97.5 -52.167 135.5 -91.5c24.667 26.667 43.5 61.834 56.5 105.501s19.5 94.5 19.5 152.5h198c0 -94 -16.167 -174.5 -48.5 -241.5
s-78.833 -117.833 -139.5 -152.5c14 -35.333 24.667 -72.666 32 -111.999s11 -80.333 11 -123v-134c0 -146.667 -38.667 -265.667 -116 -357s-185 -137 -323 -137c-139.333 0 -247.5 45.667 -324.5 137s-115.5 210.333 -115.5 357v134zM339 472.999
c0 -83.333 11.6689 -148.666 35.002 -195.999s64 -71 122 -71c56 0 95.833 23.833 119.5 71.5s35.5 112.834 35.5 195.501v134c0 81.333 -11.833 146.166 -35.5 194.499s-63.834 72.5 -120.501 72.5s-96.834 -24.333 -120.501 -73s-35.5 -113.334 -35.5 -194.001v-134z" />
    <glyph glyph-name="Uhorn" unicode="&#x1af;" horiz-adv-x="1266" 
d="M1082 1456l-0.00195312 -190.002l6 -1c54.667 8 92.334 40.333 113.001 97s31 139 31 247h200c0 -162 -27.833 -287.5 -83.5 -376.5s-144.5 -140.167 -266.5 -153.5v-614c0 -155.333 -45.5 -275.166 -136.5 -359.499s-210.167 -126.5 -357.5 -126.5
s-266.5 42.333 -357.5 127s-136.5 204.334 -136.5 359.001v991h284v-991c0 -88.667 18.333 -154 55 -196s88.334 -63 155.001 -63c68.667 0 121 20 157 60s54 106.333 54 199v991h283z" />
    <glyph glyph-name="uhorn" unicode="&#x1b0;" horiz-adv-x="1081" 
d="M1171 1186c0 -108.667 -21.333 -194.667 -64 -258s-109 -105.333 -199 -126v-802h-250l-17 125c-29.333 -47.333 -64.833 -83.5 -106.5 -108.5s-88.834 -37.5 -141.501 -37.5c-96.667 0 -172.167 36.5 -226.5 109.5s-81.5 186.167 -81.5 339.5v654h284v-656
c0 -76.667 9.33301 -132.334 28 -167.001s46.334 -52 83.001 -52c31.333 0 58.833 5.83301 82.5 17.5s43.834 28.834 60.501 51.501v806h285v-105l6 -1c27.333 10 47.166 32.5 59.499 67.5s18.5 82.5 18.5 142.5h179z" />
    <glyph glyph-name="uni01F0" unicode="&#x1f0;" horiz-adv-x="528" 
d="M411 1082l-0.00292969 -1115c0 -129.333 -30 -229 -90 -299s-143.333 -105 -250 -105c-23.333 0 -44.666 1.5 -63.999 4.5s-40.666 7.5 -63.999 13.5l13 222c14 -4 27 -7 39 -9s26 -3 42 -3c28.667 0 50.834 15.167 66.501 45.5s23.5 73.833 23.5 130.5v1115h284z
M248.997 1397l88 127h256v-17l-248 -253h-192l-248 255v15h256z" />
    <glyph glyph-name="Aringacute" unicode="&#x1fa;" horiz-adv-x="1134" 
d="M765 309h-384l-78 -309h-287l410 1456h296l409 -1456h-287zM439 538h268l-131 515h-6zM656 2148h243l2 -6l-237 -212h-176zM392 1695c0 52 17.5 95.833 52.5 131.5s78.5 53.5 130.5 53.5c50 0 92.333 -17.833 127 -53.5s52 -79.5 52 -131.5
c0 -52.667 -17.333 -96 -52 -130s-77 -51 -127 -51c-52 0 -95.5 17 -130.5 51s-52.5 77.333 -52.5 130zM497 1695c0 -26 7.33301 -47.167 22 -63.5s33.334 -24.5 56.001 -24.5c21.333 0 38.833 8.16699 52.5 24.5s20.5 37.5 20.5 63.5c0 26.667 -6.83301 48.667 -20.5 66
s-31.167 26 -52.5 26c-22.667 0 -41.334 -8.66699 -56.001 -26s-22 -39.333 -22 -66z" />
    <glyph glyph-name="aringacute" unicode="&#x1fb;" horiz-adv-x="944" 
d="M619 0c-8 18 -15.167 37.667 -21.5 59s-11.166 43 -14.499 65c-26.667 -44 -59.167 -79.167 -97.5 -105.5s-82.833 -39.5 -133.5 -39.5c-89.333 0 -160.833 29.333 -214.5 88s-80.5 137 -80.5 235c0 106 34.167 188.333 102.5 247s169.833 88 304.5 88h107v88
c0 52.667 -9.5 93.167 -28.5 121.5s-47.5 42.5 -85.5 42.5c-32 0 -56 -11.333 -72 -34s-24 -55.667 -24 -99l-275 1l-3 6c-3.33301 94 31.5 174 104.5 240s169.167 99 288.5 99c112.667 0 204.167 -32.833 274.5 -98.5s105.5 -159.167 105.5 -280.5v-438
c0 -53.333 3.66699 -103 11 -149s18.666 -91.333 33.999 -136h-282zM434 193c28.667 0 55.165 7.66699 79.498 23s43.5 35 57.5 59v199h-107c-43.333 0 -74.666 -15 -93.999 -45s-29 -68 -29 -114c0 -36 8.33301 -65.333 25 -88s39.334 -34 68.001 -34zM548.998 1826h243
l2 -6l-237 -212h-176zM284.998 1373c0 52 17.5 95.833 52.5 131.5s78.5 53.5 130.5 53.5c50 0 92.333 -17.833 127 -53.5s52 -79.5 52 -131.5c0 -52.667 -17.333 -96 -52 -130s-77 -51 -127 -51c-52 0 -95.5 17 -130.5 51s-52.5 77.333 -52.5 130zM389.998 1373
c0 -26 7.33301 -47.167 22 -63.5s33.334 -24.5 56.001 -24.5c21.333 0 38.833 8.16699 52.5 24.5s20.5 37.5 20.5 63.5c0 26.667 -6.83301 48.667 -20.5 66s-31.167 26 -52.5 26c-22.667 0 -41.334 -8.66699 -56.001 -26s-22 -39.333 -22 -66z" />
    <glyph glyph-name="AEacute" unicode="&#x1fc;" horiz-adv-x="1656" 
d="M1591 0h-774l-12 339h-329l-136 -339h-331l639 1456h891v-231h-481l12 -363h400v-230h-392l15 -402h498v-230zM573 578h224l-17 497l-6 1zM826 1826h299l3 -6l-249 -260h-229z" />
    <glyph glyph-name="aeacute" unicode="&#x1fd;" horiz-adv-x="1479" 
d="M1057 -21c-72 0 -136 12.6689 -192 38.002s-103.333 62 -142 110c-34.667 -43.333 -79.834 -78.833 -135.501 -106.5s-121.167 -41.5 -196.5 -41.5c-112 0 -198.333 30.167 -259 90.5s-91 142.833 -91 247.5c0 106 36.833 187.833 110.5 245.5s181.167 86.5 322.5 86.5
h136v56c0 52.667 -10 94 -30 124s-47.667 45 -83 45c-38 0 -67.833 -12.333 -89.5 -37s-32.5 -55.334 -32.5 -92.001l-275 17l-2 6c-3.33301 96.667 32.167 176.5 106.5 239.5s172.833 94.5 295.5 94.5c55.333 0 106.333 -7.83301 153 -23.5s87 -38.5 121 -68.5
c34 29.333 73.333 52 118 68s94.334 24 149.001 24c120.667 0 215.667 -43.667 285 -131s104 -206 104 -356v-160h-535c3.33301 -78 20.5 -139 51.5 -183s79.167 -66 144.5 -66c51.333 0 93.833 6.16699 127.5 18.5s72.167 32.166 115.5 59.499l71 -183
c-35.333 -32.667 -84.5 -61.167 -147.5 -85.5s-129.833 -36.5 -200.5 -36.5zM446 184.002c27.333 0 56.668 9.00195 88.001 27.002s56.666 39.667 75.999 65v190h-134c-47.333 0 -84.5 -14.833 -111.5 -44.5s-40.5 -65.834 -40.5 -108.501c0 -40.667 10 -72.334 30 -95.001
s50.667 -34 92 -34zM1041 874.004c-48.667 0 -84 -20 -106 -60s-35 -96.667 -39 -170h257v27c0 62.667 -9.33301 112.167 -28 148.5s-46.667 54.5 -84 54.5zM770.002 1505h299l3 -6l-249 -260h-229z" />
    <glyph glyph-name="Oslashacute" unicode="&#x1fe;" horiz-adv-x="1215" 
d="M1097 523c0 -170.667 -46.334 -303.999 -139.001 -399.999s-216 -144 -370 -144c-42 0 -82.167 3.66699 -120.5 11s-74.166 18.666 -107.499 33.999l-57 -117h-127l86 176c-58 46.667 -102.667 107.167 -134 181.5s-47 160.5 -47 258.5v408c0 170 46 303.5 138 400.5
s214.667 145.5 368 145.5c60 0 116.167 -8 168.5 -24s99.5 -39 141.5 -69l65 132h129l-106 -216c36 -47.333 63.667 -102 83 -164s29 -130.333 29 -205v-408zM362.999 523.001c0 -36 2.00098 -68.499 6.00098 -97.499s10.333 -52.5 19 -70.5l6 -1l382 781
c-18.667 37.333 -43.834 65.5 -75.501 84.5s-69.5 28.5 -113.5 28.5c-74.667 0 -130.667 -26.333 -168 -79s-56 -131.334 -56 -236.001v-410zM814 933.002v4l-6 1l-342 -697c16 -12 34.167 -20.667 54.5 -26s42.833 -8 67.5 -8c73.333 0 129.333 26.333 168 79
s58 131.667 58 237v410zM646 1888h299l3 -6l-249 -260h-229z" />
    <glyph glyph-name="oslashacute" unicode="&#x1ff;" horiz-adv-x="997" 
d="M58 607c0 145.333 38.5029 264.166 115.503 356.499s184.833 138.5 323.5 138.5c26.667 0 52.667 -2 78 -6s49.666 -9.66699 72.999 -17l57 138h152l-85 -206c53.333 -44 94.166 -100.833 122.499 -170.5s42.5 -147.5 42.5 -233.5v-134
c0 -146.667 -38.667 -265.667 -116 -357s-185 -137 -323 -137c-26.667 0 -51.834 1.83301 -75.501 5.5s-46.5 8.5 -68.5 14.5l-58 -142h-151l85 206c-56.667 42.667 -99.5 99.334 -128.5 170.001s-43.5 150.667 -43.5 240v134zM341.003 473
c0 -23.333 0.5 -43.999 1.5 -61.999s3.16699 -32.333 6.5 -43l6 -1l203 494c-9.33301 4 -19.166 7.16699 -29.499 9.5s-20.833 3.5 -31.5 3.5c-56.667 0 -96.834 -24.333 -120.501 -73s-35.5 -113.334 -35.5 -194.001v-134zM653.003 607.001
c0 18 -0.668945 34.498 -2.00195 49.498s-2.66602 27.167 -3.99902 36.5l-6 1l-197 -479c8 -3.33301 16.333 -5.66602 25 -6.99902s18.334 -2 29.001 -2c56 0 95.833 23.833 119.5 71.5s35.5 112.834 35.5 195.501v134zM499.001 1499h299l3 -6l-249 -260h-229z" />
    <glyph glyph-name="uni0218" unicode="&#x218;" horiz-adv-x="1109" 
d="M757 380c0 56.667 -14.6641 101.501 -43.9971 134.501s-81 65.5 -155 97.5c-151.333 52.667 -264.833 112.5 -340.5 179.5s-113.5 160.833 -113.5 281.5c0 119.333 44 216.5 132 291.5s200.333 112.5 337 112.5c138.667 0 251.334 -41.833 338.001 -125.5
s128.667 -189.167 126 -316.5l-2 -6h-276c0 66.667 -16.667 120.667 -50 162s-80.333 62 -141 62c-56.667 0 -100.834 -17.167 -132.501 -51.5s-47.5 -77.5 -47.5 -129.5c0 -48 17.667 -87.5 53 -118.5s96.666 -65.5 183.999 -103.5
c138 -46.667 241.833 -105.834 311.5 -177.501s104.5 -168.5 104.5 -290.5c0 -126 -42 -224.667 -126 -296s-195.667 -107 -335 -107c-138.667 0 -258.834 40.5 -360.501 121.5s-150.834 197.167 -147.501 348.5l2 6h277c0 -90 19 -154.667 57 -194s95.333 -59 172 -59
c60 0 104.5 16 133.5 48s43.5 75.333 43.5 130zM659.003 -257.999l-119 -231h-114l53 240v152h180v-161z" />
    <glyph glyph-name="uni0219" unicode="&#x219;" horiz-adv-x="888" 
d="M563 283c0 30.667 -11.9961 57.165 -35.9961 79.498s-70 49.833 -138 82.5c-108.667 40.667 -190.167 86.667 -244.5 138s-81.5 118 -81.5 200c0 88 34.833 163.167 104.5 225.5s161.834 93.5 276.501 93.5c120 0 215.667 -32 287 -96s105.666 -145.667 102.999 -245
l-3 -6h-274c0 45.333 -9.33301 81.333 -28 108s-47.334 40 -86.001 40c-30.667 0 -56.667 -10.333 -78 -31s-32 -45.667 -32 -75c0 -32 10.667 -57.833 32 -77.5s67.666 -46.5 138.999 -80.5c113.333 -38.667 197.333 -84.5 252 -137.5s82 -122.5 82 -208.5
c0 -92 -36.667 -167.333 -110 -226s-169.666 -88 -288.999 -88c-124.667 0 -223.334 36.333 -296.001 109s-107.334 154.667 -104.001 246l2 6h260c1.33301 -57.333 14.666 -98.666 39.999 -123.999s60.333 -38 105 -38c38 0 67 9.33301 87 28s30 44.334 30 77.001z
M532.004 -258.002l-119 -231h-114l53 240v152h180v-161z" />
    <glyph glyph-name="uni021A" unicode="&#x21a;" horiz-adv-x="994" 
d="M967 1228h-328v-1228h-284v1228h-326v228h938v-228zM609 16l-9 -58.999c34 -7.33301 62.833 -24.833 86.5 -52.5s35.5 -67.834 35.5 -120.501c0 -72 -26.833 -129.5 -80.5 -172.5s-129.5 -64.5 -227.5 -64.5l-6 163c22.667 0 40.5 6.83301 53.5 20.5
s19.5 34.834 19.5 63.501c0 28 -8.5 47.667 -25.5 59s-45.833 18.666 -86.5 21.999l27 141h213z" />
    <glyph glyph-name="uni021B" unicode="&#x21b;" horiz-adv-x="648" 
d="M430 1351l-0.000976562 -269h150v-206h-150v-543c0 -44 6.33301 -75.5 19 -94.5s30 -28.5 52 -28.5c17.333 0 32 0.833008 44 2.5s25.333 4.5 40 8.5l22 -216c-30 -9.33301 -58.667 -16 -86 -20s-58.333 -6 -93 -6c-91.333 0 -161.166 28.167 -209.499 84.5
s-72.5 145.833 -72.5 268.5v544h-128v206h128v269h284zM484.999 7l-9 -58.999c34 -7.33301 62.833 -24.833 86.5 -52.5s35.5 -67.834 35.5 -120.501c0 -72 -26.833 -129.5 -80.5 -172.5s-129.5 -64.5 -227.5 -64.5l-6 163c22.667 0 40.5 6.83301 53.5 20.5
s19.5 34.834 19.5 63.501c0 28 -8.5 47.667 -25.5 59s-45.833 18.666 -86.5 21.999l27 141h213z" />
    <glyph glyph-name="uni0237" unicode="&#x237;" horiz-adv-x="528" 
d="M411 1082l-0.00292969 -1115c0 -129.333 -30 -229 -90 -299s-143.333 -105 -250 -105c-23.333 0 -44.666 1.5 -63.999 4.5s-40.666 7.5 -63.999 13.5l13 222c14 -4 27 -7 39 -9s26 -3 42 -3c28.667 0 50.834 15.167 66.501 45.5s23.5 73.833 23.5 130.5v1115h284z" />
    <glyph glyph-name="schwa" unicode="&#x259;" horiz-adv-x="938" 
d="M442 1103c136 0 244.165 -49.833 324.498 -149.5s120.5 -225.834 120.5 -378.501v-41c0 -163.333 -37.333 -296.5 -112 -399.5s-177.667 -154.167 -309 -153.5c-127.333 0 -225.333 43.167 -294 129.5s-103 204.833 -103 355.5v161h531c-6.66699 74 -26 134 -58 180
s-76.667 69 -134 69c-54 0 -97.667 -6.16699 -131 -18.5s-72.666 -32.166 -117.999 -59.499l-73 181c37.333 34.667 87.333 64 150 88s131.334 36 206.001 36zM465.998 207c40 0 70.5 20.333 91.5 61s34.5 97 40.5 169h-251v-27c0 -64.667 9.33301 -114.667 28 -150
s49 -53 91 -53z" />
    <glyph glyph-name="uni02BC" unicode="&#x2bc;" horiz-adv-x="366" 
d="M332 1368l-146 -344h-137l49 344v192h234v-192z" />
    <glyph glyph-name="circumflex" unicode="&#x2c6;" horiz-adv-x="902" 
d="M783 1274v-22h-222l-114 134l-112 -134h-217v25l250 237h159z" />
    <glyph glyph-name="caron" unicode="&#x2c7;" horiz-adv-x="858" 
d="M426 1395l88 127h256v-17l-248 -253h-192l-248 255v15h256z" />
    <glyph glyph-name="breve" unicode="&#x2d8;" horiz-adv-x="829" 
d="M723 1456l1.99902 -6c2.66699 -86 -24.5 -155.833 -81.5 -209.5s-133.5 -80.5 -229.5 -80.5c-97.333 0 -174.666 27 -231.999 81s-84.333 123.667 -81 209l2 6h207c0 -35.333 8.5 -64.333 25.5 -87s43.167 -34 78.5 -34c34 0 59.167 11.333 75.5 34s24.5 51.667 24.5 87
h209z" />
    <glyph glyph-name="dotaccent" unicode="&#x2d9;" horiz-adv-x="579" 
d="M419 1229h-291v241h291v-241z" />
    <glyph glyph-name="ring" unicode="&#x2da;" horiz-adv-x="617" 
d="M117 1299c0 53.333 18.667 98.334 56 135.001s83.333 55 138 55c53.333 0 98.333 -18.333 135 -55s55 -81.667 55 -135c0 -54.667 -18.167 -99.334 -54.5 -134.001s-81.5 -52 -135.5 -52c-54.667 0 -100.667 17.5 -138 52.5s-56 79.5 -56 133.5zM225 1299
c0 -28 8 -50.833 24 -68.5s36.667 -26.5 62 -26.5c24.667 0 44.667 8.66699 60 26s23 40.333 23 69s-7.66699 52 -23 70s-35.333 27 -60 27c-25.333 0 -46 -9 -62 -27s-24 -41.333 -24 -70z" />
    <glyph glyph-name="ogonek" unicode="&#x2db;" horiz-adv-x="561" 
d="M362 0c-26.667 -35.333 -46 -65 -58 -89s-18 -52.333 -18 -85c0 -15.333 4.33301 -30.166 13 -44.499s27.667 -21.5 57 -21.5c15.333 0 28.666 1.83301 39.999 5.5s23.666 8.5 36.999 14.5l32 -151c-20.667 -12 -44.167 -22.333 -70.5 -31s-57.166 -13 -92.499 -13
c-65.333 0 -119.166 18.167 -161.499 54.5s-63.5 87.166 -63.5 152.499c0 50.667 12.5 98.667 37.5 144s64.5 85.333 118.5 120z" />
    <glyph glyph-name="tilde" unicode="&#x2dc;" horiz-adv-x="867" 
d="M763 1481c0 -63.333 -17.001 -117.167 -51.001 -161.5s-77.333 -66.5 -130 -66.5c-39.333 0 -84.833 14.667 -136.5 44s-92.167 44 -121.5 44c-18 0 -33.333 -11 -46 -33s-19 -48.333 -19 -79l-149 43c0 62 17.167 115.667 51.5 161s77.5 68 129.5 68
c30.667 0 73.834 -14.667 129.501 -44s98.5 -44 128.5 -44c18 0 33.5 10.833 46.5 32.5s19.5 48.5 19.5 80.5z" />
    <glyph glyph-name="hungarumlaut" unicode="&#x2dd;" horiz-adv-x="782" 
d="M645 1518h264l2 -5l-238 -261h-230zM297 1518h268l-207 -266h-227z" />
    <glyph glyph-name="uni02F3" unicode="&#x2f3;" horiz-adv-x="578" 
d="M135 -226c0 47.333 15.667 86.667 47 118s70.333 47 117 47c45.333 0 83.5 -15.667 114.5 -47s46.5 -70.666 46.5 -117.999c0 -46.667 -15.5 -85.334 -46.5 -116.001s-69.167 -46 -114.5 -46c-46.667 0 -85.667 15.5 -117 46.5s-47 69.5 -47 115.5zM240 -225.999
c0 -19.333 5.5 -35.5 16.5 -48.5s25.167 -19.5 42.5 -19.5c16 0 29.167 6.33301 39.5 19s15.5 29 15.5 49c0 21.333 -5.16699 38.5 -15.5 51.5s-23.5 19.5 -39.5 19.5c-17.333 0 -31.5 -6.5 -42.5 -19.5s-16.5 -30.167 -16.5 -51.5z" />
    <glyph glyph-name="gravecomb" unicode="&#x300;" horiz-adv-x="16" 
d="M-334 1195h-167l-165 303h218z" />
    <glyph glyph-name="acutecomb" unicode="&#x301;" horiz-adv-x="16" 
d="M-573 1505h219l-167 -303h-166z" />
    <glyph glyph-name="tildecomb" unicode="&#x303;" horiz-adv-x="17" 
d="M-138 1481c0 -63.333 -17.001 -117.167 -51.001 -161.5s-77.333 -66.5 -130 -66.5c-39.333 0 -84.833 14.667 -136.5 44s-92.167 44 -121.5 44c-18 0 -33.333 -11 -46 -33s-19 -48.333 -19 -79l-149 43c0 62 17.167 115.667 51.5 161s77.5 68 129.5 68
c30.667 0 73.834 -14.667 129.501 -44s98.5 -44 128.5 -44c18 0 33.5 10.833 46.5 32.5s19.5 48.5 19.5 80.5z" />
    <glyph glyph-name="hook" unicode="&#x309;" horiz-adv-x="16" 
d="M-620 1266l-17 128.999c40 2 68.5 8.33301 85.5 19s25.5 27.334 25.5 50.001c0 26 -9.16699 44.333 -27.5 55s-45.5 16 -81.5 16l6 131c112.667 0 198.167 -17 256.5 -51s87.5 -81.333 87.5 -142c0 -42.667 -11.833 -76 -35.5 -100s-52.5 -38.667 -86.5 -44v-63h-213z
" />
    <glyph glyph-name="uni030F" unicode="&#x30f;" horiz-adv-x="16" 
d="M-415 1252h-229l-238 261l2 5h263zM-103 1252h-227l-206 266h267z" />
    <glyph glyph-name="dotbelow" unicode="&#x323;" horiz-adv-x="16" 
d="M-341 -353h-316v241h316v-241z" />
    <glyph glyph-name="tonos" unicode="&#x384;" horiz-adv-x="646" 
d="M286 1623h262l-189 -350h-138z" />
    <glyph glyph-name="dieresistonos" unicode="&#x385;" horiz-adv-x="998" 
d="M846 1259h-234v197h234v-197zM370 1259h-235v197h235v-197zM456 1755h262l-162 -275h-135z" />
    <glyph glyph-name="Alphatonos" unicode="&#x386;" horiz-adv-x="1134" 
d="M765 309h-384l-78 -309h-287l410 1456h296l409 -1456h-287zM439 538h268l-131 515h-6zM139 1623h262l-189 -350h-138z" />
    <glyph glyph-name="anoteleia" unicode="&#x387;" horiz-adv-x="567" 
d="M418 560h-278v262h278v-262z" />
    <glyph glyph-name="Epsilontonos" unicode="&#x388;" horiz-adv-x="1108" 
d="M984 639h-489v-412h575v-227h-860v1456h858v-228h-573v-362h489v-227zM-57 1625h262l-189 -350h-138z" />
    <glyph glyph-name="Etatonos" unicode="&#x389;" horiz-adv-x="1341" 
d="M1231 0h-284v603h-452v-603h-285v1456h285v-626h452v626h284v-1456zM-21 1622h262l-189 -350h-138z" />
    <glyph glyph-name="Iotatonos" unicode="&#x38a;" horiz-adv-x="634" 
d="M508 0h-283v1456h283v-1456zM-14 1624h262l-189 -350h-138z" />
    <glyph glyph-name="Omicrontonos" unicode="&#x38c;" horiz-adv-x="1186" 
d="M1111 523c0 -170.667 -46.332 -304 -138.999 -400s-216 -144 -370 -144s-277 48 -369 144s-138 229.333 -138 400v408c0 170 46 303.5 138 400.5s214.667 145.5 368 145.5s276.666 -48.5 369.999 -145.5s140 -230.5 140 -400.5v-408zM828.001 933
c0 104 -19.333 182.501 -58 235.501s-95 79.5 -169 79.5c-74.667 0 -130.667 -26.333 -168 -79s-56 -131.334 -56 -236.001v-410c0 -105.333 19 -184.333 57 -237s94 -79 168 -79c73.333 0 129.333 26.333 168 79s58 131.667 58 237v410zM42.001 1623h262l-189 -350h-138z
" />
    <glyph glyph-name="Upsilontonos" unicode="&#x38e;" horiz-adv-x="1224" 
d="M658 832h6l243 624h309l-416 -938v-518h-284v536l-409 920h311zM-91 1623h262l-189 -350h-138z" />
    <glyph glyph-name="Omegatonos" unicode="&#x38f;" horiz-adv-x="1207" 
d="M647 235c44 25.333 77.832 81.001 101.499 167.001s35.5 209.333 35.5 370v90c0 123.333 -15.667 217.833 -47 283.5s-74.333 97.167 -129 94.5h-6c-54 2.66699 -96.333 -28.833 -127 -94.5s-46 -160.167 -46 -283.5v-90c0 -162 11.833 -285.833 35.5 -371.5
s58.834 -140.834 105.501 -165.501v-235h-434v230h216c-72 59.333 -130 136.5 -174 231.5s-66 198.5 -66 310.5v88c0 181.333 45.5 329.5 136.5 444.5s209.833 172.5 356.5 172.5c146 0 265.167 -57.5 357.5 -172.5s138.5 -263.167 138.5 -444.5v-88
c0 -112 -22.333 -215.333 -67 -310s-102.667 -172 -174 -232h223v-230h-436v235zM28.999 1623h262l-189 -350h-138z" />
    <glyph glyph-name="iotadieresistonos" unicode="&#x390;" horiz-adv-x="605" 
d="M396 1081l-0.00292969 -750.999c0 -46 5.16699 -78 15.5 -96s27.5 -27 51.5 -27c16.667 0 28.334 0.666992 35.001 2s22.334 5.66602 47.001 12.999l26 -215c-29.333 -10.667 -56.166 -18 -80.499 -22s-52.833 -6 -85.5 -6c-94 0 -166.333 29.167 -217 87.5
s-76 146.833 -76 265.5v749h284zM612.997 1197h-234v197h234v-197zM136.997 1197h-235v197h235v-197zM222.997 1693h262l-162 -275h-135z" />
    <glyph glyph-name="Alpha" unicode="&#x391;" horiz-adv-x="1134" 
d="M765 309h-384l-78 -309h-287l410 1456h296l409 -1456h-287zM439 538h268l-131 515h-6z" />
    <glyph glyph-name="Beta" unicode="&#x392;" horiz-adv-x="1136" 
d="M110 0v1456h429c150 0 267.167 -33.333 351.5 -100s126.5 -166 126.5 -298c0 -69.333 -15.333 -130.833 -46 -184.5s-76.667 -93.834 -138 -120.501c76.667 -18 133.334 -57 170.001 -117s55 -130.333 55 -211c0 -139.333 -39.833 -245 -119.5 -317
s-193.834 -108 -342.501 -108h-486zM395 642.001v-414.999h201c60 0 104.833 16.667 134.5 50s44.5 83 44.5 149c0 69.333 -12.667 122.666 -38 159.999s-66 56 -122 56h-220zM395 841.002l157 0.000976562c58 1.33301 102.5 18.166 133.5 50.499s46.5 78.833 46.5 139.5
c0 68 -16 117.833 -48 149.5s-80.333 47.5 -145 47.5h-144v-387z" />
    <glyph glyph-name="Gamma" unicode="&#x393;" horiz-adv-x="983" 
d="M931 1228h-535v-1228h-285v1456h820v-228z" />
    <glyph glyph-name="Delta" unicode="&#x394;" horiz-adv-x="1295" 
d="M507 1456h295l480 -1456h-1260zM391 227h522l-256 824h-6z" />
    <glyph glyph-name="Delta" unicode="&#x2206;" horiz-adv-x="1295" 
d="M507 1456h295l480 -1456h-1260zM391 227h522l-256 824h-6z" />
    <glyph glyph-name="Epsilon" unicode="&#x395;" horiz-adv-x="1008" 
d="M884 639h-489v-412h575v-227h-860v1456h858v-228h-573v-362h489v-227z" />
    <glyph glyph-name="Zeta" unicode="&#x396;" horiz-adv-x="998" 
d="M386 227h559v-227h-879v143l546 1086h-552v227h876v-138z" />
    <glyph glyph-name="Eta" unicode="&#x397;" horiz-adv-x="1241" 
d="M1131 0h-284v603h-452v-603h-285v1456h285v-626h452v626h284v-1456z" />
    <glyph glyph-name="Theta" unicode="&#x398;" horiz-adv-x="1215" 
d="M723 609h-281v226h281v-226zM1088 523c0 -170.667 -46.332 -304 -138.999 -400s-216 -144 -370 -144s-277 48 -369 144s-138 229.333 -138 400v408c0 170 46 303.5 138 400.5s214.667 145.5 368 145.5s276.666 -48.5 369.999 -145.5s140 -230.5 140 -400.5v-408z
M805.001 933c0 104 -19.333 182.501 -58 235.501s-95 79.5 -169 79.5c-74.667 0 -130.667 -26.333 -168 -79s-56 -131.334 -56 -236.001v-410c0 -105.333 19 -184.333 57 -237s94 -79 168 -79c73.333 0 129.333 26.333 168 79s58 131.667 58 237v410z" />
    <glyph glyph-name="Iota" unicode="&#x399;" horiz-adv-x="534" 
d="M408 0h-283v1456h283v-1456z" />
    <glyph glyph-name="Kappa" unicode="&#x39a;" horiz-adv-x="1137" 
d="M519 605h-124v-605h-285v1456h285v-592h92l284 592h349l-397 -665l430 -791h-346z" />
    <glyph glyph-name="Lambda" unicode="&#x39b;" horiz-adv-x="1138" 
d="M311 0h-297l406 1456h296l408 -1456h-298l-253 1122l-1 6h-6l-1 -5z" />
    <glyph glyph-name="Mu" unicode="&#x39c;" horiz-adv-x="1481" 
d="M474 1456l261 -1069h6l264 1069h371v-1456h-283v423l24 566l-6 1l-278 -990h-189l-275 982l-6 -1l25 -558v-423h-283v1456h369z" />
    <glyph glyph-name="Nu" unicode="&#x39d;" horiz-adv-x="1241" 
d="M1129 0h-283l-445 931l-6 -2v-929h-285v1456h285l445 -930l6 2v928h283v-1456z" />
    <glyph glyph-name="Xi" unicode="&#x39e;" horiz-adv-x="1002" 
d="M85 227h844v-227h-844v227zM185 844h646v-218h-646v218zM108 1456h782v-227h-782v227z" />
    <glyph glyph-name="Omicron" unicode="&#x39f;" horiz-adv-x="1166" 
d="M1091 523c0 -170.667 -46.332 -304 -138.999 -400s-216 -144 -370 -144s-277 48 -369 144s-138 229.333 -138 400v408c0 170 46 303.5 138 400.5s214.667 145.5 368 145.5s276.666 -48.5 369.999 -145.5s140 -230.5 140 -400.5v-408zM808.001 933
c0 104 -19.333 182.501 -58 235.501s-95 79.5 -169 79.5c-74.667 0 -130.667 -26.333 -168 -79s-56 -131.334 -56 -236.001v-410c0 -105.333 19 -184.333 57 -237s94 -79 168 -79c73.333 0 129.333 26.333 168 79s58 131.667 58 237v410z" />
    <glyph glyph-name="Pi" unicode="&#x3a0;" horiz-adv-x="1241" 
d="M1132 0h-284v1228h-453v-1228h-285v1456h1022v-1456z" />
    <glyph glyph-name="Rho" unicode="&#x3a1;" horiz-adv-x="1158" 
d="M395 522v-522h-285v1456h506c145.333 0 260 -43 344 -129s126 -198.667 126 -338c0 -140 -42.167 -252.833 -126.5 -338.5s-198.833 -128.5 -343.5 -128.5h-221zM395 750l221 -0.000976562c60.667 0 107 22.333 139 67s48 101.334 48 170.001
c0 69.333 -15.833 126.833 -47.5 172.5s-78.167 68.5 -139.5 68.5h-221v-478z" />
    <glyph glyph-name="Sigma" unicode="&#x3a3;" horiz-adv-x="1002" 
d="M731 730l-301 -503h519v-227h-879v144l359 595l-359 574v143h863v-227h-499l297 -481v-18z" />
    <glyph glyph-name="Tau" unicode="&#x3a4;" horiz-adv-x="994" 
d="M967 1228h-328v-1228h-284v1228h-326v228h938v-228z" />
    <glyph glyph-name="Upsilon" unicode="&#x3a5;" horiz-adv-x="1124" 
d="M558 832h6l243 624h309l-416 -938v-518h-284v536l-409 920h311z" />
    <glyph glyph-name="Phi" unicode="&#x3a6;" horiz-adv-x="1369" 
d="M833 1285c141.333 -6.66699 256.333 -61.499 345 -164.499s133 -236.167 133 -399.5c0 -160.667 -44.333 -291.334 -133 -392.001s-203.667 -154 -345 -160v-169h-283v169c-143.333 5.33301 -259.5 58 -348.5 158s-133.5 230.667 -133.5 392
c0 164.667 44.5 298.667 133.5 402s205.167 158 348.5 164v171h283v-171zM346 719.001c0 -92.667 18 -164.999 54 -216.999s84 -78.667 144 -80l6 1v606l-6 2c-60 -2 -108 -30.333 -144 -85s-54 -130.334 -54 -227.001zM1032 721.002c0 96 -17.5 171 -52.5 225
s-81.833 82.333 -140.5 85l-6 -2v-605l6 -2c58 2 104.667 29.333 140 82s53 125 53 217z" />
    <glyph glyph-name="Chi" unicode="&#x3a7;" horiz-adv-x="1127" 
d="M558 947h6l198 509h329l-353 -722l377 -734h-343l-204 520h-6l-204 -520h-331l362 734l-353 722h327z" />
    <glyph glyph-name="Psi" unicode="&#x3a8;" horiz-adv-x="1286" 
d="M789 599l6.00098 -1c54 9.33301 94.5 43.5 121.5 102.5s40.5 141.833 40.5 248.5v507h285v-507c0 -172.667 -40.5 -310.667 -121.5 -414s-191.5 -164 -331.5 -182v-353h-284v351c-144.667 14.667 -258.334 74 -341.001 178s-124 244 -124 420v507h284v-507
c0 -102 15.167 -182.833 45.5 -242.5s73.5 -95.5 129.5 -107.5l6 1v856h284v-857z" />
    <glyph glyph-name="Omega" unicode="&#x3a9;" horiz-adv-x="1187" 
d="M627 235c44 25.333 77.832 81.001 101.499 167.001s35.5 209.333 35.5 370v90c0 123.333 -15.667 217.833 -47 283.5s-74.333 97.167 -129 94.5h-6c-54 2.66699 -96.333 -28.833 -127 -94.5s-46 -160.167 -46 -283.5v-90c0 -162 11.833 -285.833 35.5 -371.5
s58.834 -140.834 105.501 -165.501v-235h-434v230h216c-72 59.333 -130 136.5 -174 231.5s-66 198.5 -66 310.5v88c0 181.333 45.5 329.5 136.5 444.5s209.833 172.5 356.5 172.5c146 0 265.167 -57.5 357.5 -172.5s138.5 -263.167 138.5 -444.5v-88
c0 -112 -22.333 -215.333 -67 -310s-102.667 -172 -174 -232h223v-230h-436v235z" />
    <glyph glyph-name="Omega" unicode="&#x2126;" horiz-adv-x="1187" 
d="M627 235c44 25.333 77.832 81.001 101.499 167.001s35.5 209.333 35.5 370v90c0 123.333 -15.667 217.833 -47 283.5s-74.333 97.167 -129 94.5h-6c-54 2.66699 -96.333 -28.833 -127 -94.5s-46 -160.167 -46 -283.5v-90c0 -162 11.833 -285.833 35.5 -371.5
s58.834 -140.834 105.501 -165.501v-235h-434v230h216c-72 59.333 -130 136.5 -174 231.5s-66 198.5 -66 310.5v88c0 181.333 45.5 329.5 136.5 444.5s209.833 172.5 356.5 172.5c146 0 265.167 -57.5 357.5 -172.5s138.5 -263.167 138.5 -444.5v-88
c0 -112 -22.333 -215.333 -67 -310s-102.667 -172 -174 -232h223v-230h-436v235z" />
    <glyph glyph-name="Iotadieresis" unicode="&#x3aa;" horiz-adv-x="534" 
d="M408 0h-283v1456h283v-1456zM619 1606h-250v198h250v-198zM171 1606h-251v198h251v-198z" />
    <glyph glyph-name="Upsilondieresis" unicode="&#x3ab;" horiz-adv-x="1124" 
d="M558 832h6l243 624h309l-416 -938v-518h-284v536l-409 920h311zM919 1605h-250v198h250v-198zM471 1605h-251v198h251v-198z" />
    <glyph glyph-name="alphatonos" unicode="&#x3ac;" horiz-adv-x="992" 
d="M892 1081l0.00195312 -733c0 -51.333 4.16699 -87.166 12.5 -107.499s22.166 -30.5 41.499 -30.5c2.66699 0 5 0.166992 7 0.5s3.66699 1.5 5 3.5l22 -212c-18.667 -8.66699 -36.334 -14.667 -53.001 -18s-36 -5 -58 -5c-54 0 -100.167 12.667 -138.5 38
s-67.833 63.666 -88.5 114.999c-26 -50 -57.333 -88 -94 -114s-79.667 -39 -129 -39c-114 0 -202.167 48.833 -264.5 146.5s-93.5 227.167 -93.5 388.5v21c0 170 31.167 307 93.5 411s150.833 156 265.5 156c44 0 83 -11.333 117 -34s63.667 -55 89 -97l18 110h248z
M346.002 514c0 -97.333 11.001 -173.002 33.001 -227.002s59.667 -81 113 -81c26.667 0 49.667 6 69 18s35.666 30 48.999 54c-1.33301 10.667 -2.16602 21.834 -2.49902 33.501s-0.5 23.834 -0.5 36.501v448c-13.333 24.667 -29.333 43.834 -48 57.501
s-40.334 20.5 -65.001 20.5c-52.667 0 -90.5 -30.833 -113.5 -92.5s-34.5 -143.834 -34.5 -246.501v-21zM487.003 1560h262l-189 -350h-138z" />
    <glyph glyph-name="epsilontonos" unicode="&#x3ad;" horiz-adv-x="988" 
d="M85 304c0 60.667 15.333 112.498 46 155.498s74.667 75.167 132 96.5c-50.667 24 -90.334 56.333 -119.001 97s-43 85.334 -43 134.001c0 99.333 38.667 176.333 116 231s180 82 308 82c111.333 0 204.5 -29.5 279.5 -88.5s110.833 -136.833 107.5 -233.5l-2 -6h-276
c0 36.667 -11.5 65.334 -34.5 86.001s-53.167 31 -90.5 31c-42 0 -73.167 -12.333 -93.5 -37s-30.5 -54 -30.5 -88c0 -36.667 11.167 -65.5 33.5 -86.5s53.5 -31.5 93.5 -31.5h156v-186h-156c-44.667 0 -79.667 -10.833 -105 -32.5s-38 -55.167 -38 -100.5
c0 -38 11.833 -70.167 35.5 -96.5s58.167 -39.5 103.5 -39.5c46 0 81.167 11.833 105.5 35.5s36.5 54.167 36.5 91.5h275l2 -6c2.66699 -106.667 -36.166 -188.5 -116.499 -245.5s-175.5 -85.5 -285.5 -85.5c-128 0 -233.333 28.833 -316 86.5s-124 136.5 -124 236.5z
M468 1559h262l-189 -350h-138z" />
    <glyph glyph-name="etatonos" unicode="&#x3ae;" 
d="M352 1082l11.998 -148c29.333 52.667 65.833 93.834 109.5 123.501s91.834 44.5 144.501 44.5c90.667 0 161.667 -35.5 213 -106.5s77 -184.167 77 -339.5v-1071h-285v1071c0 80 -9.33301 136.333 -28 169s-47 49 -85 49c-29.333 0 -55.666 -6.83301 -78.999 -20.5
s-43.333 -32.834 -60 -57.501v-796h-284v1082h265zM451.998 1560h262l-189 -350h-138z" />
    <glyph glyph-name="iotatonos" unicode="&#x3af;" horiz-adv-x="605" 
d="M396 1081l-0.00292969 -750.999c0 -46 5.16699 -78 15.5 -96s27.5 -27 51.5 -27c16.667 0 28.334 0.666992 35.001 2s22.334 5.66602 47.001 12.999l26 -215c-29.333 -10.667 -56.166 -18 -80.499 -22s-52.833 -6 -85.5 -6c-94 0 -166.333 29.167 -217 87.5
s-76 146.833 -76 265.5v749h284zM225.997 1538h262l-189 -350h-138z" />
    <glyph glyph-name="upsilondieresistonos" unicode="&#x3b0;" 
d="M378 1082l0.000976562 -611.001c0 -94 11.833 -161.5 35.5 -202.5s54.167 -59.5 91.5 -55.5h6c49.333 -3.33301 85.333 28.667 108 96s34 151.333 34 252c-2 86 -10 172.5 -24 259.5s-33.333 174.167 -58 261.5h267c29.333 -70 53 -148.333 71 -235s27 -182 27 -286
c0 -179.333 -32.5 -321.166 -97.5 -425.499s-172.167 -156.5 -321.5 -156.5c-132.667 0 -236.334 40.667 -311.001 122s-112 205.333 -112 372v609h284zM862.001 1198h-234v197h234v-197zM386.001 1198h-235v197h235v-197zM472.001 1694h262l-162 -275h-135z" />
    <glyph glyph-name="alpha" unicode="&#x3b1;" horiz-adv-x="992" 
d="M892 1081l0.00195312 -733c0 -51.333 4.16699 -87.166 12.5 -107.499s22.166 -30.5 41.499 -30.5c2.66699 0 5 0.166992 7 0.5s3.66699 1.5 5 3.5l22 -212c-18.667 -8.66699 -36.334 -14.667 -53.001 -18s-36 -5 -58 -5c-54 0 -100.167 12.667 -138.5 38
s-67.833 63.666 -88.5 114.999c-26 -50 -57.333 -88 -94 -114s-79.667 -39 -129 -39c-114 0 -202.167 48.833 -264.5 146.5s-93.5 227.167 -93.5 388.5v21c0 170 31.167 307 93.5 411s150.833 156 265.5 156c44 0 83 -11.333 117 -34s63.667 -55 89 -97l18 110h248z
M346.002 514c0 -97.333 11.001 -173.002 33.001 -227.002s59.667 -81 113 -81c26.667 0 49.667 6 69 18s35.666 30 48.999 54c-1.33301 10.667 -2.16602 21.834 -2.49902 33.501s-0.5 23.834 -0.5 36.501v448c-13.333 24.667 -29.333 43.834 -48 57.501
s-40.334 20.5 -65.001 20.5c-52.667 0 -90.5 -30.833 -113.5 -92.5s-34.5 -143.834 -34.5 -246.501v-21z" />
    <glyph glyph-name="beta" unicode="&#x3b2;" horiz-adv-x="1064" 
d="M546 1477c125.333 0 224.998 -34.8311 298.998 -104.498s111 -166.167 111 -289.5c0 -67.333 -15.167 -128.833 -45.5 -184.5s-71.833 -99.5 -124.5 -131.5c70 -28.667 124.167 -73.834 162.5 -135.501s57.5 -135.834 57.5 -222.501
c0 -136.667 -33.333 -242.5 -100 -317.5s-158.667 -112.5 -276 -112.5c-39.333 0 -78.666 5.5 -117.999 16.5s-75.666 27.5 -108.999 49.5v-454h-283v1439c0 132 41 239.5 123 322.5s183 124.5 303 124.5zM542.998 853.002c44.667 0 77.499 17.667 98.499 53
s31.5 87 31.5 155c0 52 -11.167 96.333 -33.5 133s-53.5 55 -93.5 55c-42.667 0 -77.167 -20 -103.5 -60s-39.5 -93 -39.5 -159v-777c19.333 -15.333 42.333 -27 69 -35s56.334 -12 89.001 -12c48.667 0 87.5 19.333 116.5 58s43.5 88.667 43.5 150
c0 74.667 -13.5 132.167 -40.5 172.5s-65.833 60.5 -116.5 60.5h-71v206h50z" />
    <glyph glyph-name="gamma" unicode="&#x3b3;" horiz-adv-x="909" 
d="M597 1082h297l-299 -1079v-419h-284v434l-296 1064h297l127 -674l13 -82h6l14 82z" />
    <glyph glyph-name="delta" unicode="&#x3b4;" 
d="M846 1456l0.000976562 -227h-308c103.333 -91.333 195.666 -195.5 276.999 -312.5s122 -238.833 122 -365.5v-22c0 -163.333 -38.5 -295.833 -115.5 -397.5s-184.833 -152.5 -323.5 -152.5c-139.333 0 -247.5 48 -324.5 144s-115.5 221.333 -115.5 376v22
c0 132 30.167 243.833 90.5 335.5s136.833 146.5 229.5 164.5c-32.667 44 -68 87.667 -106 131s-76.667 83.333 -116 120v184h690zM341.001 529c0 -100 11.668 -178.668 35.001 -236.001s63 -84.333 119 -81h6c54.667 -3.33301 93.667 23.834 117 81.501
s35 136.167 35 235.5v22c0 74 -12 138.5 -36 193.5s-54.667 95.5 -92 121.5c-6 2.66699 -11 4.66699 -15 6s-8.33301 2 -13 2c-56.667 0 -96.834 -29.5 -120.501 -88.5s-35.5 -137.167 -35.5 -234.5v-22zM379.002 1021h-1h1c0.666992 0 0.666992 0 0 0z" />
    <glyph glyph-name="epsilon" unicode="&#x3b5;" horiz-adv-x="988" 
d="M85 304c0 60.667 15.333 112.498 46 155.498s74.667 75.167 132 96.5c-50.667 24 -90.334 56.333 -119.001 97s-43 85.334 -43 134.001c0 99.333 38.667 176.333 116 231s180 82 308 82c111.333 0 204.5 -29.5 279.5 -88.5s110.833 -136.833 107.5 -233.5l-2 -6h-276
c0 36.667 -11.5 65.334 -34.5 86.001s-53.167 31 -90.5 31c-42 0 -73.167 -12.333 -93.5 -37s-30.5 -54 -30.5 -88c0 -36.667 11.167 -65.5 33.5 -86.5s53.5 -31.5 93.5 -31.5h156v-186h-156c-44.667 0 -79.667 -10.833 -105 -32.5s-38 -55.167 -38 -100.5
c0 -38 11.833 -70.167 35.5 -96.5s58.167 -39.5 103.5 -39.5c46 0 81.167 11.833 105.5 35.5s36.5 54.167 36.5 91.5h275l2 -6c2.66699 -106.667 -36.166 -188.5 -116.499 -245.5s-175.5 -85.5 -285.5 -85.5c-128 0 -233.333 28.833 -316 86.5s-124 136.5 -124 236.5z" />
    <glyph glyph-name="zeta" unicode="&#x3b6;" horiz-adv-x="891" 
d="M834 1456l0.00195312 -156.998l-299 -444c-58.667 -89.333 -100.334 -164.166 -125.001 -224.499s-37 -129.5 -37 -207.5c0 -66 12.333 -116 37 -150s63.334 -51 116.001 -51h43c84 0 150.833 -24.333 200.5 -73s74.5 -116.334 74.5 -203.001
c-0.666992 -84.667 -27.167 -160.667 -79.5 -228s-124.833 -114.333 -217.5 -141l-93 196c35.333 17.333 63.666 37.666 84.999 60.999s32 52 32 86c0 26 -8.33301 45.833 -25 59.5s-44.334 20.5 -83.001 20.5h-36c-109.333 0 -192.833 36.667 -250.5 110
s-86.5 162.666 -86.5 267.999c0 103.333 18.5 199 55.5 287s95.5 191 175.5 309l177 256h-430v226h766z" />
    <glyph glyph-name="eta" unicode="&#x3b7;" 
d="M352 1082l11.998 -148c29.333 52.667 65.833 93.834 109.5 123.501s91.834 44.5 144.501 44.5c90.667 0 161.667 -35.5 213 -106.5s77 -184.167 77 -339.5v-1071h-285v1071c0 80 -9.33301 136.333 -28 169s-47 49 -85 49c-29.333 0 -55.666 -6.83301 -78.999 -20.5
s-43.333 -32.834 -60 -57.501v-796h-284v1082h265z" />
    <glyph glyph-name="theta" unicode="&#x3b8;" horiz-adv-x="1049" 
d="M950 571c0 -194 -38.5 -341.167 -115.5 -441.5s-180.167 -150.5 -309.5 -150.5c-130.667 0 -234.667 50.167 -312 150.5s-116 247.5 -116 441.5v313c0 193.333 38.5 340.5 115.5 441.5s180.5 151.5 310.5 151.5s233.667 -50.5 311 -151.5s116 -248.167 116 -441.5v-313z
M666 623h-285.001v-75c0 -118.667 12.333 -205.167 37 -259.5s59.334 -79.5 104.001 -75.5h6c44 -4 78 21 102 75s36 140.667 36 260v75zM380.999 841h285v68c0 117.333 -12.333 203 -37 257s-59 79.333 -103 76h-6c-44.667 3.33301 -79 -22 -103 -76s-36 -139.667 -36 -257
v-68z" />
    <glyph glyph-name="iota" unicode="&#x3b9;" horiz-adv-x="605" 
d="M396 1081l-0.00292969 -750.999c0 -46 5.16699 -78 15.5 -96s27.5 -27 51.5 -27c16.667 0 28.334 0.666992 35.001 2s22.334 5.66602 47.001 12.999l26 -215c-29.333 -10.667 -56.166 -18 -80.499 -22s-52.833 -6 -85.5 -6c-94 0 -166.333 29.167 -217 87.5
s-76 146.833 -76 265.5v749h284z" />
    <glyph glyph-name="kappa" unicode="&#x3ba;" horiz-adv-x="1062" 
d="M481 402h-88v-402h-284v1082h284v-409h66l199 409h361l-311 -493l2 1l315 -590h-364z" />
    <glyph glyph-name="lambda" unicode="&#x3bb;" horiz-adv-x="937" 
d="M312 0l-304.003 -0.00292969l312 1066l-46 107c-12 34.667 -29.167 62.834 -51.5 84.501s-47.5 32.5 -75.5 32.5c-6.66699 0 -15.834 -0.666992 -27.501 -2s-21.167 -2.66602 -28.5 -3.99902l-5 211c30 8 53.833 13.833 71.5 17.5s38.167 5.5 61.5 5.5
c95.333 0 166.5 -26.333 213.5 -79s83.5 -117.334 109.5 -194.001l308 -895c8.66699 -34.667 20.834 -63.667 36.501 -87s34.5 -37.666 56.5 -42.999c5.33301 -2 11.666 -3.16699 18.999 -3.5s15 -0.166016 23 0.500977l-21 -220c-21.333 -4 -42.666 -6.66699 -63.999 -8
s-42.666 -1 -63.999 1c-75.333 6.66699 -134.666 42.167 -177.999 106.5s-77.666 138.833 -102.999 223.5l-101 341h-6l-5 -27z" />
    <glyph glyph-name="uni03BC" unicode="&#x3bc;" horiz-adv-x="1113" 
d="M405 1082v-637c0.666992 -91.333 11.834 -153.5 33.501 -186.5s55.167 -49.5 100.5 -49.5c34.667 0 64.167 8 88.5 24s44.166 39.333 59.499 70v779h284v-1082h-267l-4 51c-23.333 -24 -49.333 -42 -78 -54s-59.667 -18 -93 -18c-24 0 -46.333 3 -67 9
s-39.667 14.667 -57 26v-430h-285v1498h285z" />
    <glyph glyph-name="nu" unicode="&#x3bd;" horiz-adv-x="909" 
d="M439 408l13 -82h6l14 82l125 674h297l-300 -1082h-278l-301 1082h297z" />
    <glyph glyph-name="xi" unicode="&#x3be;" horiz-adv-x="958" 
d="M854 1456l0.00292969 -235h-232c-56.667 0 -98.667 -13.5 -126 -40.5s-41 -64.5 -41 -112.5c0 -50 12.667 -89.333 38 -118s65 -43 119 -43h132v-236h-123c-82 0 -143.167 -21 -183.5 -63s-60.5 -104.667 -60.5 -188c0 -62 14.167 -111.667 42.5 -149
s67.833 -56 118.5 -56h120c86.667 0 155.5 -23.333 206.5 -70s76.5 -114.667 76.5 -204c-1.33301 -96.667 -26.833 -177 -76.5 -241s-123.834 -111.333 -222.501 -142l-75 171c30.667 16.667 57.5 37.167 80.5 61.5s34.5 55.5 34.5 93.5c0 30.667 -8 54.5 -24 71.5
s-41 25.5 -75 25.5h-62c-132.667 0 -237.334 38.833 -314.001 116.5s-115 186.5 -115 326.5c0 88.667 21.5 163.667 64.5 225s106.167 107.333 189.5 138c-56.667 22 -100 52.5 -130 91.5s-45 85.5 -45 139.5c0 46 10.667 86 32 120s52.666 61.667 93.999 83h-180v235h737z
" />
    <glyph glyph-name="omicron" unicode="&#x3bf;" 
d="M58 607c0 145.333 38.5 264.166 115.5 356.499s184.833 138.5 323.5 138.5s246.667 -46.167 324 -138.5s116 -211.166 116 -356.499v-134c0 -146.667 -38.667 -265.667 -116 -357s-185 -137 -323 -137c-139.333 0 -247.5 45.667 -324.5 137s-115.5 210.333 -115.5 357
v134zM341 473c0 -83.333 11.6689 -148.666 35.002 -195.999s64 -71 122 -71c56 0 95.833 23.833 119.5 71.5s35.5 112.834 35.5 195.501v134c0 81.333 -11.833 146.166 -35.5 194.499s-63.834 72.5 -120.501 72.5s-96.834 -24.333 -120.501 -73
s-35.5 -113.334 -35.5 -194.001v-134z" />
    <glyph glyph-name="pi" unicode="&#x3c0;" horiz-adv-x="1167" 
d="M1070 868l-132.003 0.000976562v-537c0 -46 5.16699 -78 15.5 -96s27.5 -27 51.5 -27c16.667 0 28.334 0.666992 35.001 2s22.334 5.66602 47.001 12.999l26 -215c-29.333 -10.667 -56.166 -18 -80.499 -22s-52.833 -6 -85.5 -6c-94 0 -166.333 29.167 -217 87.5
s-76 146.833 -76 265.5v535h-165v-868h-284v868h-131v214h996v-214z" />
    <glyph glyph-name="rho" unicode="&#x3c1;" 
d="M939 514c0 -161.333 -31.168 -290.832 -93.501 -388.499s-149.833 -146.5 -262.5 -146.5c-44 0 -83.167 8.66699 -117.5 26s-64.166 43 -89.499 77v-498h-284v997h2l-2 1c0 154.667 38.333 280 115 376s182.667 144 318 144c132 0 234 -51.833 306 -155.5
s108 -240.834 108 -411.501v-21zM654.999 535.001c0 102 -11.501 183.5 -34.501 244.5s-59.167 90.167 -108.5 87.5h-6c-43.333 2.66699 -75.833 -25.333 -97.5 -84s-32.5 -135 -32.5 -229l-1 -1h1v-276c13.333 -23.333 30.833 -41 52.5 -53s48.167 -18 79.5 -18
c52.667 0 90.334 27.167 113.001 81.5s34 129.833 34 226.5v21z" />
    <glyph glyph-name="sigma1" unicode="&#x3c2;" horiz-adv-x="895" 
d="M481 1102c116.667 0 209.331 -37.166 277.998 -111.499s102 -176.5 100 -306.5l-2 -5h-259c0 59.333 -9.33301 106.666 -28 141.999s-48.334 53 -89.001 53c-55.333 0 -93.666 -29 -114.999 -87s-32 -135.667 -32 -233v-28c0 -94 16 -165.167 48 -213.5
s85.333 -79.166 160 -92.499c110.667 -19.333 191.667 -50.833 243 -94.5s77 -109.834 77 -198.501c-2 -84.667 -29 -160.5 -81 -227.5s-124 -113.5 -216 -139.5l-92 196c34.667 18 62.5 38.5 83.5 61.5s31.5 51.167 31.5 84.5c0 27.333 -10.167 48.666 -30.5 63.999
s-51.166 27.333 -92.499 36c-141.333 22.667 -246 77.834 -314 165.501s-102 207.167 -102 358.5v28c0 160.667 37.333 292.167 112 394.5s181.334 153.5 320.001 153.5z" />
    <glyph glyph-name="sigma" unicode="&#x3c3;" horiz-adv-x="1013" 
d="M984 854l-217.002 0.000976562c44.667 -44 81.167 -95.5 109.5 -154.5s42.5 -120.833 42.5 -185.5v-23c0 -150.667 -37.167 -273.667 -111.5 -369s-178.166 -143 -311.499 -143c-139.333 0 -247.333 50.833 -324 152.5s-115 234.167 -115 397.5v22
c0 157.333 38.333 285.166 115 383.499s184.334 147.5 323.001 147.5c0 -0.666992 0.333008 -1 1 -1l488 1v-228zM339.998 529.001c0 -100 11.501 -178.497 34.501 -235.497s62.5 -83.833 118.5 -80.5h6c48.667 -3.33301 83.5 23.667 104.5 81s31.5 135.666 31.5 234.999v22
c0 91.333 -10.667 164.666 -32 219.999s-57 83 -107 83c-56.667 0 -96.834 -27.833 -120.501 -83.5s-35.5 -128.834 -35.5 -219.501v-22z" />
    <glyph glyph-name="tau" unicode="&#x3c4;" horiz-adv-x="931" 
d="M893 856h-284v-856h-284v856h-281v226h849v-226z" />
    <glyph glyph-name="upsilon" unicode="&#x3c5;" 
d="M378 1082l0.000976562 -611.001c0 -94 11.833 -161.5 35.5 -202.5s54.167 -59.5 91.5 -55.5h6c49.333 -3.33301 85.333 28.667 108 96s34 151.333 34 252c-2 86 -10 172.5 -24 259.5s-33.333 174.167 -58 261.5h267c29.333 -70 53 -148.333 71 -235s27 -182 27 -286
c0 -179.333 -32.5 -321.166 -97.5 -425.499s-172.167 -156.5 -321.5 -156.5c-132.667 0 -236.334 40.667 -311.001 122s-112 205.333 -112 372v609h284z" />
    <glyph glyph-name="phi" unicode="&#x3c6;" horiz-adv-x="1337" 
d="M802 1082c157.333 0 276.668 -54.668 358.001 -164.001s122 -235.666 122 -378.999c0 -146 -37.833 -269 -113.5 -369s-197.834 -160.667 -366.501 -182v-466h-284v468c-168 26 -289.667 93.667 -365 203s-113 243.333 -113 402c0 97.333 9.83301 186.666 29.5 267.999
s46.167 154.333 79.5 219h257c-24.667 -84.667 -44.167 -167.167 -58.5 -247.5s-21.833 -160.166 -22.5 -239.499c0 -94 14.5 -171.833 43.5 -233.5s76.833 -102.167 143.5 -121.5l6 1v841h284zM802.002 232.999l5.99902 -1.99902c68 16 116.667 50.667 146 104
s44 121.333 44 204c-1.33301 93.333 -18.166 168.666 -50.499 225.999s-78.833 84 -139.5 80l-6 -2v-610z" />
    <glyph glyph-name="chi" unicode="&#x3c7;" horiz-adv-x="941" 
d="M164 1098c91.333 0 159.335 -26.5029 204.002 -79.5029s78.667 -117.167 102 -192.5l36 -101h6l145 357h287l-302 -735l149 -415c8 -33.333 20 -61.666 36 -84.999s34.667 -38 56 -44c6 -1.33301 12.5 -2.16602 19.5 -2.49902s14.833 -0.5 23.5 -0.5l-13 -221
c-20.667 -4.66699 -42.834 -7.66699 -66.501 -9s-46.834 -1 -69.501 1c-66 7.33301 -119.167 43.333 -159.5 108s-72.166 139 -95.499 223l-27 75h-6l-161 -392h-278l311 768l-142 401c-10.667 36 -29.334 64.167 -56.001 84.5s-55.667 30.5 -87 30.5
c-6.66699 0 -16 -0.666992 -28 -2s-21 -2.66602 -27 -3.99902l-6 212c34 8 60.833 13.833 80.5 17.5s42.5 5.5 68.5 5.5z" />
    <glyph glyph-name="psi" unicode="&#x3c8;" horiz-adv-x="1336" 
d="M801 1081l0.00195312 -840.001l6 -1c65.333 20 113.166 61.333 143.499 124s45.5 140.667 45.5 234c-1.33301 77.333 -9.33301 155.833 -24 235.5s-34.667 162.5 -60 248.5h258c33.333 -65.333 60.166 -138.166 80.499 -218.499s30.5 -168.833 30.5 -265.5
c0 -162 -38 -298.333 -114 -409s-198 -177.667 -366 -201v-461h-284v464c-148 23.333 -262.167 83.833 -342.5 181.5s-120.5 236.167 -120.5 415.5v494h285v-496c0 -99.333 15.333 -177.333 46 -234s72.667 -93 126 -109l6 1v837h284z" />
    <glyph glyph-name="omega" unicode="&#x3c9;" horiz-adv-x="1507" 
d="M462 1082c-34.667 -85.333 -61.832 -171.667 -81.499 -259s-30.5 -174.666 -32.5 -261.999c0 -104 9.16699 -188.833 27.5 -254.5s49.833 -96.5 94.5 -92.5l6 -1c36.667 -4 67 16.833 91 62.5s36 118.5 36 218.5v352h300v-352c0 -100 11.833 -172.833 35.5 -218.5
s54.167 -66.5 91.5 -62.5l6 1c43.333 -4 74.5 26.833 93.5 92.5s28.5 150.5 28.5 254.5c-2.66699 87.333 -13.834 174.5 -33.501 261.5s-46.834 173.5 -81.501 259.5h266c40 -70 72.167 -148.333 96.5 -235s36.5 -182 36.5 -286c0 -180.667 -30.667 -322.834 -92 -426.501
s-164 -155.5 -308 -155.5c-64.667 0 -121.667 17.333 -171 52s-88.666 85.667 -117.999 153c-30 -67.333 -69.667 -118.333 -119 -153s-106 -52 -170 -52c-144 0 -246.5 52 -307.5 156s-91.5 246 -91.5 426c0 104 11.833 199.333 35.5 286s55.5 165 95.5 235h266z" />
    <glyph glyph-name="iotadieresis" unicode="&#x3ca;" horiz-adv-x="605" 
d="M396 1081l-0.00292969 -750.999c0 -46 5.16699 -78 15.5 -96s27.5 -27 51.5 -27c16.667 0 28.334 0.666992 35.001 2s22.334 5.66602 47.001 12.999l26 -215c-29.333 -10.667 -56.166 -18 -80.499 -22s-52.833 -6 -85.5 -6c-94 0 -166.333 29.167 -217 87.5
s-76 146.833 -76 265.5v749h284zM618.997 1262h-250v198h250v-198zM170.997 1262h-251v198h251v-198z" />
    <glyph glyph-name="upsilondieresis" unicode="&#x3cb;" 
d="M378 1082l0.000976562 -611.001c0 -94 11.833 -161.5 35.5 -202.5s54.167 -59.5 91.5 -55.5h6c49.333 -3.33301 85.333 28.667 108 96s34 151.333 34 252c-2 86 -10 172.5 -24 259.5s-33.333 174.167 -58 261.5h267c29.333 -70 53 -148.333 71 -235s27 -182 27 -286
c0 -179.333 -32.5 -321.166 -97.5 -425.499s-172.167 -156.5 -321.5 -156.5c-132.667 0 -236.334 40.667 -311.001 122s-112 205.333 -112 372v609h284zM868.001 1263h-250v198h250v-198zM420.001 1263h-251v198h251v-198z" />
    <glyph glyph-name="omicrontonos" unicode="&#x3cc;" 
d="M58 607c0 145.333 38.5 264.166 115.5 356.499s184.833 138.5 323.5 138.5s246.667 -46.167 324 -138.5s116 -211.166 116 -356.499v-134c0 -146.667 -38.667 -265.667 -116 -357s-185 -137 -323 -137c-139.333 0 -247.5 45.667 -324.5 137s-115.5 210.333 -115.5 357
v134zM341 473c0 -83.333 11.6689 -148.666 35.002 -195.999s64 -71 122 -71c56 0 95.833 23.833 119.5 71.5s35.5 112.834 35.5 195.501v134c0 81.333 -11.833 146.166 -35.5 194.499s-63.834 72.5 -120.501 72.5s-96.834 -24.333 -120.501 -73
s-35.5 -113.334 -35.5 -194.001v-134zM452.002 1560h262l-189 -350h-138z" />
    <glyph glyph-name="upsilontonos" unicode="&#x3cd;" 
d="M378 1082l0.000976562 -611.001c0 -94 11.833 -161.5 35.5 -202.5s54.167 -59.5 91.5 -55.5h6c49.333 -3.33301 85.333 28.667 108 96s34 151.333 34 252c-2 86 -10 172.5 -24 259.5s-33.333 174.167 -58 261.5h267c29.333 -70 53 -148.333 71 -235s27 -182 27 -286
c0 -179.333 -32.5 -321.166 -97.5 -425.499s-172.167 -156.5 -321.5 -156.5c-132.667 0 -236.334 40.667 -311.001 122s-112 205.333 -112 372v609h284zM475.001 1539h262l-189 -350h-138z" />
    <glyph glyph-name="omegatonos" unicode="&#x3ce;" horiz-adv-x="1507" 
d="M462 1082c-34.667 -85.333 -61.832 -171.667 -81.499 -259s-30.5 -174.666 -32.5 -261.999c0 -104 9.16699 -188.833 27.5 -254.5s49.833 -96.5 94.5 -92.5l6 -1c36.667 -4 67 16.833 91 62.5s36 118.5 36 218.5v352h300v-352c0 -100 11.833 -172.833 35.5 -218.5
s54.167 -66.5 91.5 -62.5l6 1c43.333 -4 74.5 26.833 93.5 92.5s28.5 150.5 28.5 254.5c-2.66699 87.333 -13.834 174.5 -33.501 261.5s-46.834 173.5 -81.501 259.5h266c40 -70 72.167 -148.333 96.5 -235s36.5 -182 36.5 -286c0 -180.667 -30.667 -322.834 -92 -426.501
s-164 -155.5 -308 -155.5c-64.667 0 -121.667 17.333 -171 52s-88.666 85.667 -117.999 153c-30 -67.333 -69.667 -118.333 -119 -153s-106 -52 -170 -52c-144 0 -246.5 52 -307.5 156s-91.5 246 -91.5 426c0 104 11.833 199.333 35.5 286s55.5 165 95.5 235h266z
M711.002 1539h262l-189 -350h-138z" />
    <glyph glyph-name="uni03D1" unicode="&#x3d1;" horiz-adv-x="1231" 
d="M636 215c64.667 0 115.501 28.5 152.501 85.5s55.833 136.5 56.5 238.5c-105.333 10.667 -193.833 55 -265.5 133s-107.5 173.333 -107.5 286v109c0 124.667 32 224.167 96 298.5s147 111.5 249 111.5c101.333 0 181.166 -36.333 239.499 -109s87.5 -173 87.5 -301v-523
c0 -171.333 -46.5 -308.333 -139.5 -411s-215.833 -154 -368.5 -154c-156.667 0 -283.5 53.167 -380.5 159.5s-145.5 241.5 -145.5 405.5v708l301 2v-710c0 -98 20 -177.333 60 -238s95 -91 165 -91zM739.001 956c0 -52 8.99902 -96.001 26.999 -132.001
s42.333 -57.333 73 -64l6 2v336c0 42 -3.66699 73.333 -11 94s-17.666 29.334 -30.999 26.001h-6c-16.667 3.33301 -30.5 -5.66699 -41.5 -27s-16.5 -52.333 -16.5 -93v-142z" />
    <glyph glyph-name="uni03D2" unicode="&#x3d2;" horiz-adv-x="1059" 
d="M659 1197c35.333 105.333 75.668 179.167 121.001 221.5s108.333 63.5 189 63.5c16 0 31.333 -1.5 46 -4.5s28.334 -7.83301 41.001 -14.5l-22 -222c-1.33301 0.666992 -7 1.66699 -17 3s-17.667 2 -23 2c-21.333 0 -39 -9.83301 -53 -29.5s-24.667 -46.5 -32 -80.5
l-243 -672v-464h-284v486l-234 650c-8 34 -19.167 60.833 -33.5 80.5s-31.833 29.5 -52.5 29.5c-6 0 -14 -0.666992 -24 -2s-15.667 -2.33301 -17 -3l-19 222c11.333 6.66699 24.166 11.5 38.499 14.5s30.166 4.5 47.499 4.5c81.333 0 144.333 -20.167 189 -60.5
s84.667 -112.5 120 -216.5l117 -385l11 -67h6l12 67z" />
    <glyph glyph-name="uni03D6" unicode="&#x3d6;" horiz-adv-x="1472" 
d="M1465 883l-109.001 -0.00292969c14.667 -49.333 26 -100.666 34 -153.999s12 -109.333 12 -168c0 -180 -29 -322 -87 -426s-154.667 -156 -290 -156c-65.333 0 -122.5 17.5 -171.5 52.5s-88.167 86.167 -117.5 153.5c-30 -67.333 -69.5 -118.5 -118.5 -153.5
s-105.833 -52.5 -170.5 -52.5c-135.333 0 -232 52 -290 156s-87 246 -87 426c0 58.667 3.83301 114.834 11.5 168.501s18.834 104.834 33.501 153.501h-102v199h1452v-199zM1118 560.997c-2 54 -6.83301 107.833 -14.5 161.5s-18.5 107.167 -32.5 160.5h-670
c-14 -53.333 -24.833 -107 -32.5 -161s-12.167 -107.667 -13.5 -161c0 -104.667 7.33301 -189.667 22 -255s40.667 -96 78 -92h6c35.333 -4.66699 65 15.833 89 61.5s36 118.5 36 218.5v202h301v-202c0 -100 11.667 -172.833 35 -218.5s53.333 -66.167 90 -61.5h6
c36 -4 61.667 26.667 77 92s23 150.333 23 255z" />
    <glyph glyph-name="uni0400" unicode="&#x400;" horiz-adv-x="1008" 
d="M884 639h-489v-412h575v-227h-860v1456h858v-228h-573v-362h489v-227zM659 1559h-230l-246 260l3 6h298z" />
    <glyph glyph-name="uni0401" unicode="&#x401;" horiz-adv-x="1008" 
d="M884 639h-489v-412h575v-227h-860v1456h858v-228h-573v-362h489v-227zM863 1606h-250v198h250v-198zM415 1606h-251v198h251v-198z" />
    <glyph glyph-name="uni0402" unicode="&#x402;" horiz-adv-x="1313" 
d="M991 1228h-383.001v-364c34.667 9.33301 67.5 16.666 98.5 21.999s61.5 8 91.5 8c143.333 0 256.5 -38.333 339.5 -115s124.5 -189.667 124.5 -339c0 -128 -38 -236 -114 -324s-196.667 -131 -362 -129l-6 3v206c82.667 0 136 21 160 63s36.667 97.333 38 166
c0 72.667 -15.5 130.834 -46.5 174.501s-75.5 65.5 -133.5 65.5c-35.333 0 -68.166 -1.66699 -98.499 -5s-60.833 -8 -91.5 -14v-646h-285v1228h-296v228h964v-228z" />
    <glyph glyph-name="uni0403" unicode="&#x403;" horiz-adv-x="983" 
d="M931 1228h-535v-1228h-285v1456h820v-228zM553 1826h299l3 -6l-249 -260h-229z" />
    <glyph glyph-name="uni0404" unicode="&#x404;" horiz-adv-x="1089" 
d="M1016 470l3 -5.99902c1.33301 -160 -36.667 -280.667 -114 -362s-191.333 -122 -342 -122s-271 46.167 -361 138.5s-135 223.166 -135 392.499v435c0 168.667 43.5 299.5 130.5 392.5s203.5 139.5 349.5 139.5c154.667 0 271.5 -41.333 350.5 -124
s119.833 -205 122.5 -367l-3 -6h-274c4 95.333 -9 164 -39 206s-82.333 63 -157 63c-64 0 -113 -25 -147 -75s-51 -125.667 -51 -227v-104h360v-227h-360v-106c0 -102.667 18.167 -179 54.5 -229s89.5 -75 159.5 -75c68.667 0 116.5 19.833 143.5 59.5
s38.833 107.5 35.5 203.5h274z" />
    <glyph glyph-name="uni0405" unicode="&#x405;" horiz-adv-x="1109" 
d="M757 380c0 56.667 -14.6641 101.501 -43.9971 134.501s-81 65.5 -155 97.5c-151.333 52.667 -264.833 112.5 -340.5 179.5s-113.5 160.833 -113.5 281.5c0 119.333 44 216.5 132 291.5s200.333 112.5 337 112.5c138.667 0 251.334 -41.833 338.001 -125.5
s128.667 -189.167 126 -316.5l-2 -6h-276c0 66.667 -16.667 120.667 -50 162s-80.333 62 -141 62c-56.667 0 -100.834 -17.167 -132.501 -51.5s-47.5 -77.5 -47.5 -129.5c0 -48 17.667 -87.5 53 -118.5s96.666 -65.5 183.999 -103.5
c138 -46.667 241.833 -105.834 311.5 -177.501s104.5 -168.5 104.5 -290.5c0 -126 -42 -224.667 -126 -296s-195.667 -107 -335 -107c-138.667 0 -258.834 40.5 -360.501 121.5s-150.834 197.167 -147.501 348.5l2 6h277c0 -90 19 -154.667 57 -194s95.333 -59 172 -59
c60 0 104.5 16 133.5 48s43.5 75.333 43.5 130z" />
    <glyph glyph-name="uni0406" unicode="&#x406;" horiz-adv-x="534" 
d="M408 0h-283v1456h283v-1456z" />
    <glyph glyph-name="uni0407" unicode="&#x407;" horiz-adv-x="534" 
d="M408 0h-283v1456h283v-1456zM619 1606h-250v198h250v-198zM171 1606h-251v198h251v-198z" />
    <glyph glyph-name="uni0408" unicode="&#x408;" horiz-adv-x="1015" 
d="M623 1456l282.999 0.000976562v-1012c0 -142.667 -40.167 -255.834 -120.5 -339.501s-181.5 -125.5 -303.5 -125.5c-132 0 -236.5 37.333 -313.5 112s-114.167 184.667 -111.5 330l3 6h277c0 -76.667 13.5 -132.667 40.5 -168s61.833 -53 104.5 -53
c38.667 0 71.834 21 99.501 63s41.5 100.333 41.5 175v1012z" />
    <glyph glyph-name="uni0409" unicode="&#x409;" horiz-adv-x="1843" 
d="M1130 1456l-0.000976562 -506.999h185c144 0 259.5 -44.333 346.5 -133s130.5 -202.334 130.5 -341.001c0 -140 -43.5 -254.167 -130.5 -342.5s-202.5 -132.5 -346.5 -132.5h-468v1228h-287l2 -426c1.33301 -285.333 -39 -490.333 -121 -615s-203.333 -187 -364 -187h-36
v227h33c82.667 0 137.834 40.5 165.501 121.5s40.5 232.167 38.5 453.5l-4 654h856zM1130 722.001v-495h185c60 0 107.167 24.167 141.5 72.5s51.5 107.5 51.5 177.5c0 67.333 -17.167 125 -51.5 173s-81.5 72 -141.5 72h-185z" />
    <glyph glyph-name="uni040A" unicode="&#x40a;" horiz-adv-x="1843" 
d="M395 836l452 0.000976562v620h284v-516h184c144 0 259.667 -43.833 347 -131.5s131 -200.167 131 -337.5c0 -138.667 -43.667 -251.834 -131 -339.501s-203 -131.5 -347 -131.5h-468v609h-452v-609h-284v1456h284v-620zM1131 713.001v-485.001h184
c60.667 0 108.167 23.667 142.5 71s51.5 105.333 51.5 174c0 66.667 -17.167 123.334 -51.5 170.001s-81.833 70 -142.5 70h-184z" />
    <glyph glyph-name="uni040B" unicode="&#x40b;" horiz-adv-x="1341" 
d="M972 1228l-378.002 0.000976562v-320c29.333 4 58 7.5 86 10.5s51.667 4.5 71 4.5c154.667 0 275.5 -39.5 362.5 -118.5s130.5 -199.5 130.5 -361.5v-443h-283v443c0 94.667 -16.667 160.5 -50 197.5s-86.666 55.5 -159.999 55.5c-20.667 0 -45.167 -1.33301 -73.5 -4
s-56.166 -6.33398 -83.499 -11.001v-681h-285v1228h-275v228h938v-228z" />
    <glyph glyph-name="uni040C" unicode="&#x40c;" horiz-adv-x="1137" 
d="M519 605h-124v-605h-285v1456h285v-592h92l284 592h349l-397 -665l430 -791h-346zM547 1826h299l3 -6l-249 -260h-229z" />
    <glyph glyph-name="uni040D" unicode="&#x40d;" horiz-adv-x="1226" 
d="M834 1456h284v-1456h-284v904l-6 1l-445 -905h-284v1456h284v-904l6 -1zM754 1559h-230l-246 260l3 6h298z" />
    <glyph glyph-name="uni040E" unicode="&#x40e;" horiz-adv-x="1111" 
d="M569 795l3 -14h6l209 675h297l-408 -1173c-39.333 -96.667 -84 -171.5 -134 -224.5s-120.667 -79.5 -212 -79.5c-13.333 0 -29 0.5 -47 1.5s-32.333 1.83301 -43 2.5l-5 227c5.33301 -1.33301 15 -2.33301 29 -3s26 -1 36 -1c44 0 76.667 11.833 98 35.5
s38.333 60.167 51 109.5l14 49h-1l-430 1056h304zM865 1897l1.99902 -6c2.66699 -86 -24.5 -155.833 -81.5 -209.5s-133.5 -80.5 -229.5 -80.5c-97.333 0 -174.666 27 -231.999 81s-84.333 123.667 -81 209l2 6h207c0 -35.333 8.5 -64.333 25.5 -87s43.167 -34 78.5 -34
c34 0 59.167 11.333 75.5 34s24.5 51.667 24.5 87h209z" />
    <glyph glyph-name="uni040F" unicode="&#x40f;" horiz-adv-x="1228" 
d="M96 1456h283v-1229h454v1229h284v-1456h-356v-359h-284v359h-381v1456z" />
    <glyph glyph-name="uni0410" unicode="&#x410;" horiz-adv-x="1134" 
d="M765 309h-384l-78 -309h-287l410 1456h296l409 -1456h-287zM439 538h268l-131 515h-6z" />
    <glyph glyph-name="uni0411" unicode="&#x411;" horiz-adv-x="1101" 
d="M929 1228l-535 -0.000976562v-308h183c146 0 262.333 -41.5 349 -124.5s130 -193.167 130 -330.5c0 -139.333 -43.5 -251.666 -130.5 -336.999s-203.167 -128 -348.5 -128h-468v1456h820v-228zM394 692.999v-465.999h183c61.333 0 109.166 22.667 143.499 68
s51.5 102.666 51.5 171.999c0 66 -17.167 120.167 -51.5 162.5s-82.166 63.5 -143.499 63.5h-183z" />
    <glyph glyph-name="uni0412" unicode="&#x412;" horiz-adv-x="1136" 
d="M110 0v1456h429c150 0 267.167 -33.333 351.5 -100s126.5 -166 126.5 -298c0 -69.333 -15.333 -130.833 -46 -184.5s-76.667 -93.834 -138 -120.501c76.667 -18 133.334 -57 170.001 -117s55 -130.333 55 -211c0 -139.333 -39.833 -245 -119.5 -317
s-193.834 -108 -342.501 -108h-486zM395 642.001v-414.999h201c60 0 104.833 16.667 134.5 50s44.5 83 44.5 149c0 69.333 -12.667 122.666 -38 159.999s-66 56 -122 56h-220zM395 841.002l157 0.000976562c58 1.33301 102.5 18.166 133.5 50.499s46.5 78.833 46.5 139.5
c0 68 -16 117.833 -48 149.5s-80.333 47.5 -145 47.5h-144v-387z" />
    <glyph glyph-name="uni0413" unicode="&#x413;" horiz-adv-x="983" 
d="M931 1228h-535v-1228h-285v1456h820v-228z" />
    <glyph glyph-name="uni0414" unicode="&#x414;" horiz-adv-x="1321" 
d="M1270 -357l-257.999 0.000976562v357h-706v-357h-264l-20 584h95c42.667 38.667 79.167 106.667 109.5 204s48.166 243.666 53.499 438.999l37 586h832v-1229h148zM565.001 870.001c-5.33301 -150.667 -20.333 -278 -45 -382s-57 -191 -97 -261h443v1001h-279z" />
    <glyph glyph-name="uni0415" unicode="&#x415;" horiz-adv-x="1008" 
d="M884 639h-489v-412h575v-227h-860v1456h858v-228h-573v-362h489v-227z" />
    <glyph glyph-name="uni0416" unicode="&#x416;" horiz-adv-x="1788" 
d="M1187 604h-139v-604h-284v604h-144l-245 -604h-354l377 798l-360 658h353l250 -594h123v594h284v-594h119l242 594h352l-352 -655l369 -801h-353z" />
    </font>
</defs>
</svg>
